<?xml version="1.0" encoding="utf-8"?>
<!-- Generator: Adobe Illustrator 27.5.0, SVG Export Plug-In . SVG Version: 6.00 Build 0)  -->
<svg version="1.1" xmlns="http://www.w3.org/2000/svg" xmlns:xlink="http://www.w3.org/1999/xlink" x="0px" y="0px"
	 viewBox="0 0 750 500" style="enable-background:new 0 0 750 500;" xml:space="preserve">
<g id="BACKGROUND">
	<rect x="-0.146" y="0.438" style="fill:#6DB4B8;" width="750" height="500"/>
</g>
<g id="OBJECTS">
	<path style="opacity:0.2;fill:#477589;" d="M616.782,458.055H133.218c-5.261,0-9.565-4.304-9.565-9.565l0,0
		c0-5.261,4.304-9.565,9.565-9.565h483.565c5.261,0,9.565,4.304,9.565,9.565l0,0C626.348,453.751,622.043,458.055,616.782,458.055z"
		/>
	<path style="opacity:0.2;fill:#477589;" d="M274.729,114.028c0,0,66.56-51.371,126.863-19.438
		c68.996,36.536,54.462,72.516,107.613,74.6c73.286,2.874,108.517,44.573,110.544,105.78
		c2.814,84.994-73.993,112.304-193.695,110.127c-119.702-2.177-221.133,15.343-264.526-25.612S129.97,249.649,182.87,233.32
		S222.056,149.753,274.729,114.028z"/>
	<g>
		<path style="fill:#D5B5C7;" d="M251.147,234.48c0,0-85.51-3.97-72.153-39.413s-13.241-26.001-18.942-53.722
			c-5.701-27.721,19.137-34.235,7.452-56.391c-11.685-22.156,26.429-18.898,29.305,8.552s-6.111,26.558,19.178,33.615
			s30.677,27.094,28.521,51.798C242.351,203.624,281.277,183.336,251.147,234.48z"/>
		<path style="fill:#FFFFFF;" d="M222.304,202.929c-0.151,0-0.304-0.023-0.455-0.071c-0.79-0.251-1.226-1.094-0.975-1.884
			c8.934-28.087-5.295-37.069-19.055-45.755c-7.993-5.046-16.259-10.264-19.355-19.086c-4.325-12.324-3.005-26.515-2.946-27.113
			c0.08-0.825,0.817-1.428,1.638-1.347c0.824,0.08,1.428,0.813,1.348,1.638c-0.014,0.14-1.31,14.144,2.792,25.829
			c2.75,7.837,10.219,12.551,18.126,17.542c14.038,8.861,29.948,18.905,20.313,49.201
			C223.53,202.521,222.94,202.929,222.304,202.929z"/>
	</g>
	<g>
		<path style="fill:#D5B5C7;" d="M515.352,274.221c0,0,85.578,2.032,74.738-34.26c-10.84-36.292,15.031-25.009,22.66-52.263
			s-16.691-35.491-3.482-56.774s-25.039-20.704-29.832,6.478s4.235,26.921-21.486,32.189s-32.5,24.877-32.081,49.672
			S488.88,221.091,515.352,274.221z"/>
		<path style="fill:#FFFFFF;" d="M546.44,244.772c-0.677,0-1.29-0.461-1.457-1.147c-7.489-30.897,9.086-39.801,23.711-47.657
			c8.237-4.425,16.018-8.605,19.311-16.229c4.917-11.388,4.598-25.429,4.595-25.57c-0.022-0.828,0.631-1.518,1.459-1.54
			c0.838-0.045,1.517,0.631,1.539,1.459c0.017,0.601,0.339,14.85-4.839,26.84c-3.707,8.584-12.317,13.209-20.646,17.683
			c-14.335,7.701-29.157,15.663-22.214,44.307c0.195,0.805-0.3,1.616-1.104,1.812C546.675,244.758,546.557,244.772,546.44,244.772z"
			/>
	</g>
	<g>
		<path style="fill:#D5B5C7;" d="M544.325,405.189c0,0-34.088-78.522,3.615-82.137c37.703-3.614,17.514-23.337,39.893-40.662
			c22.379-17.325,39.163,2.107,53.911-18.14s28.605,15.407,5.225,30.077c-23.38,14.669-26.536,6.207-21.736,32.02
			c4.8,25.813-10.818,39.473-33.948,48.415C568.155,383.704,603.511,409.72,544.325,405.189z"/>
		<path style="fill:#FFFFFF;" d="M561.297,366.238c-0.73,0-1.371-0.534-1.481-1.278c-0.122-0.82,0.442-1.583,1.262-1.705
			c29.151-4.347,30.95-21.076,32.69-37.255c1.011-9.399,2.056-19.118,8.613-25.782c9.16-9.31,22.483-14.373,23.046-14.584
			c0.773-0.293,1.639,0.102,1.931,0.877c0.291,0.775-0.102,1.641-0.877,1.932c-0.132,0.05-13.275,5.052-21.961,13.879
			c-5.825,5.921-6.77,14.702-7.77,23.999c-1.774,16.506-3.786,35.213-35.229,39.901
			C561.446,366.233,561.371,366.238,561.297,366.238z"/>
	</g>
	<g>
		<path style="fill:#D5B5C7;" d="M234.849,382.463c0,0-73.396,44.054-81.905,7.146s-25.425-14.315-45.525-34.239
			c-20.1-19.924-3.027-39.103-25.027-51.079s11.538-30.372,29.136-9.109s9.621,25.498,34.585,17.367s40.548,5.568,52.435,27.332
			C210.436,361.643,231.61,323.192,234.849,382.463z"/>
		<path style="fill:#FFFFFF;" d="M192.528,372.418c-0.653,0-1.253-0.429-1.441-1.087c-8.118-28.334-24.941-27.93-41.206-27.543
			c-9.452,0.229-19.222,0.459-26.687-5.172c-10.427-7.864-17.188-20.412-17.47-20.942c-0.39-0.731-0.113-1.64,0.618-2.029
			c0.732-0.392,1.639-0.113,2.029,0.617c0.066,0.124,6.743,12.502,16.63,19.96c6.631,5.002,15.459,4.791,24.809,4.567
			c16.591-0.393,35.405-0.847,44.162,29.716c0.228,0.796-0.232,1.627-1.029,1.855C192.803,372.399,192.664,372.418,192.528,372.418z
			"/>
	</g>
	<g>
		<polygon style="fill:#FFFFFF;" points="311.103,230.47 217.461,230.47 217.461,113.261 286.249,113.261 311.103,137.597 		"/>
		<polygon style="fill:#DFDFDF;" points="286.249,113.261 286.249,137.001 311.103,137.001 		"/>
		<path style="fill:#DFDFDF;" d="M298.419,150.111h-67.637c-1.281,0-2.33-1.048-2.33-2.33v-0.358c0-1.281,1.048-2.33,2.33-2.33
			h67.637c1.281,0,2.33,1.048,2.33,2.33v0.358C300.749,149.063,299.701,150.111,298.419,150.111z"/>
		<path style="fill:#DFDFDF;" d="M298.419,162.917h-67.637c-1.281,0-2.33-1.048-2.33-2.33v-0.358c0-1.281,1.048-2.33,2.33-2.33
			h67.637c1.281,0,2.33,1.048,2.33,2.33v0.358C300.749,161.869,299.701,162.917,298.419,162.917z"/>
		<path style="fill:#DFDFDF;" d="M298.419,177.923h-67.637c-1.281,0-2.33-1.048-2.33-2.33v-0.358c0-1.281,1.048-2.33,2.33-2.33
			h67.637c1.281,0,2.33,1.048,2.33,2.33v0.358C300.749,176.875,299.701,177.923,298.419,177.923z"/>
		<path style="fill:#DFDFDF;" d="M298.419,190.729h-67.637c-1.281,0-2.33-1.048-2.33-2.33v-0.358c0-1.281,1.048-2.33,2.33-2.33
			h67.637c1.281,0,2.33,1.048,2.33,2.33v0.358C300.749,189.681,299.701,190.729,298.419,190.729z"/>
		<path style="fill:#DFDFDF;" d="M298.419,205.366h-67.637c-1.281,0-2.33-1.048-2.33-2.33v-0.358c0-1.281,1.048-2.33,2.33-2.33
			h67.637c1.281,0,2.33,1.048,2.33,2.33v0.358C300.749,204.318,299.701,205.366,298.419,205.366z"/>
	</g>
	<g>
		<polygon style="fill:#FFFFFF;" points="248.644,275.425 155.002,275.425 155.002,158.216 223.791,158.216 248.644,182.552 		"/>
		<polygon style="fill:#DFDFDF;" points="223.791,158.216 223.791,181.956 248.644,181.956 		"/>
		<path style="fill:#DFDFDF;" d="M235.961,195.067h-67.637c-1.281,0-2.33-1.048-2.33-2.33v-0.358c0-1.281,1.048-2.33,2.33-2.33
			h67.637c1.281,0,2.33,1.048,2.33,2.33v0.358C238.291,194.018,237.242,195.067,235.961,195.067z"/>
		<path style="fill:#DFDFDF;" d="M235.961,207.873h-67.637c-1.281,0-2.33-1.048-2.33-2.33v-0.358c0-1.281,1.048-2.33,2.33-2.33
			h67.637c1.281,0,2.33,1.048,2.33,2.33v0.358C238.291,206.824,237.242,207.873,235.961,207.873z"/>
		<path style="fill:#DFDFDF;" d="M235.961,222.879h-67.637c-1.281,0-2.33-1.048-2.33-2.33v-0.358c0-1.281,1.048-2.33,2.33-2.33
			h67.637c1.281,0,2.33,1.048,2.33,2.33v0.358C238.291,221.83,237.242,222.879,235.961,222.879z"/>
		<path style="fill:#DFDFDF;" d="M235.961,235.685h-67.637c-1.281,0-2.33-1.048-2.33-2.33v-0.358c0-1.281,1.048-2.33,2.33-2.33
			h67.637c1.281,0,2.33,1.048,2.33,2.33v0.358C238.291,234.636,237.242,235.685,235.961,235.685z"/>
		<path style="fill:#DFDFDF;" d="M235.961,250.321h-67.637c-1.281,0-2.33-1.048-2.33-2.33v-0.358c0-1.281,1.048-2.33,2.33-2.33
			h67.637c1.281,0,2.33,1.048,2.33,2.33v0.358C238.291,249.273,237.242,250.321,235.961,250.321z"/>
	</g>
	<g>
		<rect x="453.57" y="117.11" style="fill:#FFFFFF;" width="114.351" height="111.139"/>
		<rect x="465.194" y="126.832" style="fill:#6DB4B8;" width="91.102" height="79.722"/>
		<path style="fill:#313045;" d="M465.194,206.554h91.102V187.67c0,0-10.458-21.957-21.94-24.762
			c-6.766-1.652-22.122,19.006-22.122,19.006s-16.688-29.898-26.659-30.832c-9.97-0.935-20.382,19.927-20.382,19.927V206.554z"/>
		<circle style="fill:#FFFFFF;" cx="518.026" cy="148.264" r="12.463"/>
	</g>
	<g>
		<g>
			<path style="fill:#313045;" d="M527.527,416.697H226.153c-8.383,0-15.243-6.859-15.243-15.243V192.507
				c0-8.383,6.859-15.243,15.243-15.243h301.374c8.383,0,15.243,6.859,15.243,15.243v208.947
				C542.769,409.838,535.91,416.697,527.527,416.697z"/>
			<rect x="225.765" y="197.177" style="fill:#6DB4B8;" width="302.15" height="177.617"/>
			<rect x="225.765" y="196.956" style="opacity:0.2;fill:#477589;" width="302.15" height="26.109"/>
			<path style="fill:#313045;" d="M559.221,428.055H194.458c-10.215,0-18.496-8.281-18.496-18.496v-14.881h401.756v14.881
				C577.717,419.774,569.436,428.055,559.221,428.055z"/>
			<path style="fill:#282737;" d="M323.099,385.259c0,14.302,11.595,25.897,25.897,25.897h55.687
				c14.303,0,25.897-11.595,25.897-25.897H323.099z"/>
			<rect x="175.826" y="385.133" style="fill:#42415E;" width="403.196" height="9.544"/>
			<path style="fill:none;stroke:#497587;stroke-width:4;stroke-linejoin:round;stroke-miterlimit:10;" d="M376.84,169.042"/>
			<path style="fill:none;stroke:#497587;stroke-width:4;stroke-linejoin:round;stroke-miterlimit:10;" d="M376.84,169.042"/>
		</g>
	</g>
	<g>
		<path style="fill:#FFF5A3;" d="M413.084,113.166c0-21.034-17.051-38.085-38.084-38.085c-21.034,0-38.084,17.051-38.084,38.085
			c0,11.887,5.448,22.499,13.981,29.483c10.518,11.786,8.095,22.37,8.095,22.37H375h16.009c0,0-2.424-10.583,8.095-22.37
			C407.636,135.665,413.084,125.053,413.084,113.166z"/>
		<path style="fill:#FFFFFF;" d="M371.813,166.721h6.373c2.807,0,5.104,2.297,5.104,5.104v15.062c0,2.807-2.297,5.104-5.104,5.104
			h-6.373c-2.807,0-5.104-2.297-5.104-5.104v-15.062C366.709,169.018,369.006,166.721,371.813,166.721z"/>
		<path style="fill:#6DB4B8;" d="M385.711,161.742h-1.209v-31.517c0-3.146-0.556-5.234-1.651-6.208
			c-0.727-0.646-1.738-0.869-3.179-0.696c-2.048,0.243-2.826,2.139-3.074,4.09c3.598,0.897,5.228,3.318,5.228,5.539
			c-0.001,1.799-1.033,3.17-2.509,3.335c-0.841,0.092-1.563-0.118-2.169-0.626c-1.571-1.322-1.754-4.282-1.823-5.397
			c-0.04-0.66-0.047-1.286-0.02-1.874c-0.122-0.017-0.247-0.033-0.373-0.047c-0.516-0.058-0.999-0.07-1.448-0.045
			c0.132,1.055,0.115,1.847,0.112,1.947c0.011,0.118,0.285,4.325-1.568,5.997c-0.648,0.587-1.497,0.807-2.445,0.643
			c-1.869-0.326-2.955-2.091-2.64-4.293c0.342-2.391,2.153-4.639,5.126-5.312c-0.414-1.82-1.361-3.82-3.521-3.954
			c-1.051-0.063-1.903,0.224-2.573,0.887c-1.883,1.857-1.707,5.943-1.706,5.984l0.001,30.689h-1.209v-30.659
			c-0.008-0.159-0.205-4.632,2.061-6.872c0.917-0.907,2.099-1.323,3.501-1.235c2.976,0.184,4.177,2.774,4.657,4.982
			c0.56-0.041,1.158-0.03,1.786,0.04c0.117,0.014,0.233,0.028,0.347,0.044c0.413-2.991,1.843-4.793,4.115-5.063
			c1.784-0.211,3.133,0.113,4.123,0.993c1.385,1.23,2.058,3.556,2.058,7.112V161.742z M372.278,128.47
			c-2.629,0.626-3.909,2.704-4.136,4.291c-0.17,1.189,0.159,2.671,1.65,2.931c0.583,0.103,1.053-0.01,1.427-0.349
			c1.178-1.064,1.244-4.024,1.17-5.075C372.389,130.226,372.404,129.47,372.278,128.47z M376.505,128.632
			c-0.017,0.556-0.001,1.088,0.027,1.556c0.054,0.88,0.22,3.559,1.394,4.546c0.345,0.29,0.756,0.407,1.256,0.349
			c0.844-0.094,1.433-0.972,1.434-2.134C380.617,131.369,379.508,129.434,376.505,128.632z"/>
		<rect x="359.221" y="159.785" style="fill:#D5B5C7;" width="31.648" height="21.861"/>
		<rect x="359.222" y="163.759" style="fill:#FFFFFF;" width="31.648" height="1.209"/>
		<rect x="359.222" y="170.111" style="fill:#FFFFFF;" width="31.648" height="1.209"/>
		<rect x="359.222" y="176.633" style="fill:#FFFFFF;" width="31.648" height="1.209"/>
		<path style="fill:#FFFFFF;" d="M388.308,84.608c0,0,17.527,7.23,15.234,23.416c-1.458,10.297-7.318-5.333-13.542-10.983
			c-6.224-5.65-17.903-6.298-15.618-10.719C376.667,81.899,382.891,82.79,388.308,84.608z"/>
	</g>
	<g>
		
			<rect x="374.196" y="50.566" transform="matrix(0.1155 -0.9933 0.9933 0.1155 285.1029 425.1249)" style="fill:#FFFFFF;" width="14.121" height="3.825"/>
		
			<rect x="401.024" y="59.96" transform="matrix(0.5685 -0.8227 0.8227 0.5685 125.1769 362.4128)" style="fill:#FFFFFF;" width="14.121" height="3.825"/>
		
			<rect x="421.751" y="75.281" transform="matrix(0.7784 -0.6277 0.6277 0.7784 46.5557 286.284)" style="fill:#FFFFFF;" width="14.121" height="3.826"/>
		
			<rect x="425.634" y="99.626" transform="matrix(1 -0.0076 0.0076 1 -0.7603 3.2964)" style="fill:#FFFFFF;" width="14.122" height="3.826"/>
		
			<rect x="431.21" y="120.808" transform="matrix(0.4948 -0.869 0.869 0.4948 107.6857 440.9771)" style="fill:#FFFFFF;" width="3.825" height="14.122"/>
		
			<rect x="333.572" y="157.162" transform="matrix(0.6906 -0.7232 0.7232 0.6906 -9.6627 295.5611)" style="fill:#FFFFFF;" width="14.122" height="3.825"/>
		
			<rect x="418.187" y="142.144" transform="matrix(0.7168 -0.6973 0.6973 0.7168 14.9474 335.2073)" style="fill:#FFFFFF;" width="3.825" height="14.121"/>
		
			<rect x="354.706" y="48.829" transform="matrix(0.9311 -0.3647 0.3647 0.9311 4.1808 133.9152)" style="fill:#FFFFFF;" width="3.825" height="14.121"/>
		
			<rect x="331.017" y="58.987" transform="matrix(0.7895 -0.6138 0.6138 0.7895 29.5465 218.2414)" style="fill:#FFFFFF;" width="3.826" height="14.121"/>
		
			<rect x="321.653" y="81.791" transform="matrix(0.2369 -0.9715 0.9715 0.2369 160.5882 382.1566)" style="fill:#FFFFFF;" width="3.826" height="14.122"/>
		
			<rect x="310.047" y="112.47" transform="matrix(0.9593 -0.2824 0.2824 0.9593 -19.3941 94.2068)" style="fill:#FFFFFF;" width="14.122" height="3.825"/>
		
			<rect x="317.83" y="136.223" transform="matrix(0.8431 -0.5377 0.5377 0.8431 -23.3095 196.3775)" style="fill:#FFFFFF;" width="14.121" height="3.825"/>
	</g>
	<path style="fill:#FFFFFF;" d="M669.963,362.048c-1.298,0-2.535,0.249-3.68,0.685c0.018-0.226,0.035-0.453,0.035-0.685
		c0-4.607-3.735-8.341-8.341-8.341c-2.719,0-5.126,1.306-6.649,3.319c-0.543-5.799-5.419-10.338-11.36-10.338
		c-6.304,0-11.414,5.11-11.414,11.414c0,1.953,0.493,3.791,1.357,5.399c-1.547-0.917-3.345-1.452-5.274-1.452
		c-5.727,0-10.37,4.643-10.37,10.37s4.643,10.37,10.37,10.37h45.326c5.727,0,10.37-4.643,10.37-10.37
		S675.69,362.048,669.963,362.048z"/>
	<path style="fill:#FFFFFF;" d="M516.224,63.182c-1.298,0-2.535,0.249-3.68,0.685c0.018-0.226,0.035-0.453,0.035-0.685
		c0-4.607-3.735-8.341-8.341-8.341c-2.719,0-5.126,1.306-6.649,3.319c-0.543-5.799-5.419-10.338-11.36-10.338
		c-6.304,0-11.414,5.11-11.414,11.414c0,1.953,0.493,3.791,1.357,5.399c-1.547-0.917-3.345-1.452-5.274-1.452
		c-5.727,0-10.37,4.643-10.37,10.37s4.643,10.37,10.37,10.37h45.326c5.727,0,10.37-4.643,10.37-10.37S521.952,63.182,516.224,63.182
		z"/>
	<path style="fill:#FFFFFF;" d="M139.909,203.808c-1.298,0-2.535,0.249-3.68,0.685c0.018-0.226,0.035-0.453,0.035-0.685
		c0-4.607-3.735-8.341-8.341-8.341c-2.719,0-5.126,1.306-6.649,3.319c-0.543-5.799-5.419-10.338-11.36-10.338
		c-6.304,0-11.414,5.11-11.414,11.414c0,1.953,0.493,3.791,1.357,5.399c-1.547-0.917-3.345-1.452-5.274-1.452
		c-5.727,0-10.37,4.643-10.37,10.37s4.643,10.37,10.37,10.37h45.326c5.727,0,10.37-4.643,10.37-10.37
		S145.637,203.808,139.909,203.808z"/>
	<g>
		<circle style="fill:#FFFFFF;" cx="377.424" cy="284.049" r="77.632"/>
		<path style="fill:#6DB4B8;" d="M377.849,353.815c-38.824,0.237-70.603-31.156-70.839-69.98
			c-0.237-38.824,31.157-70.604,69.981-70.84c38.825-0.237,70.604,31.158,70.84,69.982
			C448.068,321.8,416.674,353.578,377.849,353.815z M377.021,218.003c-36.062,0.22-65.223,29.739-65.003,65.801
			s29.738,65.222,65.8,65.002c36.063-0.22,65.223-29.737,65.004-65.799S413.085,217.783,377.021,218.003z"/>
		<g>
			<path style="fill:#6DB4B8;" d="M328.74,284.665c-0.176-28.901,21.607-51.343,51.091-51.522
				c18.815-0.115,35.557,9.677,43.988,24.561l-25.32,14.897c-3.339-6.769-10.347-10.799-18.882-10.747
				c-12.608,0.077-21.863,9.249-21.782,22.634s9.448,22.443,22.056,22.367c8.535-0.052,15.687-4.169,18.749-10.977l25.498,14.394
				c-8.248,15.18-24.676,25.174-43.685,25.29C350.971,335.74,328.916,313.566,328.74,284.665z"/>
		</g>
	</g>
	<g>
		<path style="fill:#CD5F6C;" d="M301.769,391.026c-0.778,0-1.555-0.021-2.335-0.062c-21.762-1.131-36.01-17.723-36.606-18.428
			c-1.467-1.737-1.248-4.336,0.489-5.802c1.736-1.465,4.328-1.248,5.797,0.483c0.146,0.172,12.671,14.624,30.825,15.527
			c11.916,0.604,23.833-4.731,35.38-15.833c1.638-1.573,4.246-1.523,5.822,0.115c1.576,1.639,1.525,4.246-0.115,5.822
			C328.471,384.919,315.275,391.026,301.769,391.026z"/>
		<path style="fill:#CD5F6C;" d="M377.718,391.026c-0.779,0-1.556-0.021-2.336-0.062c-21.761-1.131-36.01-17.723-36.605-18.428
			c-1.467-1.737-1.248-4.336,0.489-5.802c1.736-1.465,4.33-1.248,5.797,0.483c0.147,0.173,12.671,14.624,30.823,15.527
			c11.937,0.621,23.836-4.733,35.38-15.833c1.639-1.573,4.242-1.524,5.822,0.115c1.575,1.639,1.524,4.246-0.115,5.822
			C404.419,384.919,391.224,391.026,377.718,391.026z"/>
		<path style="fill:#CD5F6C;" d="M453.042,391.026c-0.779,0-1.556-0.021-2.336-0.062c-21.761-1.131-36.011-17.723-36.606-18.428
			c-1.468-1.737-1.248-4.336,0.489-5.802c1.74-1.468,4.332-1.246,5.797,0.483c0.146,0.172,12.671,14.624,30.825,15.527
			c11.91,0.618,23.833-4.731,35.38-15.833c1.639-1.573,4.242-1.524,5.822,0.115c1.575,1.639,1.524,4.246-0.115,5.822
			C479.743,384.919,466.547,391.026,453.042,391.026z"/>
		<g>
			<path style="fill:#FFFFFF;" d="M265.973,453.095c-2.274,0-4.117-1.843-4.117-4.117V369.88c0-2.274,1.844-4.117,4.117-4.117
				s4.117,1.843,4.117,4.117v79.097C270.091,451.252,268.247,453.095,265.973,453.095z"/>
			<path style="fill:#FFFFFF;" d="M277.014,454.04h-23.218c-2.274,0-4.117-1.843-4.117-4.117s1.844-4.117,4.117-4.117h23.218
				c2.274,0,4.117,1.843,4.117,4.117S279.288,454.04,277.014,454.04z"/>
			<circle style="fill:#FFFFFF;" cx="265.974" cy="362.547" r="7.334"/>
		</g>
		<g>
			<path style="fill:#FFFFFF;" d="M338.74,453.095c-2.274,0-4.117-1.843-4.117-4.117V369.88c0-2.274,1.844-4.117,4.117-4.117
				s4.117,1.843,4.117,4.117v79.097C342.858,451.252,341.014,453.095,338.74,453.095z"/>
			<path style="fill:#FFFFFF;" d="M349.78,454.04h-23.217c-2.274,0-4.117-1.843-4.117-4.117s1.844-4.117,4.117-4.117h23.217
				c2.274,0,4.117,1.843,4.117,4.117S352.054,454.04,349.78,454.04z"/>
			<circle style="fill:#FFFFFF;" cx="338.74" cy="362.547" r="7.334"/>
		</g>
		<g>
			<path style="fill:#FFFFFF;" d="M413.715,453.095c-2.274,0-4.117-1.843-4.117-4.117V369.88c0-2.274,1.843-4.117,4.117-4.117
				s4.117,1.843,4.117,4.117v79.097C417.832,451.252,415.989,453.095,413.715,453.095z"/>
			<path style="fill:#FFFFFF;" d="M424.755,454.04h-23.218c-2.274,0-4.117-1.843-4.117-4.117s1.843-4.117,4.117-4.117h23.218
				c2.274,0,4.117,1.843,4.117,4.117S427.029,454.04,424.755,454.04z"/>
			<circle style="fill:#FFFFFF;" cx="413.715" cy="362.547" r="7.334"/>
		</g>
		<g>
			<path style="fill:#FFFFFF;" d="M490.012,453.095c-2.274,0-4.117-1.843-4.117-4.117V369.88c0-2.274,1.843-4.117,4.117-4.117
				c2.274,0,4.117,1.843,4.117,4.117v79.097C494.13,451.252,492.287,453.095,490.012,453.095z"/>
			<path style="fill:#FFFFFF;" d="M501.052,454.04h-23.218c-2.274,0-4.117-1.843-4.117-4.117s1.843-4.117,4.117-4.117h23.218
				c2.274,0,4.117,1.843,4.117,4.117S503.327,454.04,501.052,454.04z"/>
			<circle style="fill:#FFFFFF;" cx="490.012" cy="362.547" r="7.334"/>
		</g>
	</g>
	<g>
		<path style="fill:#FFFFFF;" d="M171.192,352.624c0,0,19.527,0.465,23.271-1.397c3.745-1.863-0.363-18.897-5.531-19.207
			s-22.822,0.225-22.287,3.97C167.179,339.735,171.192,352.624,171.192,352.624z"/>
		<path style="fill:#D88B89;" d="M169.848,353.91c0,0-20.598,88.205-19.592,90.941c1.006,2.736,9.661,5.401,4.562,5.449
			c-5.099,0.048-12.892-3.578-14.459-3.368c-1.567,0.211-3.256-35.77-0.791-43.13c3.301-9.857,8.938-29.693,7.694-45.834
			C146.949,353.881,169.848,353.91,169.848,353.91z"/>
		<path style="fill:#313045;" d="M139.644,444.696c0,0,7.9,3.711,9.366,3.141s2.687-1.309,2.687-1.309
			c2.996,0.863,7.979,3.207,8.131,5.083s-18.215-1.618-19.908-2.449C138.228,448.331,139.644,444.696,139.644,444.696z"/>
		<path style="fill:#D88B89;" d="M207.893,352.183c0,0,23.901,87.367,26.089,89.294s11.067,0.147,6.607,2.618
			c-4.46,2.471-13.04,2.994-14.317,3.926c-1.277,0.932-19.9-29.901-21.239-37.547c-1.792-10.239-6.284-30.365-15.065-43.966
			C187.744,363.065,207.893,352.183,207.893,352.183z"/>
		<path style="fill:#313045;" d="M224.577,446.395c0,0,8.714-0.5,9.731-1.699c1.017-1.199,1.74-2.431,1.74-2.431
			c3.045-0.668,8.543-0.981,9.571,0.596c1.027,1.577-16.786,7.253-18.671,7.329C225.062,450.266,224.577,446.395,224.577,446.395z"
			/>
		<path style="fill:#FFFFFF;" d="M214.577,331.946c0,0,18.062,95.53,17.667,97.939s-17.141,9.6-23.641,9.005
			c-6.5-0.596-25.124-91.141-27.237-95.453C179.253,339.125,214.001,328.748,214.577,331.946z"/>
		<path style="fill:#FFFFFF;" d="M181.525,339.142c0,0-20.409,95.056-21.708,97.123c-1.299,2.067-19.523,2.199-25.283-0.871
			c-5.76-3.07,12.197-93.751,11.923-98.544C146.182,332.057,182.235,335.971,181.525,339.142z"/>
		<path style="fill:#313045;" d="M181.684,260.939c-2.061-1.273,19.418-1.535,30.668,6.355c2.754,1.931,4,11,2,16.25
			s-16.245,4.107-22.5,2.25C185.597,283.937,179.946,260.4,181.684,260.939z"/>
		<g>
			<path style="fill:#313045;" d="M179.866,237.218c0.923,0.1,7.627-4.519,2.957-10.873c-3.964-5.393-7.772,1.915-7.558-1.603
				c0.204-3.345-6.299-4.412-8.477-2.103c-2.55,2.704-1.883,5.374-3.669,7.067c-1.786,1.693-7.921,2.951-4.77,11.819
				c2.051,5.771,5.845,5.6,9.75,7.162C172.006,250.25,174.706,236.662,179.866,237.218z"/>
			<path style="fill:#D78A88;" d="M164.991,243.262c0,0,0.681,16.441-1.035,16.395c-1.715-0.047,3.415,15.297,10.244,13.237
				c6.829-2.061,10.071-10.761,7.483-11.954c-2.588-1.193-5.883-2.344-5.883-2.344c0.07-4.605,0.389-14.331,0.389-14.331
				L164.991,243.262z"/>
			<path style="fill:#D78A88;" d="M179.499,235.318c0,0,4.23,15.586-6.476,14.726c-10.706-0.859-9.587-16.258-4.19-19.353
				C176.49,226.301,179.499,235.318,179.499,235.318z"/>
			<path style="fill:#D78A88;" d="M166.124,241.588c0,0-0.15-4.034-2.465-2.192c-2.314,1.842-0.811,4.595,0.572,4.634
				C165.614,244.069,166.282,242.743,166.124,241.588z"/>
			<path style="fill:#313045;" d="M175.18,243.23l-0.588-0.809c0.629-0.457,1.347-1.007,1.721-1.328
				c-0.527-0.461-1.823-1.404-2.961-2.177l0.563-0.827c3.814,2.593,3.697,2.852,3.52,3.244
				C177.381,241.448,177.258,241.72,175.18,243.23z"/>
			<path style="fill:#D06E7C;" d="M166.682,245.318c0,0,2.048,5.054,9.21,2.575c0,0,0.218,5.96-0.339,6.07
				S166.027,252.872,166.682,245.318z"/>
			<circle style="fill:#313045;" cx="170.868" cy="238.444" r="0.859"/>
			<circle style="fill:#313045;" cx="176.229" cy="236.838" r="0.859"/>
			<path style="fill:#313045;" d="M179.264,233.457c0,0,1.175,12.008-0.229,10.884c-3.29-2.632-4.808-2.751-8.279-0.564
				c-2.027,1.277-8.678-4.92-2.742-12.49c0.496-0.632-4.413,2.116-4.413,2.116s1.17,9.392,1.07,14.141
				c-0.124,5.893,7.88,11.526,14.102,9.282c6.222-2.245,1.762-4.191,3.212-7.735c1.45-3.544,4.929-5.073,1.048-8.113
				s1.881-6.278-1.324-8.471C178.504,230.316,179.264,233.457,179.264,233.457z"/>
			<path style="fill:#FFFFFF;" d="M174.294,245.852c-1.217,0-2.155-1.231-2.194-1.284l0.599-0.451
				c0.008,0.01,0.785,1.042,1.624,0.984c0.431-0.012,0.84-0.3,1.214-0.856l0.622,0.419c-0.519,0.77-1.131,1.169-1.819,1.187
				C174.324,245.852,174.309,245.852,174.294,245.852z"/>
		</g>
		<path style="fill:#FFFFFF;" d="M163.956,259.656c0,0,6.886,8.021,10.522,8.015c3.637-0.006,3.934-8.105,3.934-8.105
			c3.271,1.372,16.651,1.399,18.678,5.626c2.027,4.227,11.497,57.089,0.036,58.715c-11.461,1.626-39.924-1.514-46.751-0.239
			c-6.827,1.274-1.911-45.837-3.961-53.56S163.956,259.656,163.956,259.656z"/>
		<path style="fill:#313045;" d="M182.572,259.567c0,0-1.081,22.7-5.018,21.648c-7.808-2.087-15.655-21.811-19.319-20.956
			s-12.994,3.357-13.113,7.034c-1.914,59.5,0.663,63.85,1.334,69.557c0.672,5.707,54.889,6.163,57.938-4.097
			c3.049-10.26,2.411-64.74-1.703-68.129C196.352,259.404,182.572,259.567,182.572,259.567z"/>
		<g>
			<path style="fill:#D5B5C7;" d="M256.073,288.591h-9.777v-21.293c0-13.298-10.818-24.117-24.117-24.117
				S198.063,254,198.063,267.299v21.293h-9.777v-21.293c0-18.69,15.206-33.894,33.894-33.894s33.894,15.205,33.894,33.894V288.591z"
				/>
			<path style="fill:#DFDFDF;" d="M188.721,274.911c-5.519,0.784-9.813,5.511-9.813,11.237v50.254
				c0,6.269,5.129,11.398,11.398,11.398h63.746c6.269,0,11.398-5.129,11.398-11.398v-10.057c-5.739,1.872-11.851,2.915-18.215,2.915
				C216.278,329.261,190.973,305.294,188.721,274.911z"/>
			<path style="fill:#FFFFFF;" d="M254.053,274.75h-63.746c-0.543,0-1.063,0.087-1.586,0.161
				c2.252,30.383,27.557,54.349,58.515,54.349c6.364,0,12.476-1.043,18.215-2.915v-40.198
				C265.451,279.879,260.322,274.75,254.053,274.75z"/>
			<path style="fill:#313037;" d="M231.848,304.23c0-5.34-4.329-9.668-9.668-9.668c-5.34,0-9.668,4.329-9.668,9.668
				c0,3.754,2.162,6.972,5.288,8.573l-3.222,19.142h7.219h0.767h7.219l-3.222-19.142
				C229.686,311.202,231.848,307.984,231.848,304.23z"/>
		</g>
		<path style="fill:#D78A88;" d="M264.496,302.597c0,0-7.291,11.438-6.044,11.074c1.248-0.363,6.462-3.818,6.462-3.818
			s-7.947,7.088-5.246,7.178c2.701,0.091,6.992-2.767,6.992-2.767s-7.232,7.732-4.304,6.342c2.929-1.391,8.151-5.777,7.888-10.543
			C269.982,305.296,264.496,302.597,264.496,302.597z"/>
		<path style="fill:#D78A88;" d="M149.014,276.159c0,0-1.829,22.653,7.747,28.922c11.738,7.684,33.776,10.038,40.264,17.444
			c1.733,1.978-6.215-0.962-6.215-0.962s4.88,3.765,4.381,4.844c-0.499,1.078-4.812-2.158-4.812-2.158s3.751,2.033,3.169,3.497
			c-0.581,1.465-6.292-1.986-6.292-1.986s3.339,2.588,2.907,3.235c-0.431,0.647-43.172-6.665-49.652-12.665
			c-4.599-4.259-10.258-24.46-9-31.475C132.018,282.029,149.014,276.159,149.014,276.159z"/>
		<path style="fill:#313045;" d="M160.118,297.555c0,0-24.176,5.123-28.785,5.042c-1.364-0.024-2.276-15.182,0-23.292
			c4.527-16.125,27.027-19.625,28.022-18.75C161.762,262.672,157.985,287.35,160.118,297.555z"/>
	</g>
	<g>
		<path style="fill:#D88B89;" d="M551.088,354.712c0,0,25.484,86.919,24.631,89.707s-9.345,5.931-4.251,5.694
			c5.094-0.236,12.672-4.292,14.249-4.168c1.576,0.123,1.256-35.896-1.615-43.107c-3.845-9.657-7.665-46.419-7.323-62.605
			C576.865,336.135,551.088,354.712,551.088,354.712z"/>
		<path style="fill:#D06E7C;" d="M559.498,383.726c0,0,20.235-2.25,20.235-2.669c0-7.52-2.107-18.496-1.819-19.597
			c0.288-1.101-23.408,3.346-23.467,4.778C554.388,367.67,559.498,383.726,559.498,383.726z"/>
		<path style="fill:#D88B89;" d="M524.077,345.933c0,0,5.549,96.234,4.089,98.757s-10.443,3.665-5.428,4.586
			c5.015,0.921,13.314-1.317,14.822-0.84c1.508,0.476,9.337-34.683,8.169-42.357c-1.563-10.277,0.04-43.422,4.03-59.111
			C550.769,342.996,524.077,345.933,524.077,345.933z"/>
		<path style="fill:#D06E7C;" d="M526.203,385.133l19.187-1.407c1.06-5.332,3.985-16.832,2.314-17.488
			c-1.671-0.657-21.972-2.969-22.579-1.5C524.517,366.207,526.203,385.133,526.203,385.133z"/>
		<path style="fill:#D78A88;" d="M539.999,266.037c0,0-33.422-14.72-36.422-22.732c-2.284-6.099,1.371-24.671,5.116-34.25
			c1.308-3.345,2.723-5.984,2.836-6.585c0.37-1.974-4.879,3.777-4.879,3.777s3.06-8.671,1.171-8.671
			c-0.703,0-3.532,7.333-3.532,7.333s2.82-9.521,0.664-8.206c-0.135,0.082-3.025,6.79-3.025,6.79s1.2-7.79,0.2-6.79
			s-22.667,44.712-15,56.523s35.385,27.926,40.004,29.297C531.752,283.893,539.999,266.037,539.999,266.037z"/>
		<path style="fill:#313045;" d="M538.647,446.356c0,0-8.419,2.302-9.765,1.49c-1.346-0.812-2.423-1.75-2.423-1.75
			c-3.1,0.337-8.411,1.792-8.882,3.614c-0.471,1.822,18.222,1.527,20.033,0.998C539.42,450.179,538.647,446.356,538.647,446.356z"/>
		<path style="fill:#313045;" d="M586.307,443.673c0,0-7.681,4.145-9.176,3.658s-2.756-1.157-2.756-1.157
			c-2.943,1.029-7.788,3.647-7.835,5.528c-0.047,1.882,18.096-2.631,19.74-3.555C587.923,447.223,586.307,443.673,586.307,443.673z"
			/>
		<path style="fill:#313045;" d="M577.004,310.377c0,0,23.879,53.396,16.378,55.228c-16.798,4.103-68.869,9.01-73.351,1.927
			c-1.939-3.065,3.042-44.545,5.502-48.195C527.995,315.687,574.916,306.24,577.004,310.377z"/>
		<path style="fill:#FFFFFF;" d="M549.701,225.976c0,0,7.679-4.749,13.123,0c5.444,4.749,1.822,9.348,6.718,11.833
			c2.309,1.172,9.614-1.926,12.278,7.175c2.664,9.101-5.218,9.603,4.402,11.34c9.62,1.738,10.541,22.124-5.676,25.367
			c-16.217,3.243-26.496-4.286-29.465-13.552c-2.969-9.267-5.519-1.512-10.681-8.147c-6.188-7.954,1.786-10.52-0.28-15.008
			C538.055,240.496,534.793,225.86,549.701,225.976z"/>
		<path style="fill:#D78A88;" d="M559.189,242.627c0,0-0.681,16.441,1.035,16.395c1.715-0.047-3.415,15.297-10.244,13.237
			c-6.829-2.061-10.071-10.761-7.483-11.954c2.588-1.193,5.883-2.344,5.883-2.344c-0.07-4.605-0.389-14.331-0.389-14.331
			L559.189,242.627z"/>
		<path style="fill:#D78A88;" d="M547.026,233.684c0,0-8.605,13.666,1.884,15.977c10.489,2.311,13.924-12.742,9.668-17.281
			C552.542,225.942,547.026,233.684,547.026,233.684z"/>
		<path style="fill:#D78A88;" d="M557.982,243.593c0,0,1.324-3.814,2.998-1.375s-0.569,4.631-1.902,4.264
			C557.744,246.115,557.493,244.651,557.982,243.593z"/>
		<path style="fill:#313045;" d="M548.797,243.676c-2.136-1.428-2.27-1.693-2.326-1.807c-0.192-0.386-0.319-0.64,3.389-3.381
			l0.594,0.804c-1.111,0.822-2.376,1.821-2.88,2.3c0.365,0.278,1.12,0.812,1.78,1.253L548.797,243.676z"/>
		<path style="fill:#D06E7C;" d="M557.183,246.808c0,0-2.048,5.054-9.21,2.575l0.339,6.07
			C548.869,255.563,557.837,254.362,557.183,246.808z"/>
		<circle style="fill:#313045;" cx="554.365" cy="239.198" r="0.859"/>
		<circle style="fill:#313045;" cx="547.961" cy="237.239" r="0.859"/>
		<path style="fill:#313045;" d="M551.141,246.152c-0.63,0-1.243-0.312-1.827-0.93l0.727-0.687c0.431,0.456,0.839,0.661,1.229,0.607
			c0.646-0.088,1.192-0.876,1.348-1.171l0.887,0.462c-0.032,0.062-0.803,1.519-2.094,1.7
			C551.321,246.145,551.231,246.152,551.141,246.152z"/>
		<path style="fill:#FFFFFF;" d="M560.223,259.022c0,0-7.767,8.431-11.404,8.425c-3.637-0.006-3.053-8.514-3.053-8.514
			c-3.271,1.372-16.651,1.399-18.678,5.626c-2.027,4.227-11.497,57.089-0.036,58.715c11.461,1.626,39.314-7.519,46.141-6.244
			s2.521-39.833,4.571-47.555S560.223,259.022,560.223,259.022z"/>
		<path style="fill:#313045;" d="M542.496,260.304c0,0-0.588,20.063,3.349,19.01c7.808-2.087,17.206-21.4,20.87-20.545
			c3.664,0.855,12.224,4.212,12.342,7.89c1.914,59.5-0.668,47.079-1.34,52.786c-0.672,5.707-50.778,10.858-53.827,0.598
			c-3.049-10.26-6.517-52.665-2.402-56.053C527.828,258.769,542.496,260.304,542.496,260.304z"/>
		<path style="fill:#FFFFFF;" d="M555.057,229.319c0,0-1.365,1.413,0.231,3.927c1.596,2.514,3.206,3.661,2.383,6.35
			c-0.823,2.689,2.519,3.516,4.662,1.426S560.439,229.005,555.057,229.319z"/>
		<path style="fill:#313045;" d="M508.32,272.787c0.166-0.398,8.313-24.404,14.798-21.315c6.485,3.089,19.628,7.082,19.378,8.832
			s-11.643,24.007-15.893,25.007S507.504,274.743,508.32,272.787z"/>
		<g>
			<polygon style="fill:#FFFFFF;" points="540.621,293.835 477.134,230.348 457.47,228.821 456.507,252.605 470.034,252.527 
				470.16,266.257 482.947,263.658 481.163,277.261 494.078,276.571 525.981,308.474 			"/>
			<path style="fill:#FFFFFF;" d="M551.816,282.64c-11.004-11.004-28.844-11.004-39.848,0c-11.004,11.004-11.004,28.844,0,39.848
				c11.004,11.004,28.844,11.004,39.848,0C562.82,311.484,562.82,293.643,551.816,282.64z M533.803,314.748
				c-2.837-2.837-2.837-7.436,0-10.273c2.837-2.837,7.436-2.837,10.273,0c2.837,2.837,2.837,7.436,0,10.273
				C541.239,317.585,536.64,317.585,533.803,314.748z"/>
		</g>
		<path style="fill:#D78A88;" d="M570.149,278.579c0,0-2.82,22.551-13.472,26.739c-13.056,5.134-35.112,2.953-42.972,8.883
			c-2.1,1.584,6.281,0.323,6.281,0.323s-5.544,2.693-5.275,3.851c0.269,1.157,5.151-1.134,5.151-1.134s-4.086,1.227-3.815,2.779
			c0.271,1.552,6.565-0.664,6.565-0.664s-3.796,1.854-3.505,2.575s44.175-0.414,51.74-4.969c5.37-3.233,14.472-19.184,14.668-26.308
			C585.595,287.786,570.149,278.579,570.149,278.579z"/>
		<path style="fill:#313045;" d="M563.71,292.825c0,0,20.062,14.447,21.867,8.542c4.887-15.995,1.079-35.998-12.202-40.142
			C573.375,261.225,560.981,289.764,563.71,292.825z"/>
	</g>
	<path style="fill:#FFFFFF;" d="M271.252,248.914c0,0,2.488-6.321,3.195-6.798c1.039-0.7,2.684,6.161,3.051,6.475
		c1.354,1.156,6.597,2.082,6.319,2.638s-6.168,3.3-6.353,3.435c-0.185,0.135-2.441,7.211-3.182,7.582s-2.624-7.47-3.179-7.983
		s-5.523-1.552-6.263-2.57C264.1,250.673,271.252,248.914,271.252,248.914z"/>
	<path style="fill:#FFFFFF;" d="M415.181,189.31c0,0,2.488-6.321,3.195-6.798c1.039-0.7,2.684,6.161,3.051,6.475
		c1.354,1.156,6.597,2.082,6.319,2.638c-0.278,0.555-6.168,3.3-6.353,3.435c-0.185,0.135-2.441,7.211-3.182,7.582
		c-0.741,0.37-2.624-7.47-3.179-7.983s-5.523-1.552-6.263-2.57C408.029,191.069,415.181,189.31,415.181,189.31z"/>
	<path style="fill:#FFFFFF;" d="M304.131,203.228c0,0,1.636-4.157,2.101-4.47c0.683-0.461,1.765,4.051,2.007,4.258
		c0.891,0.76,4.338,1.369,4.156,1.735c-0.183,0.365-4.056,2.17-4.178,2.259c-0.122,0.089-1.606,4.742-2.093,4.986
		c-0.487,0.244-1.726-4.913-2.091-5.25c-0.365-0.337-3.632-1.021-4.119-1.69S304.131,203.228,304.131,203.228z"/>
	<path style="fill:#FFFFFF;" d="M287.906,332.093c0,0,1.636-4.157,2.101-4.47c0.683-0.461,1.765,4.051,2.007,4.258
		c0.891,0.76,4.338,1.369,4.156,1.735c-0.183,0.365-4.056,2.17-4.178,2.259c-0.122,0.089-1.606,4.742-2.093,4.986
		s-1.726-4.913-2.091-5.25s-3.632-1.021-4.119-1.69C283.203,333.25,287.906,332.093,287.906,332.093z"/>
	<path style="fill:#FFFFFF;" d="M461.683,210.857c0,0,1.636-4.157,2.101-4.47c0.683-0.461,1.765,4.051,2.007,4.258
		c0.891,0.76,4.338,1.369,4.156,1.735c-0.183,0.365-4.056,2.17-4.178,2.259c-0.122,0.089-1.606,4.742-2.093,4.986
		s-1.726-4.913-2.091-5.25c-0.365-0.337-3.632-1.021-4.119-1.69C456.979,212.014,461.683,210.857,461.683,210.857z"/>
	<path style="fill:#FFFFFF;" d="M445.823,350.047c0,0,1.636-4.157,2.101-4.47c0.683-0.461,1.765,4.051,2.007,4.258
		c0.891,0.76,4.338,1.369,4.156,1.735c-0.183,0.365-4.056,2.17-4.178,2.259c-0.122,0.089-1.606,4.742-2.093,4.986
		c-0.487,0.244-1.726-4.913-2.091-5.25c-0.365-0.337-3.632-1.021-4.119-1.69C441.119,351.204,445.823,350.047,445.823,350.047z"/>
	<path style="fill:#FFFFFF;" d="M479.623,306.101c0,0,2.488-6.321,3.195-6.798c1.039-0.7,2.684,6.161,3.051,6.475
		c1.354,1.156,6.597,2.082,6.319,2.638c-0.278,0.555-6.168,3.3-6.353,3.435c-0.185,0.135-2.441,7.211-3.182,7.582
		s-2.624-7.47-3.179-7.983c-0.555-0.513-5.523-1.552-6.263-2.57C472.471,307.86,479.623,306.101,479.623,306.101z"/>
</g>
</svg>
