<?xml version="1.0" encoding="utf-8"?>
<!-- Generator: Adobe Illustrator 27.5.0, SVG Export Plug-In . SVG Version: 6.00 Build 0)  -->
<svg version="1.1" xmlns="http://www.w3.org/2000/svg" xmlns:xlink="http://www.w3.org/1999/xlink" x="0px" y="0px"
	 viewBox="0 0 1200 1200" style="enable-background:new 0 0 1200 1200;" xml:space="preserve">
<g id="Layer_2">
	<rect style="fill:#A4C4B4;" width="1200" height="1200"/>
</g>
<g id="Layer_1">
	<path style="fill:#B6D0C3;" d="M213.666,176.828c30.784,0.07,56.418,21.97,62.284,51.016c7.209-7.406,17.284-12.003,28.432-11.982
		c20.926,0.05,38.005,16.339,39.366,36.908l-192.805-0.435c-0.727-3.876-1.118-7.871-1.109-11.96
		C149.914,205.2,178.492,176.75,213.666,176.828z"/>
	<path style="fill:#B6D0C3;" d="M970.061,149.118c26.625,0.061,48.795,19.001,53.868,44.124c6.234-6.407,14.949-10.383,24.59-10.362
		c18.098,0.041,32.871,14.128,34.048,31.919l-166.754-0.377c-0.63-3.35-0.968-6.806-0.959-10.342
		C914.923,173.656,939.639,149.051,970.061,149.118z"/>
	<path style="fill:#B6D0C3;" d="M701.484,316.374c22.471,0.052,41.182,16.037,45.464,37.24c5.262-5.408,12.615-8.763,20.753-8.746
		c15.275,0.035,27.743,11.925,28.736,26.939L655.7,371.488c-0.532-2.827-0.817-5.744-0.81-8.728
		C654.948,337.084,675.808,316.317,701.484,316.374z"/>
	<path style="fill:#B6D0C3;" d="M337.01,957.601c29.43,0.068,53.936,21.003,59.543,48.772c6.891-7.083,16.524-11.477,27.18-11.454
		c20.005,0.045,36.334,15.618,37.634,35.281l-184.319-0.416c-0.696-3.703-1.07-7.523-1.061-11.432
		C276.064,984.725,303.384,957.526,337.01,957.601z"/>
	<path style="fill:#B6D0C3;" d="M797.99,883.035c25.271,0.056,46.31,18.032,51.126,41.877c5.918-6.079,14.188-9.853,23.339-9.833
		c17.175,0.039,31.195,13.408,32.313,30.293l-158.263-0.359c-0.598-3.179-0.92-6.457-0.911-9.814
		C745.658,906.323,769.116,882.97,797.99,883.035z"/>
	<polygon style="fill:#8C6239;" points="117.819,982.846 241.5,929.861 303.632,826.907 404.609,768.732 423.541,724.548 0,729.867 
		0,1122.686 68.166,1060.5 	"/>
	<polygon style="fill:#8C6239;" points="1078.5,963 937.5,887.675 880.327,810.713 800.949,767.698 777.875,725.348 1200,729.563 
		1200,1104.557 1135.463,1048.5 	"/>
	<g>
		<g>
			<g>
				<path style="fill:#534741;" d="M320.591,654.47l-11.075,60.447c0,0,13.299-11.848,23.737-1.746
					c18.149,17.56-32.128,12.272-32.128,12.272l1.557-63.445c0,0-43.055-1.478-95.677-25.236l-8.04,79.98
					c0,0,16.293-14.851,28.696-0.58c13.988,16.097-38.216,10.897-38.216,10.897l3.279-107.937
					C192.724,619.122,244.016,621.769,320.591,654.47z"/>
				<g>
					<g>
						<path style="fill:#FDDCBE;" d="M357.276,561.399c0,0,65.685-149.494-72.319-137.965c0,0-47.397,15.59-73.658,94.217
							C321.948,579.645,357.276,561.399,357.276,561.399z"/>
						<path style="fill:#534741;" d="M425.897,417.538c0,0-25.979,96.597-141.384,33.788L263.84,476.75
							c0,0-8.665-17.357-17.108-4.618c-8.443,12.738,10.491,13.679,10.491,13.679s-25.422,28.214-45.924,31.841
							c0.225,1.355,8.071-168.79,65.797-121.289c0,0,12.662-24.134,52.562-12.612C371.013,395.694,374.147,453.344,425.897,417.538z
							"/>
						<path style="fill:#534741;" d="M349.029,503.582c-1.862,2.871-2.024,6.08-0.357,7.158c1.665,1.078,4.523-0.376,6.387-3.248
							c1.865-2.876,2.025-6.079,0.36-7.16C353.755,499.253,350.893,500.708,349.029,503.582z"/>
						<path style="fill:#534741;" d="M300.038,489.504c-1.864,2.872-2.024,6.078-0.357,7.159c1.663,1.082,4.523-0.372,6.387-3.248
							c1.864-2.873,2.024-6.078,0.36-7.158C304.763,485.177,301.902,486.632,300.038,489.504z"/>
					</g>
				</g>
				<path style="fill:#F5F5F5;" d="M357.276,561.399l-36.685,93.071c0,0-53.547-2.928-127.866-35.348l18.575-101.47
					C211.299,517.652,303.418,562.322,357.276,561.399z"/>
			</g>
			<g>
				<path style="fill:#F5F5F5;" d="M354.92,563.978l-5.682,16.219c3.721,2.851,6.592,6.095,8.77,9.612l12.804-11.109
					C363.806,567.828,354.92,563.978,354.92,563.978z"/>
				<path style="fill:#FDDCBE;" d="M370.812,578.701l-12.804,11.109c19.097,30.867-16.135,83.186-16.135,83.186l-6.875,9.978
					c-0.435,0.716-2.883,5.334-0.721,6.472c1.039,0.548,2.049,0.067,2.868-0.665c-0.189,1.046-0.096,2.127,0.869,2.638
					c0.941,0.494,1.857,0.146,2.633-0.469c-0.116,0.946,0.041,1.872,0.914,2.334c1.038,0.549,2.047,0.067,2.867-0.665
					c-0.189,1.047-0.095,2.13,0.869,2.638c2.021,1.062,3.938-1.749,4.537-2.753l6.669-12.381
					C387.185,625.049,380.979,594.481,370.812,578.701z"/>
			</g>
			<polygon style="fill:#534741;" points="311.709,570.724 312.945,577.328 306.62,582.634 302.814,622.206 287.234,634.717 
				279.647,616.846 298.086,580.696 295.351,572.122 299.41,568.327 			"/>
		</g>
		<g>
			<path style="fill:#FDDCBE;" d="M246.792,397.699c-0.115-0.042-0.184-0.067-0.184-0.067S246.677,397.655,246.792,397.699z"/>
			<path style="fill:#F5F5F5;" d="M212.325,521.922l-2.889,17.127c-8.184-3.999-16.104-11.506-22.503-21.309l15.175-7.256
				C205.211,515.01,208.684,518.891,212.325,521.922z"/>
			<path style="fill:#FDDCBE;" d="M176.744,441.664c13.46-37.455,50.343-51.75,50.343-51.75s28.622-8.451,32.228,7.545
				c0,0,0.959,3.345-1.862,2.237c-2.823-1.106-4.962-6.689-9.722-5.7c0,0,4.36,0.156,3.403,3.395
				c-0.458,1.551-3.555,0.58-4.343,0.308c-0.115-0.045-0.184-0.067-0.184-0.067s0.069,0.024,0.184,0.067
				c0.735,0.276,3.45,1.43,2.979,3.239c-0.695,2.655-3.003,1.901-3.722,1.593c-0.133-0.068-0.222-0.103-0.222-0.103
				s0.086,0.044,0.222,0.103c0.644,0.326,2.4,1.465,0.852,3.627c-1.648,2.302-5.012-0.846-5.012-0.846s-8.627-4.309-14.709-0.533
				c-48.354,31.758-42.989,79.561-25.071,105.704l-15.175,7.256C174.283,498.349,167.601,469.942,176.744,441.664z"/>
			<path style="fill:#FDDCBE;" d="M246.048,402.531c-0.136-0.059-0.222-0.103-0.222-0.103S245.915,402.463,246.048,402.531z"/>
		</g>
		<g>
			<path style="fill:#534741;" d="M369.047,510.694c-0.001,0.098-0.199,0.068-0.051,0.094
				C369.073,510.727,369.126,510.677,369.047,510.694z"/>
			<path style="fill:#534741;" d="M357.346,491.616c-0.385,0.549,0.328,0.53,0.144,0.983c-0.004,0.043,0.283-0.18,0.256-0.072
				c-0.262,0.491,0.213,0.726,0.709,0.832l0.07-0.066c0.094,0.022-0.134,0.254-0.062,0.291l0.151-0.097
				c-0.155,0.114-0.011,0.152-0.116,0.253l0.296-0.109l-0.165,0.147c-0.383,0.363,0.17,0.212,0.022,0.48l0.114-0.081
				c-0.144,0.374,0.065,0.603,0.108,0.899l0.256-0.163c-0.189,0.13-0.193,0.232-0.194,0.317c0.218-0.094-0.117,0.218,0.039,0.226
				l0.038-0.035c-0.176,0.182,0.169,0.009-0.054,0.207l0.177-0.064c-0.269,0.195,0.195-0.01,0.077,0.122l-0.059,0.035
				c-0.043,0.083,0.111,0.019,0.089,0.089l0.034-0.017c-0.018,0.136,0.17,0.096-0.051,0.226c0.197-0.075,0.026-0.139,0.314-0.244
				c-0.045,0.439,0.188,0.725,0.368,1.032l0.239-0.058c-0.026,0.059,0.029,0.14-0.067,0.237c-0.002-0.015,0.124-0.051,0.145-0.04
				c0.117,0.004-0.207,0.207-0.07,0.208l0.198-0.153c-0.141,0.158-0.072,0.211-0.09,0.304l0.116-0.1
				c-0.155,0.187,0.114,0.099,0.027,0.231l0.113-0.097c0.212-0.002-0.25,0.188-0.108,0.215l0.132-0.103
				c-0.185,0.217-0.034,0.295-0.068,0.417l0.051-0.034c0.021,0.1,0.144,0.144,0.1,0.294c0.078,0.001,0.305-0.197,0.311-0.082
				c-0.259,0.152-0.018,0.212-0.336,0.336c0.086,0.05,0.255,0.108,0.197,0.213c0.078-0.093,0.336-0.154,0.32-0.23l0.184-0.046
				c0.1-0.071-0.066-0.027,0.076-0.091c0.008,0.037-0.037,0.19,0.022,0.193c-0.125,0.152-0.384,0.382-0.36,0.495
				c0.074-0.104,0.299-0.147,0.325-0.203l-0.412,0.428c0.007,0.038,0.205-0.115,0.166-0.029l-0.146,0.13
				c0.037-0.007,0.014,0.166,0.275,0.027c0.107-0.045,0.022-0.082,0.134-0.101c0.033,0.059-0.053,0.114-0.022,0.172l0.034-0.018
				c0.061,0.015-0.039,0.177-0.203,0.22c-0.023-0.022,0.157-0.08,0.06-0.078c-0.13,0.116-0.132,0.209-0.097,0.268l0.162-0.135
				c-0.15,0.198-0.163,0.317-0.193,0.454c-0.119,0.074,0.198-0.165,0.127-0.138c0.232,0.009-0.098,0.371,0.201,0.315
				c0.011-0.028-0.176,0.095-0.141,0.077c0.047,0.043,0.219-0.064,0.177,0.009c0.103-0.057-0.008,0.064-0.018,0.119
				c-0.061,0.064,0.056-0.021,0.048-0.059c-0.055,0.103-0.091,0.396,0.125,0.422c-0.067,0.039-0.203,0.22-0.179,0.242l0.15-0.107
				c0.109-0.033,0.042,0.098,0.178,0.021c-0.158,0.174,0.031-0.316-0.071-0.152c0.145-0.058-0.186,0.259,0.019,0.113
				c0.026,0.057-0.119,0.216,0.059,0.176c-0.035,0.003,0.192-0.174,0.207-0.125c0.018,0.093-0.063,0.067-0.078,0.161l-0.041,0.077
				c-0.152,0.095,0.061,0.055-0.128,0.13c0.132-0.067-0.011,0.157,0.237-0.004l0.194-0.132c0.007,0.042-0.179,0.182-0.252,0.259
				l0.099-0.042c-0.303,0.191,0.074,0.061-0.141,0.244c0.147,0.004,0.115,0.168,0.327,0.086c-0.062,0.108-0.143,0.223-0.04,0.242
				l0.084-0.093c0.113-0.018,0.037,0.04,0.01,0.105c0.04-0.036,0.224-0.034,0.358-0.057c-0.061,0.108-0.237,0.19-0.334,0.257
				c0.333-0.135-0.105,0.265,0.206,0.158c0.03-0.043,0.102-0.165,0.205-0.169c0.33-0.136-0.166,0.233,0.027,0.222l-0.264,0.132
				c0.176-0.059-0.077,0.202,0.174,0.04c-0.075,0.08,0.14,0.04-0.112,0.181c0.283,0.002,0.061,0.383,0.549,0.195
				c-0.031,0.042,0.04,0.064-0.094,0.13c-0.154,0.052,0.073-0.103-0.027-0.059l-0.095,0.091c0.08,0.004,0.117,0.024,0.297-0.135
				c0.206-0.006-0.362,0.343-0.198,0.395c0.099-0.065,0.141-0.081,0.146-0.039l-0.137,0.168c0.084,0.048,0.256-0.099,0.429-0.2
				c-0.005,0.056,0.031,0.097-0.087,0.193l0.244-0.084c-0.176,0.061-0.085,0.095-0.113,0.138l0.028-0.043
				c0.078-0.037,0.061,0.034,0.053,0.07c-0.111,0.058-0.18,0.038-0.227,0.034c-0.064,0.065-0.026,0.084-0.1,0.165
				c0.163-0.108,0.158-0.01,0.193,0.012c0.058,0.011-0.127,0.13-0.116,0.137c0.089-0.053,0.05,0.049,0.156-0.054
				c0.02-0.028-0.101,0.024-0.036-0.042c0.078-0.016,0.228-0.11,0.146,0.004c-0.06,0.086-0.336,0.193-0.19,0.196l0.149-0.138
				l0.126,0.011l-0.152,0.097l0.076-0.04c-0.15,0.119,0.01,0.129-0.163,0.254c0.004,0.042,0.147,0.003,0.184,0.023l0.01-0.012
				c0.113-0.018,0.084,0.069-0.002,0.165l0.033-0.023c0.026,0.014,0.03,0.077-0.043,0.158c0.147-0.017,0.588-0.335,0.431-0.159
				c0.026,0.056-0.231,0.256-0.343,0.29c0.161,0.034-0.023,0.292,0.268,0.239l-0.116,0.116c0.144,0.103-0.004,0.406,0.365,0.335
				c0.041-0.081,0.153-0.097,0.24-0.149c-0.115,0.118,0.168-0.043-0.06,0.11c-0.142,0.081-0.207,0.124-0.285,0.119
				c-0.024,0.13,0.052,0.256,0.208,0.224c-0.077,0.014-0.108,0.06-0.139,0.105c0.219-0.141,0.289-0.1,0.238-0.006l-0.13,0.087
				l0.155-0.053c-0.031,0.044-0.27,0.19-0.113,0.158l0.153-0.074c-0.082,0.115-0.229,0.297-0.082,0.28l0.223-0.077
				c-0.008,0.035-0.104,0.145-0.185,0.14c0.174,0.018,0.222,0.067,0.412-0.01c-0.322,0.406-0.205,0.639-0.067,0.801l0.097-0.067
				c0.124-0.009-0.161,0.132-0.07,0.123c0.088-0.073,0.232-0.09,0.327-0.2c0.148,0.007-0.122,0.194-0.141,0.267
				c-0.13,0.086,0.064-0.087-0.1,0.023c-0.042,0.037,0.162,0.033-0.032,0.167c0.088-0.032,0.227-0.135,0.304-0.194l-0.073,0.102
				c0.266-0.09,0.348-0.37,0.67-0.492l-0.008,0.058c0.233-0.092,0.176-0.245,0.305-0.191c-0.072,0.1-0.342,0.314-0.453,0.33
				c-0.002,0.122-0.454,0.33-0.381,0.414c0.135-0.046-0.017-0.093,0.16-0.175c0.188-0.054-0.037,0.144,0.043,0.149
				c-0.102,0.002-0.281,0.163-0.301,0.214c0.124-0.012,0.169-0.148,0.234-0.092c-0.11,0.08-0.158,0.198-0.273,0.192
				c-0.246,0.184,0.116,0.026-0.065,0.186c0.2-0.089,0.385-0.329,0.523-0.311c-0.187,0.097-0.186,0.24-0.474,0.36
				c0.067,0,0.209-0.083,0.306-0.171c0.135-0.026-0.263,0.299,0.097,0.1l-0.171,0.125l0.233-0.071
				c0.026,0.035-0.176,0.269,0.098,0.098c-0.021,0.03,0.042,0.108-0.167,0.19c-0.146,0.017,0.102-0.145-0.172-0.018
				c0.232-0.089,0.017,0.091-0.034,0.163l0.111-0.059c-0.031,0.043,0.018,0.07-0.091,0.151l0.163-0.088l-0.149,0.118
				c-0.038,0.121,0.294-0.155,0.289-0.058l0.094-0.127c-0.022,0.027,0.145-0.042,0.115,0.025l-0.409,0.313
				c-0.04,0.08,0.178-0.081,0.049,0.049l0.147-0.159c0.043-0.038,0.265-0.113,0.293-0.056c-0.031,0.065-0.212,0.246-0.325,0.241
				c0.014,0.029,0.127,0.012,0.223-0.074c-0.016,0.091-0.165,0.088-0.225,0.196c0.112-0.037,0.292-0.056,0.459-0.102l0.215-0.204
				l0.023,0.034c0.169-0.166,0.166-0.067,0.358-0.22c0.047,0.006-0.006,0.078-0.046,0.136c-0.378,0.13-0.408,0.359-0.724,0.521
				c-0.024,0.149,0.779-0.386,0.365,0.006c-0.089,0.031-0.291,0.221-0.242,0.105c0.071,0.044-0.281,0.228-0.109,0.223
				c0.091-0.128,0.344-0.13,0.477-0.316c-0.096,0.066-0.102,0.003-0.082-0.026c0.133-0.046,0.304-0.19,0.343-0.128
				c-0.004,0.055,0.02,0.111-0.144,0.201c-0.174,0.105-0.016-0.072-0.178,0.06c-0.015,0.115,0.259-0.031-0.031,0.188
				c-0.004-0.064-0.193,0.033-0.31,0.106l-0.04,0.1l0.111-0.081c0.137,0.039-0.194,0.153-0.111,0.222l0.255-0.098
				c0.184-0.139-0.166-0.074,0.165-0.253c0.047,0.049-0.105,0.166,0.011,0.171l0.04-0.079c0.021,0.017,0.459-0.222,0.26,0.01
				c-0.071,0.103-0.108,0.079-0.228,0.154c0.02,0.114-0.086,0.217-0.067,0.288c0.226-0.155,0.086,0.091,0.285-0.122
				c-0.155,0.054-0.22-0.087-0.018-0.255c0.299-0.133-0.082-0.049,0.188-0.239c0.051,0.07,0.323-0.099,0.509-0.195
				c0.026,0.012-0.039,0.079-0.061,0.107c-0.163,0.111-0.176,0.081-0.352,0.187c0.097,0.051,0.051,0.19-0.086,0.335
				c0.099-0.023,0.263-0.133,0.259-0.178c0.01,0.13,0.095,0.22,0.202,0.283c-0.311,0.106,0,0.142-0.254,0.238
				c-0.091-0.011-0.313,0.066-0.42,0.168c0.035,0.021,0.12-0.075,0.186-0.097c-0.126,0.13,0.277-0.083,0.065,0.097
				c0.034-0.142,0.324-0.218,0.53-0.368c-0.081,0.139,0.152-0.095,0.19-0.029c-0.081,0.137-0.128,0.272-0.131,0.372
				c0.259-0.035,0.141,0.226,0.182,0.309c0.134-0.025,0.361-0.199,0.431-0.179c0.027,0.055-0.287,0.119-0.128,0.131l0.045-0.038
				c-0.043,0.059,0.253,0.044-0.084,0.281l0.249-0.185c0.034,0.001-0.019,0.051-0.039,0.081l0.216-0.141
				c0.212-0.061,0.034,0.121,0.058,0.178l-0.177,0.059c-0.068,0.167,0.125,0.133,0.125,0.253l0.15-0.094l-0.061,0.108
				c0.142-0.103,0.266-0.114,0.158-0.01l0.293-0.361c-0.112,0.015-0.16,0.153-0.324,0.218c-0.145,0.061-0.152-0.046-0.014-0.148
				c0.036,0.021,0.005,0.044-0.035,0.099c0.217-0.116,0.182-0.16,0.309-0.268c0.001,0.02,0.079,0.006,0.015,0.048
				c0.084-0.094,0.08-0.136,0.054-0.193c-0.061,0.086-0.144,0.06-0.197,0.111c0.185-0.117,0.213-0.203,0.12-0.237
				c-0.245,0.084,0.064-0.21-0.042-0.248c-0.17,0.145-0.3,0.277-0.347,0.37c-0.125,0.01-0.027-0.056-0.152-0.046
				c0.127-0.108,0.335-0.257,0.382-0.371l-0.143,0.08c0.04-0.1,0.247-0.225,0.163-0.274c-0.143-0.081-0.219-0.209-0.294-0.292
				l-0.141,0.081c0.267-0.234,0.003-0.241,0.095-0.392c-0.21-0.039-0.026-0.344-0.303-0.259c-0.022-0.278-0.029-0.525-0.212-0.715
				l-0.182,0.161c0.126-0.129-0.133,0.045-0.124-0.013c0.188-0.053,0.176-0.179,0.286-0.283c-0.217-0.002-0.122-0.23-0.031-0.404
				l-0.141,0.081c0.209-0.248-0.084-0.211-0.193-0.295c-0.065,0.022-0.208,0.082-0.214,0.041c0.191-0.196,0.157-0.217,0.244-0.391
				c-0.037-0.063-0.155-0.13-0.283-0.142c0.174-0.431-0.176-0.552-0.135-0.917l-0.176,0.083c0.206-0.454-0.291-0.556-0.237-0.87
				l-0.269,0.191c-0.125-0.014-0.016-0.195,0.194-0.296c-0.124-0.015,0.039-0.245-0.215-0.146c-0.093-0.034,0.079-0.159,0.084-0.237
				c-0.185-0.067-0.193-0.131-0.214-0.288l0.035,0.02c-0.053,0.052-0.172,0.124-0.21,0.105c0.051-0.094-0.178-0.125,0.186-0.281
				c-0.275-0.017-0.029-0.406-0.371-0.377c0.099-0.046,0.097-0.09,0.151-0.14c-0.068-0.118-0.328-0.127-0.228-0.316
				c-0.057,0.012-0.138,0.127-0.177,0.084l0.15-0.139c0.057-0.293-0.409-0.275-0.467-0.475c-0.008-0.412-0.291-0.677-0.438-0.986
				l-0.064,0.043c0.198-0.254-0.403-0.072-0.063-0.383c-0.078,0.017-0.083-0.07-0.203,0.025c0.134-0.187-0.304-0.113-0.141-0.368
				l-0.019,0.052c-0.217-0.024-0.076-0.247-0.283-0.286l-0.094,0.109c-0.158,0.032,0.218-0.284-0.122-0.113
				c-0.014-0.028,0.151-0.116,0.152-0.093c-0.286-0.189-0.249-0.595-0.341-0.914c-0.311-0.078-0.553,0.319-0.406,0.018
				c-0.069,0.026,0.119-0.084,0.051-0.046c0.054-0.114-0.42,0.128-0.275-0.015c0.209-0.105,0.096-0.097,0.217-0.171
				c-0.204-0.042-0.398,0.043-0.304-0.143l-0.1,0.071c0.229-0.292-0.009-0.324,0.278-0.625c-0.31-0.65-0.475-1.353-0.797-1.973
				c-0.423-0.551-0.619-1.222-1.164-1.71c-0.36,0.027-0.359,0.011-0.339-0.211l-0.094,0.065c0.222-0.144-0.045-0.124,0.163-0.267
				c-0.177-0.196-0.237-0.439-0.374-0.667c-0.003,0.051-0.174,0.179-0.187,0.127l0.119-0.129l-0.07,0.031
				c0.015-0.05,0.108-0.151,0.199-0.163c-0.152-0.693-0.945-0.982-1.23-1.576c-0.175-0.077-0.203-0.318-0.245-0.49
				c-0.56-0.249-1.038-0.487-1.091-1.049C357.922,490.946,357.372,491.354,357.346,491.616z"/>
			<path style="fill:#534741;" d="M369.018,510.593c-0.122,0.053-0.215,0.041-0.341,0.172L369.018,510.593z"/>
			<path style="fill:#534741;" d="M367.05,509.966c0.031-0.024-0.059,0.007-0.081,0.013c0.002,0.025-0.083,0.097-0.016,0.075
				L367.05,509.966z"/>
			<path style="fill:#534741;" d="M366.775,509.666c-0.097,0.065-0.133,0.188-0.119,0.237L366.775,509.666z"/>
			<path style="fill:#534741;" d="M366.168,509.6c-0.101,0.023-0.144,0.059-0.118,0.095L366.168,509.6z"/>
			<path style="fill:#534741;" d="M366.385,509.439c-0.015-0.029-0.081-0.007-0.147,0.016
				C366.326,509.404,366.22,509.55,366.385,509.439z"/>
			<path style="fill:#534741;" d="M365.675,508.926c-0.002-0.021,0.06-0.108-0.062-0.056
				C365.703,508.839,365.534,509.03,365.675,508.926z"/>
			<path style="fill:#534741;" d="M365.633,508.516l-0.012-0.029c-0.059,0.008-0.12,0.074-0.119,0.094L365.633,508.516z"/>
			<polygon style="fill:#534741;" points="362.51,502.441 362.48,502.506 362.577,502.442 			"/>
			<path style="fill:#534741;" d="M360.97,499.884c0.043-0.072-0.109,0.034-0.128,0.037
				C360.851,499.958,360.959,499.835,360.97,499.884z"/>
			<polygon style="fill:#534741;" points="360.638,498.204 360.642,498.216 360.847,498.087 			"/>
		</g>
		<g>
			<path style="fill:#534741;" d="M286.966,487.324c-0.096-0.007-0.07-0.199-0.091-0.053
				C286.933,487.347,286.983,487.4,286.966,487.324z"/>
			<path style="fill:#534741;" d="M305.001,476.32c-0.534-0.399-0.5,0.308-0.94,0.114c-0.041-0.004,0.18,0.284,0.077,0.252
				c-0.478-0.27-0.695,0.193-0.784,0.676l0.065,0.071c-0.017,0.093-0.245-0.139-0.278-0.066l0.094,0.148
				c-0.112-0.156-0.146-0.013-0.245-0.121l0.111,0.294l-0.145-0.166c-0.355-0.389-0.199,0.16-0.46,0.005l0.079,0.115
				c-0.36-0.148-0.575,0.051-0.856,0.084l0.16,0.257c-0.129-0.19-0.226-0.198-0.31-0.2c0.096,0.217-0.21-0.124-0.213,0.029
				l0.031,0.04c-0.177-0.179-0.001,0.168-0.196-0.059l0.063,0.178c-0.193-0.27,0.014,0.19-0.115,0.072l-0.034-0.059
				c-0.082-0.045-0.017,0.111-0.083,0.086l0.018,0.035c-0.132-0.023-0.087,0.165-0.218-0.058c0.075,0.197,0.133,0.029,0.239,0.319
				c-0.423-0.059-0.691,0.166-0.98,0.333l0.06,0.237c-0.056-0.03-0.133,0.022-0.227-0.075c0.012-0.001,0.049,0.126,0.041,0.144
				c-0.002,0.117-0.202-0.208-0.202-0.074l0.151,0.198c-0.153-0.142-0.201-0.074-0.294-0.096l0.1,0.117
				c-0.18-0.159-0.091,0.108-0.22,0.018l0.096,0.115c0.005,0.21-0.187-0.251-0.209-0.113l0.1,0.134
				c-0.211-0.188-0.283-0.04-0.401-0.078l0.035,0.051c-0.097,0.018-0.135,0.139-0.282,0.092c0.004,0.076,0.199,0.305,0.088,0.307
				c-0.152-0.258-0.204-0.02-0.33-0.341c-0.047,0.086-0.101,0.248-0.199,0.19c0.09,0.078,0.153,0.332,0.224,0.321l0.05,0.18
				c0.07,0.101,0.024-0.063,0.09,0.077c-0.037,0.007-0.183-0.04-0.184,0.016c-0.149-0.124-0.376-0.386-0.484-0.366
				c0.101,0.074,0.146,0.297,0.201,0.322l-0.418-0.414c-0.037,0.004,0.114,0.205,0.031,0.164l-0.13-0.147
				c0.007,0.036-0.16,0.01-0.022,0.272c0.047,0.104,0.081,0.022,0.103,0.131c-0.057,0.031-0.111-0.054-0.168-0.026l0.018,0.034
				c-0.012,0.06-0.169-0.043-0.215-0.205c0.02-0.023,0.081,0.156,0.075,0.06c-0.114-0.132-0.202-0.134-0.257-0.103l0.131,0.165
				c-0.192-0.155-0.306-0.173-0.439-0.204c-0.073-0.12,0.162,0.2,0.137,0.128c-0.005,0.232-0.358-0.105-0.3,0.19
				c0.027,0.015-0.095-0.175-0.075-0.141c-0.043,0.047,0.065,0.219-0.005,0.174c0.057,0.104-0.062-0.007-0.114-0.018
				c-0.062-0.065,0.021,0.053,0.056,0.046c-0.098-0.056-0.381-0.099-0.401,0.114c-0.04-0.07-0.216-0.207-0.237-0.185l0.105,0.152
				c0.033,0.105-0.094,0.038-0.016,0.172c-0.169-0.158,0.305,0.042,0.142-0.065c0.061,0.146-0.251-0.189-0.108,0.018
				c-0.052,0.023-0.208-0.125-0.168,0.052c-0.001-0.034,0.174,0.193,0.126,0.206c-0.089,0.017-0.065-0.062-0.155-0.081l-0.076-0.042
				c-0.095-0.152-0.051,0.059-0.128-0.128c0.067,0.13-0.15-0.015,0.01,0.234l0.131,0.197c-0.041,0.002-0.18-0.183-0.258-0.257
				l0.046,0.098c-0.19-0.305-0.059,0.069-0.239-0.147c0,0.145-0.158,0.111-0.075,0.32c-0.104-0.064-0.216-0.146-0.234-0.048
				l0.092,0.089c0.019,0.108-0.039,0.034-0.101,0.003c0.034,0.042,0.039,0.222,0.063,0.356c-0.105-0.063-0.187-0.237-0.253-0.335
				c0.137,0.33-0.259-0.112-0.149,0.198c0.042,0.031,0.162,0.104,0.166,0.207c0.138,0.329-0.225-0.171-0.21,0.022l-0.134-0.265
				c0.061,0.174-0.195-0.083-0.034,0.171c-0.078-0.075-0.035,0.135-0.176-0.116c0.006,0.28-0.366,0.051-0.174,0.535
				c-0.044-0.031-0.06,0.038-0.127-0.095c-0.054-0.154,0.098,0.075,0.053-0.024l-0.083-0.098c-0.006,0.08-0.024,0.114,0.135,0.298
				c0.008,0.201-0.338-0.366-0.384-0.208c0.065,0.099,0.079,0.142,0.04,0.145l-0.165-0.141c-0.044,0.083,0.101,0.258,0.204,0.43
				c-0.054-0.007-0.096,0.027-0.188-0.092l0.086,0.244c-0.062-0.177-0.092-0.088-0.135-0.119l0.043,0.031
				c0.037,0.078-0.032,0.059-0.066,0.051c-0.059-0.11-0.043-0.179-0.039-0.223c-0.062-0.065-0.082-0.031-0.16-0.104
				c0.109,0.161,0.012,0.155-0.007,0.19c-0.01,0.055-0.127-0.128-0.134-0.118c0.053,0.09-0.045,0.049,0.053,0.155
				c0.029,0.023-0.023-0.102,0.042-0.035c0.015,0.079,0.111,0.231-0.001,0.146c-0.085-0.065-0.192-0.339-0.193-0.193l0.135,0.149
				l-0.007,0.123l-0.097-0.151l0.038,0.077c-0.116-0.151-0.123,0.005-0.247-0.167c-0.04,0.002,0,0.144-0.02,0.179l0.014,0.01
				c0.021,0.112-0.063,0.083-0.157-0.005l0.022,0.034c-0.012,0.023-0.073,0.026-0.152-0.048c0.02,0.144,0.332,0.59,0.163,0.428
				c-0.054,0.025-0.248-0.236-0.288-0.345c-0.026,0.158-0.281-0.031-0.221,0.258l-0.114-0.119c-0.096,0.141-0.387-0.015-0.312,0.352
				c0.076,0.043,0.095,0.154,0.147,0.241c-0.115-0.119,0.047,0.165-0.105-0.064c-0.081-0.14-0.125-0.205-0.122-0.283
				c-0.124-0.028-0.244,0.043-0.209,0.199c-0.018-0.079-0.06-0.109-0.102-0.142c0.138,0.22,0.1,0.287,0.009,0.236l-0.087-0.131
				l0.056,0.157c-0.043-0.033-0.19-0.273-0.156-0.117l0.075,0.153c-0.113-0.085-0.288-0.233-0.269-0.088l0.078,0.221
				c-0.034-0.01-0.142-0.107-0.139-0.185c-0.013,0.169-0.058,0.218,0.018,0.404c-0.395-0.329-0.617-0.219-0.767-0.089l0.064,0.099
				c0.012,0.122-0.129-0.162-0.119-0.074c0.073,0.09,0.092,0.231,0.198,0.329c-0.001,0.144-0.19-0.126-0.258-0.147
				c-0.087-0.128,0.085,0.067-0.026-0.097c-0.035-0.045-0.028,0.157-0.158-0.038c0.031,0.089,0.133,0.229,0.191,0.305l-0.1-0.074
				c0.092,0.264,0.364,0.352,0.486,0.672l-0.054-0.008c0.089,0.23,0.239,0.179,0.19,0.307c-0.1-0.077-0.308-0.348-0.327-0.456
				c-0.116-0.007-0.326-0.457-0.405-0.386c0.047,0.133,0.089-0.015,0.171,0.16c0.055,0.188-0.14-0.04-0.143,0.039
				c-0.004-0.101-0.161-0.281-0.209-0.302c0.011,0.121,0.143,0.171,0.091,0.233c-0.08-0.112-0.193-0.161-0.189-0.274
				c-0.182-0.248-0.024,0.111-0.181-0.069c0.092,0.196,0.324,0.386,0.308,0.523c-0.095-0.186-0.232-0.19-0.354-0.478
				c0.003,0.067,0.085,0.21,0.171,0.308c0.025,0.133-0.292-0.269-0.093,0.092l-0.124-0.173l0.072,0.232
				c-0.032,0.024-0.261-0.18-0.091,0.095c-0.028-0.024-0.1,0.037-0.184-0.171c-0.02-0.146,0.14,0.104,0.012-0.171
				c0.092,0.232-0.088,0.018-0.158-0.037l0.061,0.11c-0.044-0.031-0.07,0.015-0.149-0.095l0.089,0.165l-0.114-0.152
				c-0.119-0.039,0.155,0.297,0.059,0.288l0.125,0.095c-0.027-0.021,0.042,0.145-0.021,0.113l-0.312-0.411
				c-0.076-0.043,0.083,0.176-0.045,0.046l0.156,0.151c0.037,0.043,0.114,0.263,0.061,0.289c-0.064-0.031-0.242-0.215-0.24-0.325
				c-0.027,0.012-0.009,0.124,0.078,0.219c-0.089-0.015-0.089-0.164-0.193-0.223c0.039,0.108,0.059,0.287,0.108,0.452l0.2,0.217
				l-0.032,0.025c0.162,0.172,0.067,0.163,0.218,0.358c-0.004,0.044-0.075-0.007-0.13-0.049c-0.132-0.376-0.353-0.41-0.516-0.729
				c-0.144-0.025,0.388,0.779,0.002,0.359c-0.031-0.089-0.217-0.293-0.105-0.239c-0.037,0.068-0.224-0.283-0.218-0.117
				c0.128,0.096,0.133,0.342,0.316,0.48c-0.064-0.099-0.004-0.102,0.024-0.081c0.045,0.131,0.19,0.305,0.13,0.341
				c-0.053-0.007-0.108,0.018-0.196-0.145c-0.104-0.177,0.067-0.015-0.063-0.179c-0.109-0.015,0.038,0.256-0.179-0.034
				c0.061-0.002-0.035-0.19-0.108-0.309l-0.097-0.042l0.081,0.108c-0.037,0.136-0.154-0.195-0.217-0.113l0.099,0.254
				c0.138,0.185,0.069-0.16,0.246,0.168c-0.047,0.046-0.162-0.107-0.164,0.01l0.078,0.04c-0.013,0.021,0.224,0.459-0.003,0.258
				c-0.098-0.075-0.079-0.109-0.153-0.229c-0.109,0.014-0.208-0.093-0.275-0.079c0.152,0.229-0.086,0.085,0.119,0.287
				c-0.055-0.154,0.081-0.218,0.245-0.009c0.136,0.296,0.045-0.082,0.234,0.188c-0.066,0.051,0.103,0.321,0.199,0.508
				c-0.012,0.023-0.077-0.041-0.106-0.062c-0.108-0.163-0.081-0.177-0.185-0.351c-0.049,0.091-0.182,0.043-0.324-0.097
				c0.024,0.1,0.134,0.262,0.175,0.262c-0.122,0.005-0.208,0.089-0.266,0.192c-0.107-0.31-0.136-0.004-0.235-0.258
				c0.01-0.092-0.069-0.312-0.169-0.42c-0.018,0.035,0.075,0.12,0.097,0.185c-0.128-0.126,0.086,0.277-0.092,0.061
				c0.138,0.04,0.218,0.327,0.363,0.533c-0.133-0.083,0.096,0.154,0.035,0.188c-0.134-0.082-0.264-0.133-0.359-0.138
				c0.037,0.256-0.214,0.133-0.294,0.171c0.027,0.134,0.2,0.361,0.183,0.428c-0.054,0.025-0.122-0.286-0.129-0.13l0.036,0.046
				c-0.056-0.044-0.038,0.247-0.269-0.09l0.18,0.251c0.001,0.032-0.048-0.022-0.076-0.043l0.139,0.218
				c0.062,0.211-0.116,0.03-0.17,0.053l-0.061-0.176c-0.16-0.07-0.125,0.118-0.24,0.114l0.095,0.15l-0.105-0.061
				c0.101,0.142,0.114,0.265,0.012,0.154l0.354,0.3c-0.018-0.112-0.151-0.163-0.219-0.327c-0.059-0.143,0.042-0.147,0.144-0.007
				c-0.019,0.034-0.042,0-0.097-0.042c0.119,0.22,0.158,0.185,0.266,0.316c-0.021-0.002-0.004,0.078-0.048,0.012
				c0.093,0.086,0.133,0.083,0.187,0.058c-0.085-0.063-0.062-0.143-0.11-0.196c0.116,0.184,0.2,0.214,0.23,0.125
				c-0.087-0.246,0.2,0.069,0.236-0.035c-0.143-0.174-0.273-0.305-0.362-0.355c-0.012-0.12,0.054-0.025,0.041-0.148
				c0.108,0.129,0.254,0.335,0.366,0.387l-0.081-0.142c0.096,0.042,0.221,0.25,0.266,0.168c0.075-0.138,0.196-0.211,0.274-0.285
				l-0.08-0.141c0.229,0.27,0.231,0.012,0.377,0.106c0.033-0.204,0.329-0.015,0.24-0.292c0.267-0.013,0.505-0.013,0.681-0.19
				l-0.157-0.184c0.126,0.128-0.047-0.131,0.008-0.122c0.054,0.187,0.178,0.18,0.278,0.291c-0.004-0.216,0.22-0.115,0.387-0.02
				l-0.081-0.143c0.242,0.215,0.201-0.078,0.278-0.182c-0.023-0.065-0.084-0.208-0.045-0.21c0.194,0.191,0.213,0.159,0.379,0.25
				c0.062-0.037,0.125-0.15,0.133-0.275c0.417,0.181,0.526-0.16,0.874-0.108l-0.081-0.176c0.438,0.216,0.526-0.272,0.828-0.21
				l-0.188-0.27c0.01-0.121,0.183-0.009,0.288,0.2c0.009-0.123,0.234,0.044,0.134-0.212c0.031-0.089,0.155,0.087,0.229,0.093
				c0.06-0.184,0.121-0.187,0.272-0.203l-0.02,0.035c-0.05-0.056-0.123-0.175-0.105-0.209c0.092,0.052,0.117-0.174,0.274,0.187
				c0.01-0.269,0.389-0.016,0.355-0.352c0.044,0.098,0.086,0.097,0.136,0.15c0.112-0.061,0.116-0.318,0.297-0.216
				c-0.01-0.056-0.122-0.138-0.083-0.175l0.136,0.151c0.282,0.065,0.256-0.394,0.445-0.449c0.394,0.006,0.642-0.266,0.937-0.401
				l-0.044-0.067c0.247,0.203,0.059-0.394,0.367-0.051c-0.018-0.075,0.064-0.081-0.031-0.201c0.183,0.138,0.104-0.294,0.351-0.127
				l-0.049-0.021c0.017-0.214,0.235-0.069,0.267-0.272l-0.107-0.096c-0.034-0.154,0.275,0.223,0.105-0.118
				c0.026-0.012,0.116,0.155,0.095,0.152c0.173-0.276,0.563-0.228,0.868-0.31c0.068-0.305-0.319-0.554-0.026-0.399
				c-0.027-0.07,0.083,0.117,0.043,0.05c0.111,0.057-0.129-0.416,0.012-0.269c0.103,0.207,0.094,0.096,0.167,0.216
				c0.037-0.198-0.049-0.39,0.131-0.294l-0.07-0.101c0.283,0.234,0.309,0.001,0.605,0.292c0.615-0.286,1.285-0.431,1.874-0.73
				c0.519-0.402,1.158-0.576,1.614-1.099c-0.032-0.357-0.018-0.354,0.195-0.33l-0.064-0.095c0.144,0.223,0.116-0.04,0.26,0.169
				c0.185-0.169,0.415-0.223,0.631-0.352c-0.05-0.005-0.178-0.177-0.128-0.187l0.13,0.117l-0.031-0.067
				c0.048,0.019,0.146,0.111,0.16,0.201c0.66-0.13,0.919-0.903,1.483-1.168c0.07-0.171,0.3-0.19,0.464-0.226
				c0.224-0.545,0.443-1.009,0.984-1.047C305.659,476.906,305.251,476.351,305.001,476.32z"/>
			<path style="fill:#534741;" d="M287.062,487.297c-0.055-0.122-0.044-0.213-0.172-0.341L287.062,487.297z"/>
			<path style="fill:#534741;" d="M287.621,485.375c0.02,0.033-0.011-0.056-0.018-0.078c-0.021,0.001-0.094-0.085-0.069-0.021
				L287.621,485.375z"/>
			<path style="fill:#534741;" d="M287.901,485.113c-0.065-0.098-0.182-0.138-0.231-0.126L287.901,485.113z"/>
			<path style="fill:#534741;" d="M287.951,484.516c-0.025-0.1-0.06-0.144-0.092-0.118L287.951,484.516z"/>
			<path style="fill:#534741;" d="M288.11,484.733c0.026-0.012,0.004-0.081-0.019-0.144
				C288.142,484.676,288.001,484.569,288.11,484.733z"/>
			<path style="fill:#534741;" d="M288.586,484.049c0.021-0.003,0.105,0.062,0.051-0.059
				C288.669,484.078,288.486,483.909,288.586,484.049z"/>
			<path style="fill:#534741;" d="M288.979,484.019l0.028-0.013c-0.01-0.056-0.073-0.116-0.094-0.119L288.979,484.019z"/>
			<polygon style="fill:#534741;" points="294.734,481.108 294.672,481.078 294.737,481.176 			"/>
			<path style="fill:#534741;" d="M297.152,479.66c0.071,0.045-0.033-0.107-0.037-0.125
				C297.08,479.543,297.201,479.653,297.152,479.66z"/>
			<polygon style="fill:#534741;" points="298.757,479.383 298.745,479.386 298.874,479.591 			"/>
		</g>
		<path style="fill:#534741;" d="M337.562,528.1c0,0-20.246-15.493-39.21-14.831c0,0-13.855,17.944,9.389,25.132
			C331.745,545.823,337.562,528.1,337.562,528.1z"/>
	</g>
	<polygon style="fill:#F5F5F5;" points="728.894,678.438 713.061,664.994 690.507,700.083 693.949,703.707 	"/>
	<polygon style="fill:#F5F5F5;" points="607.5,632.552 591.52,631.115 597.145,680.366 603.246,680.514 	"/>
	<polygon style="fill:#F5F5F5;" points="487.121,659.827 473.216,673.102 509.41,703.018 514.57,699.76 	"/>
	<polygon style="fill:#F5F5F5;" points="471.103,807.217 485.202,822.406 514.446,787.194 511.075,783.503 	"/>
	<polygon style="fill:#F5F5F5;" points="592.416,850.131 608.439,850.916 603.598,804.869 597.495,804.968 	"/>
	<polygon style="fill:#F5F5F5;" points="717.932,820.213 730.163,807.954 692.753,782.71 688.222,786.8 	"/>
</g>
</svg>
