<?xml version="1.0" encoding="utf-8"?>
<!-- Generator: Adobe Illustrator 27.5.0, SVG Export Plug-In . SVG Version: 6.00 Build 0)  -->
<svg version="1.1" xmlns="http://www.w3.org/2000/svg" xmlns:xlink="http://www.w3.org/1999/xlink" x="0px" y="0px"
	 viewBox="0 0 750 500" style="enable-background:new 0 0 750 500;" xml:space="preserve">
<g id="BACKGROUND">
	<linearGradient id="SVGID_1_" gradientUnits="userSpaceOnUse" x1="375" y1="448.1615" x2="375" y2="50.1505">
		<stop  offset="0" style="stop-color:#FFA352"/>
		<stop  offset="0.2228" style="stop-color:#D1765A"/>
		<stop  offset="0.4678" style="stop-color:#A54C61"/>
		<stop  offset="0.6879" style="stop-color:#852D67"/>
		<stop  offset="0.8728" style="stop-color:#721B6A"/>
		<stop  offset="1" style="stop-color:#6B146B"/>
	</linearGradient>
	<rect style="fill:url(#SVGID_1_);" width="750" height="500"/>
</g>
<g id="OBJECTS">
	<g>
		<defs>
			<rect id="XMLID_1_" width="750" height="500"/>
		</defs>
		<clipPath id="XMLID_00000040575236314114515970000006215125367263616446_">
			<use xlink:href="#XMLID_1_"  style="overflow:visible;"/>
		</clipPath>
		<g style="clip-path:url(#XMLID_00000040575236314114515970000006215125367263616446_);">
			
				<linearGradient id="SVGID_00000171680074851501503630000015951337558648565400_" gradientUnits="userSpaceOnUse" x1="197.1613" y1="543.8729" x2="197.1613" y2="293.8875">
				<stop  offset="0" style="stop-color:#FE8C35"/>
				<stop  offset="1" style="stop-color:#7D1548"/>
			</linearGradient>
			<path style="fill:url(#SVGID_00000171680074851501503630000015951337558648565400_);" d="M207.548,414.973l1.613-2.207
				c-6.118-10.478-10.936-49.077-11.845-56.747h0.006v-8.494c0.23-0.144,0.677-0.386,1.129-0.409
				c0.645-0.032,2.516,1.194,3.839,1.097c1.323-0.097,2.29-1.129,2.29-1.129s-1,0.29-1.871,0.194
				c-0.871-0.097-2.548-1.161-3.871-1.516c-1.323-0.355-1.839,0-1.839,0v10.258h0.006c-0.909,7.67-5.727,46.268-11.845,56.747
				l1.613,2.207l2.903-0.025v17.283h-1.161v12h1.161v11.179h14.968v-11.179h1.161v-12h-1.161v-17.283L207.548,414.973z"/>
			
				<linearGradient id="SVGID_00000128481602438349667600000001385304864353629118_" gradientUnits="userSpaceOnUse" x1="87.6129" y1="536.1425" x2="87.6129" y2="286.1568">
				<stop  offset="0" style="stop-color:#FE8C35"/>
				<stop  offset="1" style="stop-color:#7D1548"/>
			</linearGradient>
			<path style="fill:url(#SVGID_00000128481602438349667600000001385304864353629118_);" d="M163.599,378.422v-3.129h0.702v-19.64
				h-0.702v-17.779h0.702v-15.613h1.405v-7.097h-2.107v-7.695l3.161,0.018l1.756-1.613c-6.68-7.681-11.936-36.033-12.903-41.52
				v-6.846c0.23-0.144,0.677-0.386,1.129-0.409c0.645-0.032,2.516,1.194,3.839,1.097c1.323-0.097,2.29-1.129,2.29-1.129
				s-1,0.29-1.871,0.194s-2.548-1.161-3.871-1.516c-1.322-0.355-1.839,0-1.839,0v8.609c-0.967,5.486-6.223,33.839-12.903,41.52
				l1.756,1.613l3.161-0.018v7.695h-2.107v7.097h1.405v15.613h0.702v17.779h-0.702v13.529l-8.15-16.082h-23.097v-45.638l4.373,0.025
				l1.756-1.613c-7.406-8.516-13.064-42.452-13.064-42.452H91.686c0,0-1.282,7.678-3.421,16.645h-4.394v-19.272h-1.807v-29.308
				h2.516v-16.423l0.387,0.003l1.613-2.207c-6.117-10.479-10.936-49.077-11.845-56.747h0.006v-8.494
				c0.23-0.144,0.677-0.386,1.129-0.409c0.645-0.032,2.516,1.194,3.839,1.097c1.323-0.097,2.29-1.129,2.29-1.129
				s-1,0.29-1.871,0.193c-0.871-0.097-2.548-1.161-3.871-1.516c-1.323-0.355-1.839,0-1.839,0v10.258h0.006
				c-0.909,7.67-5.727,46.268-11.845,56.747l1.613,2.207l0.387-0.003v16.423h2.516v29.308H65.29v19.272h-4.258v29.097h-5.161v-6
				H54.71v-17.283l2.903,0.025l1.613-2.207c-6.118-10.478-10.936-49.077-11.845-56.747h0.006v-8.494
				c0.23-0.144,0.677-0.386,1.129-0.409c0.645-0.032,2.516,1.193,3.839,1.097c1.323-0.097,2.29-1.129,2.29-1.129
				s-1,0.29-1.871,0.194c-0.871-0.097-2.548-1.161-3.871-1.516c-1.323-0.355-1.839,0-1.839,0v10.258h0.006
				c-0.909,7.67-5.727,46.268-11.845,56.747l1.613,2.207l2.903-0.025v17.283h-1.161v7.792l-8.258,6.95v41.129h-4.516v-21.161h0.645
				v-15.613h1.29v-7.097h-1.935v-7.695l2.903,0.018l1.613-1.613c-6.108-7.647-10.92-35.775-11.839-41.439v-5.862
				c0.23-0.144,0.677-0.386,1.129-0.409c0.645-0.032,2.516,1.194,3.839,1.097c1.323-0.097,2.29-1.129,2.29-1.129
				s-1,0.29-1.871,0.194c-0.871-0.097-2.548-1.161-3.871-1.516s-1.839,0-1.839,0v7.625c-0.919,5.663-5.73,33.792-11.839,41.439
				l1.613,1.613l2.903-0.018v7.695H8.903v7.097h1.29v15.613h0.645v15.226H-1.806v94.581h178.839v-55.274l-7.087-13.984H163.599z"/>
		</g>
		<g style="clip-path:url(#XMLID_00000040575236314114515970000006215125367263616446_);">
			
				<linearGradient id="SVGID_00000064333055638998878340000000292423266999574193_" gradientUnits="userSpaceOnUse" x1="-126.041" y1="543.8729" x2="-126.041" y2="293.8875" gradientTransform="matrix(-1 0 0 1 426.7977 0)">
				<stop  offset="0" style="stop-color:#FE8C35"/>
				<stop  offset="1" style="stop-color:#7D1548"/>
			</linearGradient>
			<path style="fill:url(#SVGID_00000064333055638998878340000000292423266999574193_);" d="M542.452,414.973l-1.613-2.207
				c6.117-10.478,10.936-49.077,11.845-56.747h-0.006v-8.494c-0.23-0.144-0.677-0.386-1.129-0.409
				c-0.645-0.032-2.516,1.194-3.839,1.097c-1.323-0.097-2.29-1.129-2.29-1.129s1,0.29,1.871,0.194
				c0.871-0.097,2.548-1.161,3.871-1.516c1.323-0.355,1.839,0,1.839,0v10.258h-0.006c0.909,7.67,5.727,46.268,11.845,56.747
				l-1.613,2.207l-2.903-0.025v17.283h1.161v12h-1.161v11.179h-14.968v-11.179h-1.161v-12h1.161v-17.283L542.452,414.973z"/>
			
				<linearGradient id="SVGID_00000022520022463641929290000013502132465009461936_" gradientUnits="userSpaceOnUse" x1="-235.5894" y1="536.1425" x2="-235.5894" y2="286.1568" gradientTransform="matrix(-1 0 0 1 426.7977 0)">
				<stop  offset="0" style="stop-color:#FE8C35"/>
				<stop  offset="1" style="stop-color:#7D1548"/>
			</linearGradient>
			<path style="fill:url(#SVGID_00000022520022463641929290000013502132465009461936_);" d="M586.401,378.422v-3.129h-0.702v-19.64
				h0.702v-17.779h-0.702v-15.613h-1.405v-7.097h2.107v-7.695l-3.161,0.018l-1.756-1.613c6.68-7.681,11.936-36.033,12.903-41.52
				v-6.846c-0.23-0.144-0.677-0.386-1.129-0.409c-0.645-0.032-2.516,1.194-3.839,1.097c-1.323-0.097-2.29-1.129-2.29-1.129
				s1,0.29,1.871,0.194s2.548-1.161,3.871-1.516c1.323-0.355,1.839,0,1.839,0v8.609c0.967,5.486,6.223,33.839,12.903,41.52
				l-1.756,1.613l-3.161-0.018v7.695h2.107v7.097h-1.405v15.613h-0.702v17.779h0.702v13.529l8.15-16.082h23.097v-45.638
				l-4.373,0.025l-1.756-1.613c7.406-8.516,13.064-42.452,13.064-42.452h16.733c0,0,1.282,7.678,3.421,16.645h4.394v-19.272h1.806
				v-29.308h-2.516v-16.423l-0.387,0.003l-1.613-2.207c6.117-10.479,10.936-49.077,11.845-56.747h-0.006v-8.494
				c-0.23-0.144-0.677-0.386-1.129-0.409c-0.645-0.032-2.516,1.194-3.839,1.097c-1.323-0.097-2.29-1.129-2.29-1.129
				s1,0.29,1.871,0.193c0.871-0.097,2.548-1.161,3.871-1.516c1.323-0.355,1.839,0,1.839,0v10.258h-0.006
				c0.909,7.67,5.727,46.268,11.845,56.747l-1.613,2.207l-0.387-0.003v16.423h-2.516v29.308h1.806v19.272h4.258v29.097h5.161v-6
				h1.161v-17.283l-2.903,0.025l-1.613-2.207c6.117-10.478,10.936-49.077,11.845-56.747h-0.006v-8.494
				c-0.23-0.144-0.677-0.386-1.129-0.409c-0.645-0.032-2.516,1.193-3.839,1.097c-1.323-0.097-2.29-1.129-2.29-1.129
				s1,0.29,1.871,0.194c0.871-0.097,2.548-1.161,3.871-1.516c1.323-0.355,1.839,0,1.839,0v10.258h-0.006
				c0.909,7.67,5.727,46.268,11.845,56.747l-1.613,2.207l-2.903-0.025v17.283h1.161v7.792l8.258,6.95v41.129h4.516v-21.161h-0.645
				v-15.613h-1.29v-7.097h1.935v-7.695l-2.903,0.018l-1.613-1.613c6.108-7.647,10.92-35.775,11.839-41.439v-5.862
				c-0.23-0.144-0.677-0.386-1.129-0.409c-0.645-0.032-2.516,1.194-3.839,1.097c-1.323-0.097-2.29-1.129-2.29-1.129
				s1,0.29,1.871,0.194c0.871-0.097,2.548-1.161,3.871-1.516c1.323-0.355,1.839,0,1.839,0v7.625
				c0.919,5.663,5.73,33.792,11.839,41.439l-1.613,1.613l-2.903-0.018v7.695h1.936v7.097h-1.29v15.613h-0.645v15.226h12.645v94.581
				H572.968v-55.274l7.086-13.984H586.401z"/>
		</g>
	</g>
	<g>
		<defs>
			<rect id="SVGID_00000025439928948224914260000007333387429871976889_" width="750" height="500"/>
		</defs>
		<clipPath id="SVGID_00000139974736279791992200000017495061491332450721_">
			<use xlink:href="#SVGID_00000025439928948224914260000007333387429871976889_"  style="overflow:visible;"/>
		</clipPath>
		
			<linearGradient id="SVGID_00000134240960222800132020000017017011241897519793_" gradientUnits="userSpaceOnUse" x1="377.6774" y1="381.067" x2="377.6774" y2="522.2851">
			<stop  offset="0" style="stop-color:#844A50"/>
			<stop  offset="0.7011" style="stop-color:#531624"/>
		</linearGradient>
		
			<path style="clip-path:url(#SVGID_00000139974736279791992200000017495061491332450721_);fill:url(#SVGID_00000134240960222800132020000017017011241897519793_);" d="
			M-9.032,384.448c3.097,0,13.161,0,21.677,5.453c8.516,5.453,14.71,7.27,21.677,12.723c6.968,5.453,16.258,10.906,30.193,13.632
			c13.936,2.726,27.871,5.453,37.936,6.362s14.136,1.789,27.871,6.362c13.735,4.573,37.936,7.27,37.936,7.27
			s227.613,3.635,260.129,7.27c32.516,3.635,82.065,0,99.097,1.818c17.032,1.818,30.193-1.818,41.806-2.726
			c11.613-0.909,13.161-4.544,26.323-4.544c13.161,0,22.452,0,32.516-2.726c10.064-2.726,20.903-8.179,36.387-10.905
			c15.484-2.726,20.129-2.726,32.516-7.27c12.387-4.544,20.129-7.27,30.193-14.541s16.258-13.632,23.226-15.449
			c6.968-1.818,15.484-0.909,15.484-0.909v119.96H-10.581L-9.032,384.448z"/>
		<g style="clip-path:url(#SVGID_00000139974736279791992200000017495061491332450721_);">
			
				<linearGradient id="SVGID_00000151511407404404671180000017253486498622695614_" gradientUnits="userSpaceOnUse" x1="234.1622" y1="491.775" x2="234.1622" y2="401.5313">
				<stop  offset="0" style="stop-color:#844A50"/>
				<stop  offset="1" style="stop-color:#531624"/>
			</linearGradient>
			<path style="fill:url(#SVGID_00000151511407404404671180000017253486498622695614_);" d="M238.267,339.54l1.761-2.905
				l5.326-0.988l0.115,1.206c0.075,0.78,0.746,1.365,1.529,1.332l0.366-0.016c0.808-0.034,1.437-0.714,1.409-1.522l-0.135-3.916
				l-10.95,2.179c-0.781-3.137-2.859-11.95-3.43-19.069l1.635-0.241l-0.664-4.504l-9.083,1.34l0.664,4.504l1.635-0.241
				c1.508,6.981,2.063,16.018,2.22,19.247l-11.113,1.074l1.001,3.789c0.207,0.782,1.005,1.251,1.789,1.051l0.355-0.091
				c0.759-0.194,1.233-0.948,1.08-1.717l-0.238-1.188l5.384-0.591l2.525,2.273l10.787,71.046l3.086-0.455l3.128-0.461
				L238.267,339.54z"/>
			
				<linearGradient id="SVGID_00000038411474963687839260000000962260162167585982_" gradientUnits="userSpaceOnUse" x1="475.0494" y1="759.0645" x2="497.4598" y2="636.7818" gradientTransform="matrix(0.9209 0.3899 -0.3899 0.9209 296.8637 -407.6467)">
				<stop  offset="0" style="stop-color:#844A50"/>
				<stop  offset="1" style="stop-color:#531624"/>
			</linearGradient>
			<path style="fill:url(#SVGID_00000038411474963687839260000000962260162167585982_);" d="M533.589,356.55
				c-3.414,0.626-7.078-1.091-8.848-2.586c-0.696-0.588-1.824-1.307-2.935-1.964c2.012-5.544,8.747-23.428,10.738-27.131
				l3.406-1.292l-0.607-2.09l-4.075-1.725l-4.075-1.725l-1.923,1.019l1.442,3.345c-1.274,4.007-9.427,21.29-12.008,26.594
				c-1.245-0.341-2.546-0.651-3.453-0.741c-2.305-0.23-6.089-1.667-8.015-4.554c0,0-3.103,0.675-2.915,6.886
				c0,0,9.408-3.594,11.613,3.101l-35.905,84.804l8.432,3.57l35.905-84.804c6.342-3.076,10.31,6.181,10.31,6.181
				C535.264,359.248,533.589,356.55,533.589,356.55z"/>
			
				<linearGradient id="SVGID_00000114051379126067071650000007906864378820002196_" gradientUnits="userSpaceOnUse" x1="572.0237" y1="408.5197" x2="534.0883" y2="450.3262">
				<stop  offset="0" style="stop-color:#844A50"/>
				<stop  offset="1" style="stop-color:#531624"/>
			</linearGradient>
			<polygon style="fill:url(#SVGID_00000114051379126067071650000007906864378820002196_);" points="577.407,414.694 
				580.098,414.919 580.324,412.228 578.759,412.097 573.935,407.129 580.573,400.634 579.24,399.328 572.63,405.784 
				568.519,401.55 568.669,400.168 565.984,399.878 565.693,402.563 567.273,402.734 571.4,406.985 549.19,428.676 550.182,430.371 
				572.707,408.331 577.524,413.293 			"/>
			
				<linearGradient id="SVGID_00000137835990500008905700000011056472976609455506_" gradientUnits="userSpaceOnUse" x1="183.0436" y1="298.5075" x2="186.1401" y2="599.6648" gradientTransform="matrix(0.9995 -0.032 0.032 0.9995 -13.1905 6.4998)">
				<stop  offset="0" style="stop-color:#844A50"/>
				<stop  offset="1" style="stop-color:#531624"/>
			</linearGradient>
			<path style="fill:url(#SVGID_00000137835990500008905700000011056472976609455506_);" d="M183.33,389.934l-0.983-10.15
				l-2.734,0.751l1.05,9.735c-7.945,1.396-13.758,5.841-13.758,5.841l1.966,2.4c4.414-2.954,8.505-4.442,12.137-5.048l4.73,43.86
				l2.126-0.584l-4.221-43.575c8.48-0.491,13.846,3.693,13.846,3.693l2.4-1.966C194.281,390.603,188.478,389.539,183.33,389.934z"/>
			
				<linearGradient id="SVGID_00000096034952460231523760000010141252326687572408_" gradientUnits="userSpaceOnUse" x1="344" y1="578.6905" x2="344" y2="349.9459">
				<stop  offset="0" style="stop-color:#844A50"/>
				<stop  offset="0.5192" style="stop-color:#6C313B"/>
				<stop  offset="1" style="stop-color:#531624"/>
			</linearGradient>
			<path style="fill:url(#SVGID_00000096034952460231523760000010141252326687572408_);" d="M19.613,503.903
				c0,0,33.29-9.29,45.677-13.161c12.387-3.871,23.226-7.742,32.516-16.258c9.29-8.516,46.452-39.484,52.645-42.581
				c6.194-3.097,18.581-10.839,26.323-11.613s19.355-6.194,25.548-5.419c6.193,0.774,20.903-7.742,20.903-7.742
				s3.097-17.032,13.936-24.774c10.839-7.742,35.613-21.677,35.613-21.677s34.064-14.71,46.452-15.484
				c12.387-0.774,23.226-2.323,29.419-2.323c6.193,0,19.355,3.871,19.355,3.871s19.355,3.097,31.742-3.097
				c12.387-6.194,24-7.742,33.29-10.065c9.29-2.323,27.097-0.774,27.097-0.774s6.968,6.194,9.29,12.387
				c2.322,6.194,16.258,16.258,23.226,25.548c6.968,9.29,10.839,20.129,18.581,26.323c7.742,6.194,28.645,13.935,28.645,13.935
				s14.71,6.194,19.355,14.71c4.645,8.516,4.645,20.903,12.387,30.194c7.742,9.29,21.677,15.484,21.677,15.484
				s17.807,5.419,26.323,11.613c8.516,6.194,26.323,9.29,33.29,13.935c6.968,4.645,15.484,11.613,15.484,11.613L19.613,503.903z"/>
		</g>
		<g style="clip-path:url(#SVGID_00000139974736279791992200000017495061491332450721_);">
			
				<linearGradient id="SVGID_00000116234445852540570100000006613011326582091423_" gradientUnits="userSpaceOnUse" x1="57.5484" y1="414.9374" x2="57.5484" y2="573.2724">
				<stop  offset="0" style="stop-color:#4A0C08"/>
				<stop  offset="0.9944" style="stop-color:#000000"/>
			</linearGradient>
			<path style="fill:url(#SVGID_00000116234445852540570100000006613011326582091423_);" d="M128,500.407
				c0,0-10.839-13.997-19.355-21.461c-8.516-7.465-15.484-13.997-28.645-17.729c-13.161-3.732-17.806-8.398-32.516-13.997
				c-14.71-5.599-20.129-10.264-27.871-18.662c-7.742-8.398-20.903-12.13-20.903-12.13s-20.903-10.264-24-8.398l6.968,97.977
				l158.71,7.465L128,500.407z"/>
			
				<linearGradient id="SVGID_00000001644844076067922520000013485944987901550492_" gradientUnits="userSpaceOnUse" x1="652.5161" y1="413.4739" x2="652.5161" y2="636.2722">
				<stop  offset="0" style="stop-color:#4A0C08"/>
				<stop  offset="0.9944" style="stop-color:#000000"/>
			</linearGradient>
			<path style="fill:url(#SVGID_00000001644844076067922520000013485944987901550492_);" d="M770.581,431.357l-26.323,1.866
				c0,0-12.387,4.666-28.645,13.064c-16.258,8.398-17.032,3.733-40.258,9.331c-23.226,5.599-14.71,0.933-30.194,0.933
				c-15.484,0-25.548,8.398-38.71,14.93c-13.161,6.532-30.968,22.395-30.968,22.395s-29.419,13.997-42.581,13.997l59.613,9.331
				l85.935,3.732l93.677-13.997L770.581,431.357z"/>
		</g>
	</g>
	
		<linearGradient id="SVGID_00000046317526321850811330000015271941949033392830_" gradientUnits="userSpaceOnUse" x1="274.7513" y1="87.6031" x2="241.5807" y2="172.1091">
		<stop  offset="0" style="stop-color:#EEBEA3"/>
		<stop  offset="1" style="stop-color:#ED766C"/>
	</linearGradient>
	<path style="fill:url(#SVGID_00000046317526321850811330000015271941949033392830_);" d="M267.236,147.889
		c-15.848,0-28.695-12.847-28.695-28.695c0-10.927,6.109-20.426,15.097-25.273c-15.396,2.78-27.075,16.249-27.075,32.447
		c0,18.211,14.763,32.973,32.973,32.973c15.398,0,28.33-10.555,31.958-24.825C286.408,142.55,277.448,147.889,267.236,147.889z"/>
	<g>
		<g>
			
				<linearGradient id="SVGID_00000153683682688883247230000000245598678998239637_" gradientUnits="userSpaceOnUse" x1="384.0375" y1="128.4085" x2="341.8866" y2="145.5629">
				<stop  offset="0" style="stop-color:#844A50"/>
				<stop  offset="1" style="stop-color:#531624"/>
			</linearGradient>
			<path style="fill:url(#SVGID_00000153683682688883247230000000245598678998239637_);" d="M354.791,147.66
				c0,0-3.909-5.375-4.398-6.868c-0.489-1.493,2.052-6.868,2.052-6.868s-1.368-4.579-0.489-8.362
				c0.879-3.783,4.398-8.561,12.802-8.362c8.404,0.199,12.411,3.384,15.147,7.167s2.15,12.841,1.466,15.429
				c-0.684,2.588-1.661,4.38-1.661,4.38l-4.3,8.362l-8.404-1.593L354.791,147.66z"/>
			
				<linearGradient id="SVGID_00000163780765671519538740000014213877565273930671_" gradientUnits="userSpaceOnUse" x1="360.1333" y1="136.1387" x2="323.2769" y2="163.2128">
				<stop  offset="0" style="stop-color:#4A0C08"/>
				<stop  offset="0.9944" style="stop-color:#000000"/>
			</linearGradient>
			<path style="fill:url(#SVGID_00000163780765671519538740000014213877565273930671_);" d="M369.351,117.675
				c-1.37-0.266-2.886-0.435-4.592-0.476c-8.404-0.199-11.923,4.579-12.802,8.362c-0.879,3.783,0.489,8.362,0.489,8.362
				s-2.541,5.375-2.052,6.868c0.489,1.493,4.398,6.868,4.398,6.868l8.406,2.26l0.389,0.029l0.359,0.172l2.848,0.766l-0.569-3.228
				l-6.841-9.954l0.586-1.891c0,0-2.345-5.176-0.977-11.049C359.941,120.697,365.763,118.588,369.351,117.675z"/>
			<g>
				
					<linearGradient id="SVGID_00000165938258589529276170000009000395543734487985_" gradientUnits="userSpaceOnUse" x1="375.4073" y1="142.5094" x2="335.7457" y2="148.8592" gradientTransform="matrix(0.6904 0.7234 0.7234 -0.6904 13.7555 -32.4292)">
					<stop  offset="0" style="stop-color:#B36262"/>
					<stop  offset="1" style="stop-color:#7A304F"/>
				</linearGradient>
				<path style="fill:url(#SVGID_00000165938258589529276170000009000395543734487985_);" d="M355.58,134.638
					c0,0,16.805,6.525,26.38,14.073c0,0,1.769-3.162,2.147-9.127c0.409-6.469-0.636-11.594-0.636-11.594s-8.471,2.61-26.171,3.115
					L355.58,134.638z"/>
				<g>
					<g>
						
							<linearGradient id="SVGID_00000118373643020429631150000002953608712582021785_" gradientUnits="userSpaceOnUse" x1="379.7453" y1="146.8507" x2="366.7718" y2="162.3191" gradientTransform="matrix(0.6928 0.7768 0.7264 -0.6289 11.9808 -61.8423)">
							<stop  offset="0" style="stop-color:#4A0C08"/>
							<stop  offset="0.9944" style="stop-color:#000000"/>
						</linearGradient>
						<path style="fill:url(#SVGID_00000118373643020429631150000002953608712582021785_);" d="M382.539,132.266
							c-0.091-0.102-0.22-0.172-0.365-0.183c-0.283-0.023-0.516,0.186-0.521,0.466l-0.323,11.759
							c-0.004,0.28,0.22,0.526,0.503,0.548c0.283,0.023,0.517-0.185,0.522-0.465l0.322-11.76
							C382.679,132.493,382.627,132.364,382.539,132.266z"/>
					</g>
					<g>
						
							<linearGradient id="SVGID_00000026863696193953210760000009695142753604732315_" gradientUnits="userSpaceOnUse" x1="376.5528" y1="144.2296" x2="362.8633" y2="160.5518" gradientTransform="matrix(0.6844 0.784 0.7344 -0.6199 14.5959 -65.3065)">
							<stop  offset="0" style="stop-color:#4A0C08"/>
							<stop  offset="0.9944" style="stop-color:#000000"/>
						</linearGradient>
						<path style="fill:url(#SVGID_00000026863696193953210760000009695142753604732315_);" d="M379.292,131.601
							c-0.088-0.101-0.212-0.171-0.353-0.186c-0.283-0.032-0.522,0.17-0.536,0.449l-0.513,10.369
							c-0.014,0.279,0.204,0.53,0.487,0.562c0.282,0.031,0.522-0.17,0.536-0.449l0.513-10.369
							C379.432,131.836,379.381,131.703,379.292,131.601z"/>
					</g>
					<g>
						
							<linearGradient id="SVGID_00000094592333045216463910000001706400919387179403_" gradientUnits="userSpaceOnUse" x1="374.3055" y1="141.7226" x2="360.6133" y2="158.0479" gradientTransform="matrix(0.6844 0.784 0.7344 -0.6199 14.5959 -65.3065)">
							<stop  offset="0" style="stop-color:#4A0C08"/>
							<stop  offset="0.9944" style="stop-color:#000000"/>
						</linearGradient>
						<path style="fill:url(#SVGID_00000094592333045216463910000001706400919387179403_);" d="M376.022,131.75
							c-0.085-0.098-0.205-0.167-0.342-0.185c-0.282-0.037-0.527,0.158-0.547,0.436l-0.633,8.874
							c-0.019,0.279,0.192,0.534,0.475,0.572c0.282,0.037,0.527-0.158,0.547-0.436l0.633-8.874
							C376.165,131.993,376.113,131.855,376.022,131.75z"/>
					</g>
					<g>
						
							<linearGradient id="SVGID_00000172401846213363450490000000835802976883741117_" gradientUnits="userSpaceOnUse" x1="371.3166" y1="139.1813" x2="357.6223" y2="155.5091" gradientTransform="matrix(0.6844 0.784 0.7344 -0.6199 14.5959 -65.3065)">
							<stop  offset="0" style="stop-color:#4A0C08"/>
							<stop  offset="0.9944" style="stop-color:#000000"/>
						</linearGradient>
						<path style="fill:url(#SVGID_00000172401846213363450490000000835802976883741117_);" d="M372.087,132.074
							c-0.083-0.096-0.2-0.164-0.332-0.184c-0.282-0.042-0.53,0.148-0.556,0.425l-0.652,7.204c-0.025,0.278,0.184,0.537,0.464,0.58
							c0.282,0.042,0.531-0.148,0.556-0.425l0.652-7.204C372.233,132.323,372.18,132.181,372.087,132.074z"/>
					</g>
					<g>
						
							<linearGradient id="SVGID_00000088840601602937657110000015769967823839723157_" gradientUnits="userSpaceOnUse" x1="368.9049" y1="136.816" x2="355.2089" y2="153.1458" gradientTransform="matrix(0.6844 0.784 0.7344 -0.6199 14.5959 -65.3065)">
							<stop  offset="0" style="stop-color:#4A0C08"/>
							<stop  offset="0.9944" style="stop-color:#000000"/>
						</linearGradient>
						<path style="fill:url(#SVGID_00000088840601602937657110000015769967823839723157_);" d="M368.679,132.344
							c-0.082-0.094-0.195-0.161-0.325-0.183c-0.281-0.046-0.533,0.141-0.562,0.418l-0.577,5.544
							c-0.027,0.277,0.176,0.539,0.457,0.585c0.281,0.046,0.533-0.141,0.562-0.418l0.577-5.544
							C368.826,132.597,368.774,132.452,368.679,132.344z"/>
					</g>
					<g>
						
							<linearGradient id="SVGID_00000124842699303854923730000016440691057582670209_" gradientUnits="userSpaceOnUse" x1="366.3789" y1="134.4326" x2="352.681" y2="150.7647" gradientTransform="matrix(0.6844 0.784 0.7344 -0.6199 14.5959 -65.3065)">
							<stop  offset="0" style="stop-color:#4A0C08"/>
							<stop  offset="0.9944" style="stop-color:#000000"/>
						</linearGradient>
						<path style="fill:url(#SVGID_00000124842699303854923730000016440691057582670209_);" d="M365.165,132.566
							c-0.08-0.091-0.189-0.158-0.315-0.181c-0.281-0.052-0.536,0.13-0.57,0.406l-0.442,3.566c-0.034,0.277,0.167,0.542,0.446,0.593
							c0.281,0.052,0.536-0.13,0.57-0.406l0.442-3.566C365.315,132.826,365.262,132.677,365.165,132.566z"/>
					</g>
				</g>
				
					<linearGradient id="SVGID_00000031199142474436990180000015345328182783043232_" gradientUnits="userSpaceOnUse" x1="359.3145" y1="132.7565" x2="348.2195" y2="138.8616">
					<stop  offset="0" style="stop-color:#B36262"/>
					<stop  offset="1" style="stop-color:#7A304F"/>
				</linearGradient>
				<path style="opacity:0.45;fill:url(#SVGID_00000031199142474436990180000015345328182783043232_);" d="M360.605,130.982
					c-1.065,0.049-2.164,0.091-3.305,0.123l-1.72,3.533c0,0,1.167,0.454,3.049,1.254
					C359.518,134.763,360.399,133.162,360.605,130.982z"/>
				
					<linearGradient id="SVGID_00000031188777578489192340000003553527028313186981_" gradientUnits="userSpaceOnUse" x1="355.9503" y1="133.0411" x2="343.5831" y2="139.8463" gradientTransform="matrix(0.6904 0.7234 0.7234 -0.6904 13.7555 -32.4292)">
					<stop  offset="0" style="stop-color:#B36262"/>
					<stop  offset="1" style="stop-color:#7A304F"/>
				</linearGradient>
				<path style="fill:url(#SVGID_00000031188777578489192340000003553527028313186981_);" d="M357.794,134.507
					c1.392-1.329,1.463-3.513,0.159-4.88c-1.304-1.367-3.49-1.397-4.882-0.069c-1.392,1.328-1.463,3.513-0.159,4.88
					C354.216,135.805,356.402,135.835,357.794,134.507z"/>
			</g>
			
				<linearGradient id="SVGID_00000004539982638145343900000001738240464761576632_" gradientUnits="userSpaceOnUse" x1="376.3529" y1="149.7428" x2="352.2325" y2="165.1107">
				<stop  offset="0" style="stop-color:#844A50"/>
				<stop  offset="1" style="stop-color:#531624"/>
			</linearGradient>
			<path style="fill:url(#SVGID_00000004539982638145343900000001738240464761576632_);" d="M354.205,147.062
				c0,0,14.757,1.792,19.154,3.285c4.398,1.493,5.766,2.09,5.766,2.09l-0.489,12.642l-14.366-6.271l-7.329-6.072L354.205,147.062z"
				/>
			
				<linearGradient id="SVGID_00000086682229237838086050000005529596331914919859_" gradientUnits="userSpaceOnUse" x1="367.1305" y1="155.5378" x2="342.5309" y2="174.0119">
				<stop  offset="0" style="stop-color:#4A0C08"/>
				<stop  offset="0.9944" style="stop-color:#000000"/>
			</linearGradient>
			<path style="fill:url(#SVGID_00000086682229237838086050000005529596331914919859_);" d="M378.636,165.08l0.231-5.99
				c-1.287-0.714-3.598-2.034-5.02-3.069c-2.052-1.493-5.766-4.778-7.036-6.371c-0.211-0.264-0.466-0.565-0.743-0.881
				c-5.587-0.944-11.864-1.707-11.864-1.707l2.736,5.674l7.329,6.072L378.636,165.08z"/>
		</g>
		<g>
			<g>
				
					<linearGradient id="SVGID_00000114036269567413344560000008358979739689019839_" gradientUnits="userSpaceOnUse" x1="375.8165" y1="148.6105" x2="349.0844" y2="155.635">
					<stop  offset="0" style="stop-color:#EEBEA3"/>
					<stop  offset="1" style="stop-color:#ED766C"/>
				</linearGradient>
				<path style="fill:url(#SVGID_00000114036269567413344560000008358979739689019839_);" d="M352.446,155.026
					c0,0-6.157,0.697-7.427-0.896c-1.271-1.593-3.127-4.181-1.759-6.47c1.368-2.29,1.759-4.38,5.961-3.683
					c4.202,0.697,14.952,5.574,18.372,8.063c3.42,2.489,8.013,8.262,7.818,8.959c-0.195,0.697-10.75-2.688-10.75-2.688
					L352.446,155.026z"/>
				
					<linearGradient id="SVGID_00000011750692669373109000000016207660508790384004_" gradientUnits="userSpaceOnUse" x1="373.688" y1="142.5422" x2="355.6442" y2="156.432">
					<stop  offset="0" style="stop-color:#EEBEA3"/>
					<stop  offset="1" style="stop-color:#ED766C"/>
				</linearGradient>
				<path style="opacity:0.45;fill:url(#SVGID_00000011750692669373109000000016207660508790384004_);" d="M375.411,160.999
					c0.026-0.093-0.039-0.282-0.169-0.537c-0.997-0.836-2.287-1.915-3.837-3.312c-3.388-3.053-11.727-6.238-14.594-7.034
					c-2.867-0.796-6.906-1.062-8.6-2.389c-0.943-0.739-0.431-2.466,0.208-3.851c-3.454-0.307-3.884,1.651-5.159,3.785
					c-1.368,2.29,0.489,4.878,1.759,6.47c1.27,1.593,7.427,0.896,7.427,0.896l12.216,3.285
					C364.661,158.311,375.216,161.695,375.411,160.999z"/>
			</g>
			<g>
				<g>
					
						<linearGradient id="SVGID_00000109002521707920639110000014429980988256421013_" gradientUnits="userSpaceOnUse" x1="328.3811" y1="349.0734" x2="333.5549" y2="249.5772">
						<stop  offset="0" style="stop-color:#EEBEA3"/>
						<stop  offset="1" style="stop-color:#ED766C"/>
					</linearGradient>
					<path style="fill:url(#SVGID_00000109002521707920639110000014429980988256421013_);" d="M299.869,298.368
						c0,0,11.466-14.069,26.842-12.211c15.375,1.858,32.315,6.636,32.315,6.636s7.036-59.726,7.297-75.387
						c0.261-15.661-5.473-41.144-5.473-41.144l-15.376,1.593l-23.193,54.948l-17.2,38.49L299.869,298.368z"/>
					
						<linearGradient id="SVGID_00000149356791141835624680000015230665321558711724_" gradientUnits="userSpaceOnUse" x1="307.0346" y1="292.7204" x2="366.3978" y2="201.7776">
						<stop  offset="0" style="stop-color:#EEBEA3"/>
						<stop  offset="1" style="stop-color:#ED766C"/>
					</linearGradient>
					<path style="opacity:0.45;fill:url(#SVGID_00000149356791141835624680000015230665321558711724_);" d="M345.475,177.854
						l-23.193,54.948l-17.2,38.49l-0.095,0.492c12.26-6.779,32.495-15.224,50.184-9.703c2.385,0.745,4.745,1.421,7.07,2.042
						c1.892-17.633,3.944-38.396,4.082-46.717c0.261-15.661-5.473-41.145-5.473-41.145L345.475,177.854z"/>
				</g>
				<g>
					
						<linearGradient id="SVGID_00000164493788480749190600000000869507006679727804_" gradientUnits="userSpaceOnUse" x1="253.2708" y1="301.9714" x2="362.3004" y2="135.4538">
						<stop  offset="0" style="stop-color:#EEBEA3"/>
						<stop  offset="1" style="stop-color:#ED766C"/>
					</linearGradient>
					<path style="fill:url(#SVGID_00000164493788480749190600000000869507006679727804_);" d="M356.941,152.438
						c0,0-5.668-1.991-11.727,0c-6.059,1.991-9.968,8.561-13.682,19.51c-3.714,10.95-10.359,21.501-16.222,27.076
						c-5.864,5.574-41.045,18.913-57.463,26.678c-16.418,7.764-37.331,34.044-37.331,34.044s30.1-6.968,35.768,0.398
						c5.668,7.366,7.427,26.877,13.291,38.822c5.863,11.945,31.077,22.895,31.077,22.895s2.345-24.09,10.554-39.618
						c8.209-15.529,18.568-24.687,22.477-38.623c3.909-13.936,23.259-67.888,23.259-67.888V152.438z"/>
					
						<linearGradient id="SVGID_00000057139643601010391810000010320252536770122413_" gradientUnits="userSpaceOnUse" x1="283.6818" y1="232.0258" x2="400.071" y2="74.0694">
						<stop  offset="0" style="stop-color:#EEBEA3"/>
						<stop  offset="1" style="stop-color:#ED766C"/>
					</linearGradient>
					<path style="opacity:0.45;fill:url(#SVGID_00000057139643601010391810000010320252536770122413_);" d="M345.214,152.438
						c-6.059,1.991-9.968,8.561-13.682,19.51c-3.714,10.95-10.359,21.501-16.222,27.076c-5.864,5.575-41.045,18.913-57.463,26.678
						c-11.083,5.241-24.205,18.912-31.569,27.248c7.21-7.843,20.665-20.469,37.368-26.783c25.278-9.556,39.872-13.538,42.217-11.945
						c2.345,1.593-5.212,11.68-10.685,17.785s-15.897,20.705-18.503,26.279c-2.194,4.693-9.003,20.105-11.725,27.557
						c1.048,3.814,2.199,7.542,3.591,10.847c2.585-8.747,6.792-21.694,11.001-29.113c6.776-11.945,18.503-28.137,25.539-33.977
						c7.036-5.84,20.587-19.112,24.496-23.89c3.909-4.778,6.254-9.822,10.685-9.822c2.297,0,5.078,1.284,7.23,2.521
						c5.036-14.373,9.449-26.676,9.449-26.676v-23.293C356.941,152.438,351.273,150.447,345.214,152.438z"/>
				</g>
			</g>
		</g>
		<g>
			
				<linearGradient id="SVGID_00000139264372169307566410000014788295745125755818_" gradientUnits="userSpaceOnUse" x1="474.0068" y1="199.5775" x2="384.2828" y2="263.3182" gradientTransform="matrix(0.9824 -0.187 0.187 0.9824 -40.4142 80.274)">
				<stop  offset="0" style="stop-color:#844A50"/>
				<stop  offset="1" style="stop-color:#531624"/>
			</linearGradient>
			<polygon style="fill:url(#SVGID_00000139264372169307566410000014788295745125755818_);" points="442.821,296.861 
				385.22,308.032 365.139,200.597 422.74,189.426 			"/>
			
				<linearGradient id="SVGID_00000036971475555040476080000010309289676375637386_" gradientUnits="userSpaceOnUse" x1="474.0068" y1="199.5775" x2="384.2828" y2="263.3182" gradientTransform="matrix(0.9824 -0.187 0.187 0.9824 -40.4142 80.274)">
				<stop  offset="0" style="stop-color:#844A50"/>
				<stop  offset="1" style="stop-color:#531624"/>
			</linearGradient>
			<polygon style="fill:url(#SVGID_00000036971475555040476080000010309289676375637386_);" points="442.821,296.861 
				385.22,308.032 365.139,200.597 422.74,189.426 			"/>
		</g>
		<g>
			
				<linearGradient id="SVGID_00000038404948915685598430000015876784797938786726_" gradientUnits="userSpaceOnUse" x1="349.2042" y1="609.5811" x2="349.2042" y2="337.4196">
				<stop  offset="0" style="stop-color:#844A50"/>
				<stop  offset="1" style="stop-color:#531624"/>
			</linearGradient>
			<path style="fill:url(#SVGID_00000038404948915685598430000015876784797938786726_);" d="M339.155,269.899
				c0,0-3.518,8.362-4.495,12.741c-0.977,4.38,1.564,10.153,1.564,10.153l-1.173,7.167h-5.277c0,0,4.105,16.922,3.127,30.659
				c-0.977,13.737-2.736,19.51-2.736,19.51s-3.518,0.398-4.105,3.584c-0.586,3.185,0,4.778,0,4.778s8.404,5.773,12.118,6.968
				c3.714,1.194,21.891,2.787,30.881,1.593c0,0-10.359-10.153-12.704-11.547c-2.345-1.394-3.127-1.394-3.127-1.394
				s-0.586-3.185-3.713-5.773c0,0,3.518-16.922,6.254-24.886c2.736-7.964,9.773-17.321,9.773-17.321l-4.691-3.783l1.564-4.977
				c0,0,6.645,0.199,8.6-5.574s1.564-19.311,1.564-19.311l-25.995-3.783L339.155,269.899z"/>
			
				<linearGradient id="SVGID_00000013884002767111706420000016835166418315575985_" gradientUnits="userSpaceOnUse" x1="386.7616" y1="235.9769" x2="328.2138" y2="281.8581">
				<stop  offset="0" style="stop-color:#4A0C08"/>
				<stop  offset="0.9944" style="stop-color:#000000"/>
			</linearGradient>
			<polygon style="fill:url(#SVGID_00000013884002767111706420000016835166418315575985_);" points="336.223,271.889 
				374.336,278.26 378.31,224.042 362.153,222.715 343.39,259.612 			"/>
		</g>
		<g>
			<g>
				
					<linearGradient id="SVGID_00000045609195383740081140000005299452287706038687_" gradientUnits="userSpaceOnUse" x1="440.0517" y1="251.5583" x2="349.7686" y2="238.2411">
					<stop  offset="0" style="stop-color:#4A0C08"/>
					<stop  offset="0.9944" style="stop-color:#000000"/>
				</linearGradient>
				<path style="fill:url(#SVGID_00000045609195383740081140000005299452287706038687_);" d="M381.438,215.814
					c0,0,38.048,27.872,52.902,44.064l-19.024,15.131l-31.793-11.945L381.438,215.814z"/>
				
					<linearGradient id="SVGID_00000116234970104301118860000015103950657039041963_" gradientUnits="userSpaceOnUse" x1="429.8092" y1="609.5803" x2="429.8092" y2="337.4195">
					<stop  offset="0" style="stop-color:#844A50"/>
					<stop  offset="1" style="stop-color:#531624"/>
				</linearGradient>
				<path style="fill:url(#SVGID_00000116234970104301118860000015103950657039041963_);" d="M410.755,272.885
					c0,0,22.542-14.865,23.194-14.998c0.652-0.133,5.733,9.158,6.776,11.945s1.173,13.272,1.173,13.272s-2.345,5.442-8.469,9.025
					l-1.824,9.556l2.867,1.991c0,0-4.821,11.016-5.733,14.201c-0.912,3.185,0.13,13.671,0.13,13.671s4.561,1.195,6.254,4.247
					c0,0,11.727,1.46,15.115,4.513c3.388,3.053,3.909,5.043,3.909,5.043s-20.327,4.513-28.927,6.504
					c-8.6,1.991-19.024,0.266-19.024,0.266s-1.433-4.645-0.261-8.096c1.173-3.451,3.648-4.38,3.648-4.38s1.955-11.149,1.433-19.51
					c-0.521-8.362-5.082-18.714-5.082-18.714l5.864-3.716l-0.261-8.76l-1.303-0.133
					C410.234,288.812,407.498,281.645,410.755,272.885z"/>
			</g>
			
				<linearGradient id="SVGID_00000079464531330196506400000011069747233942555017_" gradientUnits="userSpaceOnUse" x1="395.7404" y1="239.5786" x2="304.8666" y2="297.4773">
				<stop  offset="0" style="stop-color:#B36262"/>
				<stop  offset="1" style="stop-color:#7A304F"/>
			</linearGradient>
			<path style="fill:url(#SVGID_00000079464531330196506400000011069747233942555017_);" d="M383.522,217.273
				c0,0,34.986,28.137,43.586,35.305c0,0-3.714-5.575-10.359-11.945c-6.645-6.371-29.513-23.492-33.813-25.881L383.522,217.273z"/>
		</g>
		<g>
			
				<linearGradient id="SVGID_00000154415039793587846190000000007697036813629095_" gradientUnits="userSpaceOnUse" x1="293.4012" y1="309.584" x2="377.965" y2="245.5792">
				<stop  offset="0" style="stop-color:#844A50"/>
				<stop  offset="1" style="stop-color:#531624"/>
			</linearGradient>
			<path style="fill:url(#SVGID_00000154415039793587846190000000007697036813629095_);" d="M369.58,230.015
				c0,0-15.506,54.55-19.154,74.989l-22.933,16.458l-7.557-22.563c0,0,14.333-43.268,28.145-69.282L369.58,230.015z"/>
			
				<linearGradient id="SVGID_00000121975901759604391370000008382454923302140073_" gradientUnits="userSpaceOnUse" x1="395.3223" y1="238.8818" x2="301.6855" y2="298.5408">
				<stop  offset="0" style="stop-color:#B36262"/>
				<stop  offset="1" style="stop-color:#7A304F"/>
			</linearGradient>
			<path style="fill:url(#SVGID_00000121975901759604391370000008382454923302140073_);" d="M367.602,229.978
				c-2.256,7.11-17.294,55.023-18.74,73.433l-19.806,14.069l-7.297-19.112c0,0,15.949-48.734,27.869-68.723l-1.548-0.029
				c-13.812,26.014-28.145,69.282-28.145,69.282l7.558,22.563l22.933-16.458c3.648-20.44,19.154-74.989,19.154-74.989
				L367.602,229.978z"/>
		</g>
		<g>
			
				<linearGradient id="SVGID_00000150786080036201199580000010154134936303634328_" gradientUnits="userSpaceOnUse" x1="331.5232" y1="309.0533" x2="407.6762" y2="251.4145">
				<stop  offset="0" style="stop-color:#844A50"/>
				<stop  offset="1" style="stop-color:#531624"/>
			</linearGradient>
			<path style="fill:url(#SVGID_00000150786080036201199580000010154134936303634328_);" d="M383.522,217.273
				c0,0,4.17,1.991,7.297,8.893c3.127,6.902,13.812,60.788,12.509,80.962l-32.575,23.89l-14.594-23.359
				c0,0,14.594-44.064,13.421-77.644L383.522,217.273z"/>
			
				<linearGradient id="SVGID_00000019640549622930142460000006960995967454553503_" gradientUnits="userSpaceOnUse" x1="405.917" y1="255.8096" x2="311.9185" y2="315.6991">
				<stop  offset="0" style="stop-color:#B36262"/>
				<stop  offset="1" style="stop-color:#7A304F"/>
			</linearGradient>
			<path style="fill:url(#SVGID_00000019640549622930142460000006960995967454553503_);" d="M390.819,226.166
				c-3.127-6.902-7.297-8.893-7.297-8.893l-1.14,1.042c7.475,4.737,9.74,17.406,9.74,17.406c6.515,27.341,8.861,69.813,8.861,69.813
				l-29.448,20.97l-12.509-19.909c0,0,3.127-6.105,8.079-33.181c3.885-21.243,3.919-38.233,3.754-44.569l-1.279,1.168
				c1.173,33.579-13.421,77.644-13.421,77.644l14.594,23.359l32.575-23.89C404.631,286.954,393.947,233.068,390.819,226.166z"/>
		</g>
		<g>
			
				<linearGradient id="SVGID_00000054250316311790463490000003136728448488784261_" gradientUnits="userSpaceOnUse" x1="374.5141" y1="210.8028" x2="347.132" y2="232.2609">
				<stop  offset="0" style="stop-color:#4A0C08"/>
				<stop  offset="0.9944" style="stop-color:#000000"/>
			</linearGradient>
			<path style="fill:url(#SVGID_00000054250316311790463490000003136728448488784261_);" d="M369.58,230.015
				c0,0-9.903,2.522-13.03,2.389s-5.082-4.513-5.082-4.513l2.997-16.723l14.724-7.698l2.345,9.556L369.58,230.015z"/>
			
				<linearGradient id="SVGID_00000022562204932380156290000004210681387869096346_" gradientUnits="userSpaceOnUse" x1="358.7394" y1="226.3235" x2="385.8481" y2="205.8054">
				<stop  offset="0" style="stop-color:#844A50"/>
				<stop  offset="1" style="stop-color:#531624"/>
			</linearGradient>
			<path style="fill:url(#SVGID_00000022562204932380156290000004210681387869096346_);" d="M383.913,201.811l-0.391,15.462
				c0,0-6.254,9.954-13.942,12.742l-1.824-23.359l9.772-5.574L383.913,201.811z"/>
			
				<linearGradient id="SVGID_00000140734848926875207790000011970012415040245432_" gradientUnits="userSpaceOnUse" x1="393.9341" y1="159.0303" x2="350.3586" y2="189.9867">
				<stop  offset="0" style="stop-color:#844A50"/>
				<stop  offset="1" style="stop-color:#531624"/>
			</linearGradient>
			<path style="fill:url(#SVGID_00000140734848926875207790000011970012415040245432_);" d="M348.341,212.562l0.391-57.138
				c0,0,15.832-0.796,24.432,3.384c8.6,4.181,13.877,15.33,15.245,19.311c1.368,3.982,0.782,14.932-0.586,18.714
				s-3.909,4.977-3.909,4.977s-10.164,0-13.877,4.579c-3.714,4.579-7.036,9.755-12.9,10.153
				C351.273,216.942,348.341,212.562,348.341,212.562z"/>
			
				<linearGradient id="SVGID_00000092428093857125064740000017941900692750582173_" gradientUnits="userSpaceOnUse" x1="360.2015" y1="203.5348" x2="345.869" y2="258.4256">
				<stop  offset="0" style="stop-color:#4A0C08"/>
				<stop  offset="0.9944" style="stop-color:#000000"/>
			</linearGradient>
			<path style="fill:url(#SVGID_00000092428093857125064740000017941900692750582173_);" d="M384.846,201.187
				c-1.374-0.169-3.463-0.371-5.624-0.371c-3.714,0-8.209,2.389-9.186,0.796c-0.977-1.593,3.323-8.76,5.082-21.7
				c1.271-9.351-1.641-17.763-3.355-21.713c-8.806-3.488-23.031-2.775-23.031-2.775l-0.391,57.138c0,0,2.932,4.38,8.795,3.982
				c5.863-0.398,9.186-5.574,12.9-10.153c3.714-4.579,13.877-4.579,13.877-4.579S384.298,201.628,384.846,201.187z"/>
		</g>
		<g>
			
				<linearGradient id="SVGID_00000072239179349528035020000006768635217225452703_" gradientUnits="userSpaceOnUse" x1="387.8138" y1="247.5205" x2="372.0159" y2="254.3468">
				<stop  offset="0" style="stop-color:#4A0C08"/>
				<stop  offset="0.9944" style="stop-color:#000000"/>
			</linearGradient>
			<path style="fill:url(#SVGID_00000072239179349528035020000006768635217225452703_);" d="M373.815,246.606
				c0,0,3.779,0.464,5.342,1.924c1.564,1.46,3.453,4.114,4.039,5.309c0.586,1.195,0.456,2.522-0.195,2.721
				c-0.651,0.199-2.606,0.398-4.365-0.796c-1.759-1.195-3.909-2.92-4.17-4.181C374.206,250.322,373.815,246.606,373.815,246.606z"/>
			
				<linearGradient id="SVGID_00000104664520159892955210000007656572266313259670_" gradientUnits="userSpaceOnUse" x1="375.2404" y1="255.0553" x2="352.1528" y2="271.7151">
				<stop  offset="0" style="stop-color:#844A50"/>
				<stop  offset="1" style="stop-color:#531624"/>
			</linearGradient>
			<path style="fill:url(#SVGID_00000104664520159892955210000007656572266313259670_);" d="M352.511,267.709l27.754-18.714
				l2.867,4.114l-27.233,19.112C355.899,272.221,353.293,271.292,352.511,267.709z"/>
			
				<linearGradient id="SVGID_00000000187894788540293980000012202606175586476976_" gradientUnits="userSpaceOnUse" x1="382.8589" y1="252.415" x2="372.8881" y2="262.0852">
				<stop  offset="0" style="stop-color:#844A50"/>
				<stop  offset="1" style="stop-color:#531624"/>
			</linearGradient>
			<path style="fill:url(#SVGID_00000000187894788540293980000012202606175586476976_);" d="M378.538,237.149l-1.27,0.398
				l-0.65,1.252l-1.207,1.037c0,0,0.06,0.332,0.199,0.904l-0.151,0.29l0.468,0.901c0.794,2.748,2.64,7.76,6.42,12.36l1.109,2.134
				l8.47,6.304l1.27-0.398l3.127-2.688C381.47,253.673,378.538,237.149,378.538,237.149z"/>
			
				<linearGradient id="SVGID_00000102537199552865668680000004986260884490351762_" gradientUnits="userSpaceOnUse" x1="399.6742" y1="234.7405" x2="368.373" y2="266.7105">
				<stop  offset="0" style="stop-color:#844A50"/>
				<stop  offset="1" style="stop-color:#531624"/>
			</linearGradient>
			<path style="fill:url(#SVGID_00000102537199552865668680000004986260884490351762_);" d="M395.054,260.044
				c-14.854-5.973-17.786-22.497-17.786-22.497l-3.127,2.688c0,0,2.932,16.524,17.786,22.497L395.054,260.044z"/>
			
				<linearGradient id="SVGID_00000067943607076508169530000005803515546625406908_" gradientUnits="userSpaceOnUse" x1="461.234" y1="188.549" x2="312.0265" y2="309.8045">
				<stop  offset="0" style="stop-color:#EEBEA3"/>
				<stop  offset="1" style="stop-color:#ED766C"/>
			</linearGradient>
			<path style="fill:url(#SVGID_00000067943607076508169530000005803515546625406908_);" d="M395.771,256.294l97.595-77.378
				l5.473-15.529l-15.506,1.46l-101.895,72.069c0,0,2.215,3.053,2.606,5.176c0.391,2.124-2.997,4.181-2.997,4.181
				s3.388,6.702,7.232,9.092C388.279,255.365,391.862,252.047,395.771,256.294z"/>
			
				<linearGradient id="SVGID_00000088839845413240310560000002335314494088040631_" gradientUnits="userSpaceOnUse" x1="506.508" y1="156.7822" x2="350.4969" y2="264.5876">
				<stop  offset="0" style="stop-color:#EEBEA3"/>
				<stop  offset="1" style="stop-color:#ED766C"/>
			</linearGradient>
			<path style="fill:url(#SVGID_00000088839845413240310560000002335314494088040631_);" d="M498.839,163.387l-15.506,1.46
				l-101.895,72.069c0,0,2.215,3.053,2.606,5.176c0.391,2.124-2.997,4.181-2.997,4.181s0.847,1.676,2.174,3.65L498.839,163.387z"/>
			
				<linearGradient id="SVGID_00000110463287759610622820000009779660759910425488_" gradientUnits="userSpaceOnUse" x1="384.1504" y1="266.3437" x2="371.8988" y2="257.0404">
				<stop  offset="0" style="stop-color:#4A0C08"/>
				<stop  offset="0.9944" style="stop-color:#000000"/>
			</linearGradient>
			<path style="fill:url(#SVGID_00000110463287759610622820000009779660759910425488_);" d="M376.877,253.374
				c0,0,2.15,1.526,3.323,2.124c1.173,0.597,3.257,0.929,3.257,0.929s0.456,1.128,0.586,1.659c0.13,0.531-0.521,1.46-0.521,1.46
				s0.521,0.465,0.065,1.394c-0.456,0.929-1.824,1.526-1.824,1.526s0.261,1.062-0.521,1.792s-2.28,1.128-2.28,1.128
				s-0.261,0.73-1.368,0.863c-1.108,0.133-5.212-0.265-6.776-0.863c-1.564-0.597-5.016-3.982-5.016-3.982l2.867-4.778
				L376.877,253.374z"/>
			
				<linearGradient id="SVGID_00000033339519335185669680000011930190449063801273_" gradientUnits="userSpaceOnUse" x1="376.0892" y1="188.1579" x2="338.2554" y2="214.9639">
				<stop  offset="0" style="stop-color:#844A50"/>
				<stop  offset="1" style="stop-color:#531624"/>
			</linearGradient>
			<path style="fill:url(#SVGID_00000033339519335185669680000011930190449063801273_);" d="M347.168,189.269
				c0,0-2.736,25.748-2.215,32.385l15.897-3.318c0,0,2.997-11.414,5.342-26.412L347.168,189.269z"/>
			
				<linearGradient id="SVGID_00000125578860856713351720000001006428633392851890_" gradientUnits="userSpaceOnUse" x1="361.8925" y1="205.7722" x2="326.2708" y2="205.7722">
				<stop  offset="0" style="stop-color:#B36262"/>
				<stop  offset="1" style="stop-color:#7A304F"/>
			</linearGradient>
			<path style="fill:url(#SVGID_00000125578860856713351720000001006428633392851890_);" d="M345.637,205.734
				c3.483,0.262,11.818,0.864,17.841,1.102c0.069-0.335,0.139-0.675,0.21-1.021c-6.012-0.232-14.452-0.841-17.968-1.106
				C345.693,205.05,345.665,205.391,345.637,205.734z"/>
			
				<linearGradient id="SVGID_00000121265744439527514500000002364141466176116870_" gradientUnits="userSpaceOnUse" x1="363.096" y1="192.4329" x2="311.8898" y2="191.7814">
				<stop  offset="0" style="stop-color:#4A0C08"/>
				<stop  offset="0.9944" style="stop-color:#000000"/>
			</linearGradient>
			<path style="fill:url(#SVGID_00000121265744439527514500000002364141466176116870_);" d="M346.587,195.057
				c4.526,0.237,12.788,0.479,19.166-0.412c0.148-0.893,0.295-1.8,0.439-2.721l-19.024-2.654
				C347.168,189.269,346.92,191.612,346.587,195.057z"/>
			
				<linearGradient id="SVGID_00000167357714360076571660000017149473476524564630_" gradientUnits="userSpaceOnUse" x1="383.6758" y1="156.2873" x2="339.7021" y2="187.4435">
				<stop  offset="0" style="stop-color:#844A50"/>
				<stop  offset="1" style="stop-color:#531624"/>
			</linearGradient>
			<path style="fill:url(#SVGID_00000167357714360076571660000017149473476524564630_);" d="M344.823,191.459
				c0,0-2.541-27.474,1.954-33.446c4.495-5.973,9.577-7.565,17.395-4.579c7.818,2.986,8.795,9.556,8.795,16.922
				s-4.495,22.298-4.495,22.298S349.123,193.649,344.823,191.459z"/>
			
				<linearGradient id="SVGID_00000080172456032186575630000004391588206959746487_" gradientUnits="userSpaceOnUse" x1="371.7627" y1="236.6406" x2="347.1942" y2="243.6743">
				<stop  offset="0" style="stop-color:#844A50"/>
				<stop  offset="1" style="stop-color:#531624"/>
			</linearGradient>
			<path style="fill:url(#SVGID_00000080172456032186575630000004391588206959746487_);" d="M360.85,224.009l12.216,23.99
				l-8.893,6.57c0,0-15.929-19.212-18.47-24.687L360.85,224.009z"/>
			
				<linearGradient id="SVGID_00000148633893951899130610000008496852519893621433_" gradientUnits="userSpaceOnUse" x1="363.9113" y1="252.2322" x2="338.9515" y2="272.2787">
				<stop  offset="0" style="stop-color:#4A0C08"/>
				<stop  offset="0.9944" style="stop-color:#000000"/>
			</linearGradient>
			<path style="fill:url(#SVGID_00000148633893951899130610000008496852519893621433_);" d="M364.173,254.569l8.893-6.57
				l-1.256-2.466c-2.803,1.624-7.122,3.9-10.435,5.616C363.056,253.222,364.173,254.569,364.173,254.569z"/>
			
				<linearGradient id="SVGID_00000062151385898397341540000001168633863713621160_" gradientUnits="userSpaceOnUse" x1="358.7787" y1="225.9135" x2="329.0083" y2="240.7008">
				<stop  offset="0" style="stop-color:#4A0C08"/>
				<stop  offset="0.9944" style="stop-color:#000000"/>
			</linearGradient>
			<path style="fill:url(#SVGID_00000062151385898397341540000001168633863713621160_);" d="M360.85,224.009l-15.147,5.873
				c0.434,0.936,1.266,2.279,2.336,3.852c4.335-1.919,11.249-6.205,13.788-7.809L360.85,224.009z"/>
			
				<linearGradient id="SVGID_00000138556775808325377090000000529848420636402591_" gradientUnits="userSpaceOnUse" x1="363.6546" y1="216.1324" x2="339.3458" y2="223.0918">
				<stop  offset="0" style="stop-color:#844A50"/>
				<stop  offset="1" style="stop-color:#531624"/>
			</linearGradient>
			<path style="fill:url(#SVGID_00000138556775808325377090000000529848420636402591_);" d="M344.139,212.164
				c0,0,17.297,3.086,17.591,3.982c0.293,0.896,0.293,8.163,0.293,8.163s-16.125,6.57-16.809,6.669
				c-0.684,0.1-0.879-0.398-1.466-1.294c-0.586-0.896-2.248-8.362-0.293-16.425C343.455,213.259,343.65,212.164,344.139,212.164z"/>
			
				<linearGradient id="SVGID_00000104670757189207522190000000409750337906051733_" gradientUnits="userSpaceOnUse" x1="388.6813" y1="255.9182" x2="360.2725" y2="254.7453">
				<stop  offset="0" style="stop-color:#B36262"/>
				<stop  offset="1" style="stop-color:#7A304F"/>
			</linearGradient>
			<path style="fill:url(#SVGID_00000104670757189207522190000000409750337906051733_);" d="M362.707,253.076
				c0,0,10.457-6.968,11.043-6.868c0.586,0.1,5.082,9.457,5.082,9.457s-2.443,8.561-4.007,8.76s-9.577-2.986-9.577-2.986
				L362.707,253.076z"/>
			
				<linearGradient id="SVGID_00000110429646130515769070000010160224543853044877_" gradientUnits="userSpaceOnUse" x1="349.1711" y1="241.0836" x2="363.4615" y2="230.2675">
				<stop  offset="0" style="stop-color:#B36262"/>
				<stop  offset="1" style="stop-color:#7A304F"/>
			</linearGradient>
			<path style="fill:url(#SVGID_00000110429646130515769070000010160224543853044877_);" d="M351.667,238.777
				c3.108-1.619,9.212-4.908,12.842-7.581l-0.47-0.922c-3.58,2.66-9.929,6.072-12.995,7.669
				C351.25,238.219,351.458,238.497,351.667,238.777z"/>
		</g>
	</g>
	<g>
		
			<linearGradient id="SVGID_00000003079316302814323070000014107612044882522521_" gradientUnits="userSpaceOnUse" x1="712.467" y1="175.0183" x2="160.9094" y2="726.5759" gradientTransform="matrix(-1 0 0 1 755.0349 0)">
			<stop  offset="0" style="stop-color:#FEE74D"/>
			<stop  offset="1" style="stop-color:#CC4616"/>
		</linearGradient>
		<path style="fill:url(#SVGID_00000003079316302814323070000014107612044882522521_);" d="M280.61,412.967
			c0.337,0.128,0.597,0.366,0.879,0.587c0.257,0.202,0.515,0.403,0.772,0.604c0.531,0.416,1.064,0.828,1.598,1.241
			c1.049,0.812,2.081,1.643,3.111,2.48c0.41,0.333-0.131,1.038-0.568,0.736c-1.093-0.755-2.18-1.514-3.255-2.294
			c-0.53-0.384-1.059-0.769-1.59-1.151c-0.266-0.191-0.531-0.381-0.797-0.572c-0.309-0.222-0.621-0.414-0.852-0.719
			C279.589,413.457,280.123,412.782,280.61,412.967z"/>
		
			<linearGradient id="SVGID_00000060726219737103073400000014101032222135359363_" gradientUnits="userSpaceOnUse" x1="711.0638" y1="173.6126" x2="159.5031" y2="725.1733" gradientTransform="matrix(-1 0 0 1 755.0349 0)">
			<stop  offset="0" style="stop-color:#FEE74D"/>
			<stop  offset="1" style="stop-color:#CC4616"/>
		</linearGradient>
		<path style="fill:url(#SVGID_00000060726219737103073400000014101032222135359363_);" d="M237.12,369.067
			c0.439-0.064,0.834-0.001,1.259,0.021c0.163-0.048,0.33-0.081,0.515-0.108c0.67-0.099,1.273-0.113,1.841,0.317
			c0.033,0.013,0.066,0.025,0.099,0.038l0.424,0.162c0.282,0.108,0.565,0.216,0.847,0.324c1.274,0.487,2.444,1.167,3.663,1.769
			c0.679,0.335,0.899,1.25,0.623,1.902c-0.279,0.661-1.074,1.128-1.797,0.882c-1.29-0.438-2.594-0.79-3.841-1.348
			c-0.276-0.124-0.552-0.247-0.827-0.37c-0.138-0.062-0.276-0.124-0.414-0.185c-0.022-0.01-0.044-0.02-0.066-0.03
			c-0.232-0.031-0.456-0.091-0.663-0.211c-0.042-0.027-0.084-0.054-0.127-0.081c-0.314-0.2-0.485-0.435-0.702-0.722
			c-0.125-0.165-0.233-0.326-0.326-0.497c-0.312-0.282-0.645-0.527-0.908-0.88C236.482,369.728,236.718,369.125,237.12,369.067z"/>
		
			<linearGradient id="SVGID_00000103961182016358568730000017551030043980755592_" gradientUnits="userSpaceOnUse" x1="718.2986" y1="180.8477" x2="166.7379" y2="732.4085" gradientTransform="matrix(-1 0 0 1 755.0349 0)">
			<stop  offset="0" style="stop-color:#FEE74D"/>
			<stop  offset="1" style="stop-color:#CC4616"/>
		</linearGradient>
		<path style="fill:url(#SVGID_00000103961182016358568730000017551030043980755592_);" d="M154.419,298.949
			c0.045-0.193,0.222-0.37,0.415-0.414c0.276-0.064,0.596-0.03,0.841,0.112c0.205,0.118,0.396,0.312,0.582,0.46
			c0.072,0.057,0.151,0.111,0.215,0.178c0.048,0.062,0.096,0.124,0.144,0.187c0.011,0.023,0.016,0.035,0.025,0.054
			c0.13,0.141,0.26,0.281,0.39,0.421c0.153,0.165,0.351,0.337,0.448,0.54c0.016,0.033,0.049,0.095,0.073,0.154
			c0.056,0.062,0.111,0.125,0.167,0.187c0.26,0.292,0.52,0.585,0.781,0.877c0.224,0.252,0.267,0.667,0,0.911
			c-0.27,0.247-0.642,0.24-0.911,0c-0.284-0.254-0.569-0.507-0.853-0.76c-0.069-0.062-0.138-0.123-0.208-0.185
			c-0.005-0.005-0.014-0.011-0.021-0.017c-0.016-0.008-0.033-0.016-0.039-0.018c-0.253-0.107-0.438-0.305-0.637-0.489l-0.407-0.378
			c-0.015-0.014-0.029-0.028-0.045-0.042c-0.039-0.021-0.083-0.035-0.116-0.068c-0.102-0.078-0.172-0.163-0.251-0.263
			c-0.138-0.174-0.278-0.346-0.413-0.522C154.398,299.619,154.347,299.263,154.419,298.949z"/>
		
			<linearGradient id="SVGID_00000132051456020534144400000013127378457700788371_" gradientUnits="userSpaceOnUse" x1="736.8049" y1="199.348" x2="185.2328" y2="750.9201" gradientTransform="matrix(-1 0 0 1 755.0349 0)">
			<stop  offset="0" style="stop-color:#FEE74D"/>
			<stop  offset="1" style="stop-color:#CC4616"/>
		</linearGradient>
		<path style="fill:url(#SVGID_00000132051456020534144400000013127378457700788371_);" d="M160.583,341.705
			c0.225-0.224,0.595-0.343,0.905-0.239c0.076,0.025,0.145,0.053,0.219,0.084c0.12,0.051,0.252,0.123,0.336,0.228
			c0.013,0.016,0.026,0.032,0.039,0.048c0.059,0.072,0.121,0.141,0.182,0.211c0.121,0.14,0.243,0.281,0.364,0.421
			c0.243,0.281,0.485,0.562,0.728,0.842c0.146,0.169,0.244,0.359,0.244,0.588c0,0.204-0.091,0.448-0.244,0.588
			c-0.159,0.146-0.367,0.254-0.588,0.244c-0.074-0.01-0.147-0.02-0.221-0.03c-0.141-0.04-0.263-0.111-0.367-0.214
			c-0.281-0.243-0.562-0.485-0.842-0.728c-0.136-0.118-0.273-0.236-0.41-0.354c-0.07-0.061-0.139-0.122-0.211-0.182
			c-0.092-0.077-0.176-0.162-0.238-0.268c-0.06-0.102-0.096-0.224-0.134-0.337C160.24,342.299,160.359,341.929,160.583,341.705z"/>
		
			<linearGradient id="SVGID_00000103947631390244895830000006654376005000010927_" gradientUnits="userSpaceOnUse" x1="686.7035" y1="149.252" x2="135.1419" y2="700.8136" gradientTransform="matrix(-1 0 0 1 755.0349 0)">
			<stop  offset="0" style="stop-color:#FEE74D"/>
			<stop  offset="1" style="stop-color:#CC4616"/>
		</linearGradient>
		<path style="fill:url(#SVGID_00000103947631390244895830000006654376005000010927_);" d="M188.424,269.197
			c0.099-0.169,0.251-0.292,0.429-0.367c0.335-0.141,0.717-0.066,0.981,0.186c0.138,0.132,0.233,0.301,0.334,0.462
			c0.071,0.112,0.149,0.223,0.213,0.34c0.087,0.157,0.143,0.351,0.208,0.52c0.076,0.199,0.113,0.365,0.135,0.585
			c-0.01-0.079-0.021-0.157-0.032-0.236c0.124,0.322,0.247,0.645,0.371,0.967c0.084,0.22,0.006,0.481-0.131,0.67
			c0.03,0.074,0.059,0.148,0.089,0.223c0.062,0.155-0.055,0.344-0.197,0.401c-0.158,0.063-0.334,0.009-0.424-0.139
			c-0.033-0.054-0.065-0.107-0.098-0.161c-0.271,0.028-0.538-0.174-0.674-0.388c-0.115-0.183-0.23-0.366-0.346-0.548
			c-0.049-0.077-0.1-0.154-0.147-0.233c-0.006-0.004-0.003-0.001-0.012-0.009c-0.082-0.075-0.149-0.195-0.211-0.292l-0.165-0.261
			c-0.09-0.142-0.149-0.297-0.209-0.453c-0.04-0.104-0.08-0.209-0.12-0.313c-0.066-0.17-0.093-0.31-0.116-0.499
			C188.284,269.511,188.355,269.315,188.424,269.197z"/>
		
			<linearGradient id="SVGID_00000087376481101591416360000010292276128004369077_" gradientUnits="userSpaceOnUse" x1="385.7704" y1="-151.676" x2="-165.7867" y2="399.8811" gradientTransform="matrix(-1 0 0 1 755.0349 0)">
			<stop  offset="0" style="stop-color:#FEE74D"/>
			<stop  offset="1" style="stop-color:#CC4616"/>
		</linearGradient>
		<path style="fill:url(#SVGID_00000087376481101591416360000010292276128004369077_);" d="M731.731,211.789
			c0.249-0.387,0.741-0.635,1.202-0.489c0.485,0.154,0.912,0.516,1.333,0.796c0.396,0.264,0.765,0.564,1.141,0.854
			c0.739,0.57,1.503,1.111,2.255,1.663c0.37,0.271,0.591,0.775,0.315,1.202c-0.255,0.396-0.781,0.569-1.203,0.315
			c-0.795-0.479-1.583-0.974-2.39-1.434c-0.397-0.226-0.802-0.441-1.182-0.694c-0.19-0.127-0.381-0.254-0.571-0.381
			c-0.245-0.163-0.545-0.319-0.736-0.544C731.6,212.728,731.462,212.206,731.731,211.789z"/>
		
			<linearGradient id="SVGID_00000133519793419731058500000004003207843126970556_" gradientUnits="userSpaceOnUse" x1="367.1459" y1="-170.3076" x2="-184.4173" y2="381.2556" gradientTransform="matrix(-1 0 0 1 755.0349 0)">
			<stop  offset="0" style="stop-color:#FEE74D"/>
			<stop  offset="1" style="stop-color:#CC4616"/>
		</linearGradient>
		<path style="fill:url(#SVGID_00000133519793419731058500000004003207843126970556_);" d="M682.465,123.513
			c0.127-0.107,0.219-0.182,0.384-0.224c0.411-0.103,0.746,0.08,0.983,0.4c0.114,0.154,0.228,0.307,0.342,0.461
			c0.227,0.147,0.406,0.363,0.452,0.622c0.009,0.049,0.018,0.097,0.028,0.146c0.145,0.317,0.296,0.634,0.414,0.959
			c0.122,0.333,0.235,0.67,0.352,1.004c0.145,0.413-0.131,0.878-0.509,1.037c-0.417,0.176-0.851,0.008-1.098-0.36
			c-0.195-0.291-0.395-0.579-0.585-0.873c-0.172-0.265-0.316-0.551-0.469-0.829c-0.21-0.226-0.313-0.492-0.31-0.788
			c-0.07-0.236-0.14-0.472-0.21-0.709C682.16,124.084,682.236,123.704,682.465,123.513z"/>
		
			<linearGradient id="SVGID_00000063626855842833219840000017713951408904899489_" gradientUnits="userSpaceOnUse" x1="395.3846" y1="-142.0673" x2="-156.1767" y2="409.494" gradientTransform="matrix(-1 0 0 1 755.0349 0)">
			<stop  offset="0" style="stop-color:#FEE74D"/>
			<stop  offset="1" style="stop-color:#CC4616"/>
		</linearGradient>
		<path style="fill:url(#SVGID_00000063626855842833219840000017713951408904899489_);" d="M646.02,143.582
			c0.392,0.132,0.707,0.371,1.033,0.615c0.318,0.089,0.548,0.342,0.794,0.584c0.234,0.231,0.471,0.459,0.703,0.693
			c0.462,0.467,0.89,0.973,1.33,1.462l1.324,1.467c0.441,0.489,0.837,1.025,1.26,1.531c0.476,0.569-0.243,1.288-0.812,0.812
			c-0.506-0.423-1.043-0.819-1.531-1.26l-1.467-1.324c-0.488-0.44-0.994-0.868-1.461-1.33c-0.234-0.231-0.462-0.469-0.693-0.703
			c-0.242-0.246-0.495-0.476-0.584-0.794c-0.244-0.326-0.484-0.641-0.615-1.033C645.16,143.889,645.607,143.443,646.02,143.582z"/>
		
			<linearGradient id="SVGID_00000118385936645263205250000000751099791686877583_" gradientUnits="userSpaceOnUse" x1="398.1409" y1="-65.3651" x2="-153.4207" y2="486.1964" gradientTransform="matrix(-1 0 0 1 755.0349 0)">
			<stop  offset="0" style="stop-color:#FEE74D"/>
			<stop  offset="1" style="stop-color:#CC4616"/>
		</linearGradient>
		<path style="fill:url(#SVGID_00000118385936645263205250000000751099791686877583_);" d="M479.085,56.18
			c0.428,0.091,0.761,0.421,1.103,0.679c0.344,0.259,0.687,0.519,1.031,0.778c0.696,0.526,1.363,1.106,1.989,1.714
			c1.198,1.164,2.433,2.284,3.676,3.399c0.497,0.446-0.166,1.335-0.724,0.939c-1.358-0.965-2.718-1.922-4.112-2.833
			c-0.707-0.462-1.405-0.966-2.053-1.506c-0.331-0.276-0.658-0.557-0.986-0.836c-0.337-0.286-0.781-0.562-0.97-0.971
			C477.696,56.803,478.256,56.004,479.085,56.18z"/>
		
			<linearGradient id="SVGID_00000086680016041886946710000005456116979370779583_" gradientUnits="userSpaceOnUse" x1="441.4277" y1="-24.2169" x2="-110.1347" y2="527.3454" gradientTransform="matrix(-1 0 0 1 755.0349 0)">
			<stop  offset="0" style="stop-color:#FEE74D"/>
			<stop  offset="1" style="stop-color:#CC4616"/>
		</linearGradient>
		<path style="fill:url(#SVGID_00000086680016041886946710000005456116979370779583_);" d="M435.158,100.821
			c0.419-0.113,0.812-0.062,1.239-0.03c0.376,0.028,0.758,0.039,1.131,0.097c0.817,0.126,1.629,0.321,2.439,0.483
			c1.596,0.32,3.181,0.671,4.771,1.01c0.584,0.125,0.466,1.132-0.143,1.059c-1.609-0.194-3.218-0.376-4.827-0.591
			c-0.796-0.106-1.592-0.206-2.387-0.319c-0.401-0.057-0.789-0.175-1.181-0.278c-0.408-0.107-0.818-0.185-1.173-0.424
			C434.645,101.571,434.679,100.95,435.158,100.821z"/>
		
			<linearGradient id="SVGID_00000170991939879454043370000001645083167952183210_" gradientUnits="userSpaceOnUse" x1="534.9557" y1="-2.4987" x2="-16.6067" y2="549.0638" gradientTransform="matrix(-1 0 0 1 755.0349 0)">
			<stop  offset="0" style="stop-color:#FEE74D"/>
			<stop  offset="1" style="stop-color:#CC4616"/>
		</linearGradient>
		<path style="fill:url(#SVGID_00000170991939879454043370000001645083167952183210_);" d="M635.196,412.754
			c0.287,0.014,0.565,0.08,0.843,0.15c0.366-0.063,0.754,0.069,1.031,0.319c0.035,0.029,0.068,0.059,0.098,0.093
			c0.057,0.054,0.038,0.048-0.057-0.019c0.046,0.006,0.184,0.135,0.222,0.163l0.406,0.299c0.283,0.209,0.567,0.418,0.85,0.626
			c0.18,0.133,0.367,0.261,0.536,0.407c0.056,0.049,0.112,0.1,0.166,0.151c-0.13-0.122,0.058,0.052,0.09,0.076
			c0.291,0.225,0.583,0.45,0.874,0.675c0.192,0.149,0.342,0.287,0.409,0.532c0.059,0.213,0.032,0.497-0.09,0.686
			c-0.259,0.401-0.791,0.576-1.219,0.319c-0.613-0.368-1.245-0.708-1.848-1.089c-0.296-0.187-0.592-0.374-0.888-0.561
			c-0.155-0.098-0.309-0.195-0.463-0.293c-0.026-0.016-0.052-0.033-0.077-0.049c-0.096-0.051-0.104-0.062-0.025-0.034
			c0.08,0.025,0.07,0.019-0.028-0.018c-0.122-0.044-0.24-0.096-0.354-0.156c-0.297-0.149-0.451-0.429-0.514-0.732
			c-0.164-0.225-0.333-0.449-0.447-0.703C634.548,413.24,634.73,412.732,635.196,412.754z"/>
		
			<linearGradient id="SVGID_00000034062751714071260820000013328375857545664643_" gradientUnits="userSpaceOnUse" x1="527.824" y1="-9.6193" x2="-23.7311" y2="541.9358" gradientTransform="matrix(-1 0 0 1 755.0349 0)">
			<stop  offset="0" style="stop-color:#FEE74D"/>
			<stop  offset="1" style="stop-color:#CC4616"/>
		</linearGradient>
		<path style="fill:url(#SVGID_00000034062751714071260820000013328375857545664643_);" d="M617.869,380.643
			c0.068-0.022,0.136-0.039,0.207-0.052c0.053-0.01,0.107-0.016,0.161-0.022c0.194-0.08,0.404-0.063,0.629-0.021
			c0.179,0.034,0.352,0.1,0.506,0.198c0.319,0.203,0.568,0.457,0.791,0.76c0.43,0.584,0.547,1.284,0.429,1.989
			c-0.046,0.272-0.33,0.475-0.599,0.516c-0.073,0.121-0.142,0.246-0.241,0.347c-0.12,0.122-0.328,0.12-0.448,0
			c-0.133-0.133-0.105-0.312,0-0.448c0.02-0.026,0.041-0.066,0.062-0.103c-0.128-0.135-0.207-0.33-0.201-0.506
			c0.002-0.06,0.002-0.12-0.002-0.18c0-0.007-0.001-0.014-0.002-0.022c-0.023-0.107-0.045-0.212-0.082-0.315
			c-0.019-0.053-0.041-0.105-0.06-0.159c-0.007-0.018-0.013-0.037-0.02-0.055c-0.046-0.095-0.092-0.189-0.149-0.278
			c-0.015-0.024-0.032-0.047-0.047-0.07c-0.01-0.015-0.01-0.016-0.013-0.022c-0.018-0.018-0.038-0.036-0.047-0.046
			c-0.042-0.045-0.085-0.087-0.13-0.128c-0.014-0.012-0.028-0.024-0.042-0.036c-0.059-0.039-0.116-0.082-0.171-0.127
			c-0.002-0.001,0.002,0.002-0.002-0.001c-0.023-0.015-0.044-0.031-0.067-0.046c-0.045-0.029-0.092-0.053-0.138-0.08
			c-0.037-0.022-0.058-0.053-0.088-0.079c-0.078-0.024-0.154-0.054-0.236-0.065c-0.203-0.029-0.37-0.28-0.361-0.475
			C617.518,380.894,617.655,380.711,617.869,380.643z"/>
		
			<linearGradient id="SVGID_00000065050162379575710250000018304886467134455684_" gradientUnits="userSpaceOnUse" x1="566.2722" y1="28.8218" x2="14.7117" y2="580.3823" gradientTransform="matrix(-1 0 0 1 755.0349 0)">
			<stop  offset="0" style="stop-color:#FEE74D"/>
			<stop  offset="1" style="stop-color:#CC4616"/>
		</linearGradient>
		<path style="fill:url(#SVGID_00000065050162379575710250000018304886467134455684_);" d="M586.876,426.848
			c0.57-0.154,0.953,0.372,1.317,0.715c0.002,0.002,0.008,0.008,0.011,0.011c0.109,0.055,0.522,0.359,0.503,0.34
			c0.127,0.128,0.229,0.292,0.345,0.43c0.267,0.317,0.552,0.62,0.828,0.93c0.515,0.578,1.093,1.167,1.683,1.619
			c0.735,0.563,1.523,1.026,2.331,1.479c0.374,0.21,0.764,0.409,1.141,0.604c0.197,0.102,0.428,0.118,0.628,0.21
			c0.089,0.041,0.156,0.105,0.238,0.157c0.131,0.084,0.241,0.123,0.415,0.143c0.263,0.031,0.276,0.44,0,0.422
			c-0.076-0.005-0.196-0.029-0.276-0.02c-0.145,0.016-0.141,0.045-0.263,0.082c-0.205,0.062-0.341,0.072-0.559,0.057
			c-0.409-0.029-0.8-0.002-1.209-0.055c-0.883-0.113-1.673-0.311-2.487-0.674c-1.531-0.684-3.054-1.589-4.104-2.93
			c-0.326-0.416-0.745-0.864-0.83-1.399c0.006,0.039-0.057-0.276-0.048-0.267c-0.021-0.07-0.047-0.141-0.068-0.21
			c-0.067-0.216-0.124-0.428-0.158-0.652C586.25,427.409,586.425,426.97,586.876,426.848z"/>
		
			<linearGradient id="SVGID_00000022562506109915702880000003285225978811324052_" gradientUnits="userSpaceOnUse" x1="490.9223" y1="-46.531" x2="-60.6398" y2="505.0311" gradientTransform="matrix(-1 0 0 1 755.0349 0)">
			<stop  offset="0" style="stop-color:#FEE74D"/>
			<stop  offset="1" style="stop-color:#CC4616"/>
		</linearGradient>
		<path style="fill:url(#SVGID_00000022562506109915702880000003285225978811324052_);" d="M701.902,389.834
			c0.4,0.214,0.647,0.538,0.943,0.876c0.266,0.304,0.573,0.579,0.825,0.89c0.544,0.673,1.061,1.37,1.59,2.054
			c0.522,0.675,1.046,1.344,1.533,2.044c0.233,0.334,0.433,0.676,0.649,1.019c0.118,0.187,0.264,0.358,0.332,0.572
			c0.032,0.102,0.037,0.2,0.062,0.304c0.035,0.147,0.095,0.233,0.177,0.364c0.149,0.24-0.189,0.493-0.387,0.298
			c-0.066-0.065-0.138-0.163-0.216-0.213c-0.099-0.063-0.232-0.072-0.336-0.129c-0.193-0.107-0.338-0.283-0.488-0.44
			c-0.281-0.293-0.581-0.558-0.856-0.859c-0.583-0.637-1.13-1.299-1.68-1.965c-0.533-0.645-1.078-1.282-1.601-1.937
			c-0.264-0.33-0.472-0.703-0.722-1.045c-0.279-0.382-0.557-0.711-0.685-1.173C700.901,389.989,701.458,389.597,701.902,389.834z"/>
		<g>
			
				<linearGradient id="SVGID_00000072959384550928219920000015259183488014977727_" gradientUnits="userSpaceOnUse" x1="828.025" y1="290.5878" x2="553.625" y2="564.9878" gradientTransform="matrix(-1 0 0 1 755.0349 0)">
				<stop  offset="0" style="stop-color:#FEE74D"/>
				<stop  offset="1" style="stop-color:#CC4616"/>
			</linearGradient>
			<path style="fill:url(#SVGID_00000072959384550928219920000015259183488014977727_);" d="M60.156,423.757
				c0.008-0.001,0.033,0.002,0.058,0.011c-0.002,0-0.005,0-0.007-0.001C60.191,423.762,60.173,423.761,60.156,423.757z"/>
			
				<linearGradient id="SVGID_00000114761966955553712870000000393444196770811039_" gradientUnits="userSpaceOnUse" x1="828.5415" y1="291.0889" x2="276.9769" y2="842.6535" gradientTransform="matrix(-1 0 0 1 755.0349 0)">
				<stop  offset="0" style="stop-color:#FEE74D"/>
				<stop  offset="1" style="stop-color:#CC4616"/>
			</linearGradient>
			<path style="fill:url(#SVGID_00000114761966955553712870000000393444196770811039_);" d="M56.93,422.597
				c0.081,0.448,0.333,0.812,0.617,1.158c0.243,0.296,0.545,0.548,0.867,0.754c0.689,0.442,1.514,0.587,2.315,0.439
				c0.293-0.054,0.465-0.384,0.428-0.656c-0.037-0.279-0.29-0.534-0.587-0.518c-0.086,0.004-0.172,0.005-0.258,0.001
				c-0.033-0.002-0.065-0.004-0.098-0.007c0.003,0.001,0.007,0.001,0.01,0.003c-0.005-0.002-0.012-0.002-0.017-0.004
				c-0.001,0-0.001,0-0.002,0c-0.049-0.005-0.057-0.009-0.049-0.01c-0.047-0.009-0.096-0.018-0.139-0.029
				c-0.076-0.019-0.15-0.042-0.224-0.067c-0.009-0.003-0.068-0.031-0.089-0.034c-0.002-0.001-0.005-0.002-0.007-0.003
				c-0.064-0.03-0.127-0.064-0.189-0.097c-0.129-0.07-0.25-0.149-0.37-0.233c-0.028-0.024-0.057-0.048-0.085-0.072
				c-0.054-0.048-0.106-0.098-0.156-0.149c-0.055-0.057-0.109-0.116-0.16-0.176c-0.008-0.009-0.009-0.01-0.014-0.017
				c-0.014-0.019-0.028-0.038-0.041-0.057c-0.17-0.245-0.298-0.52-0.439-0.781c-0.06-0.11-0.147-0.181-0.244-0.237
				c-0.006-0.014-0.01-0.024-0.013-0.03c-0.007-0.019-0.014-0.038-0.014-0.039c-0.009-0.026-0.018-0.053-0.027-0.08
				c-0.021-0.066-0.039-0.133-0.054-0.201c-0.016-0.076-0.022-0.109-0.026-0.146c-0.046-0.406-0.571-0.496-0.714-0.097
				c-0.096,0.267-0.136,0.553-0.146,0.837C56.924,422.219,56.897,422.418,56.93,422.597z"/>
		</g>
		
			<linearGradient id="SVGID_00000090280521260703331940000011205375174200692632_" gradientUnits="userSpaceOnUse" x1="816.3006" y1="278.8479" x2="264.7363" y2="830.4122" gradientTransform="matrix(-1 0 0 1 755.0349 0)">
			<stop  offset="0" style="stop-color:#FEE74D"/>
			<stop  offset="1" style="stop-color:#CC4616"/>
		</linearGradient>
		<path style="fill:url(#SVGID_00000090280521260703331940000011205375174200692632_);" d="M63.76,401.151
			c0.359,1.001,0.627,2.035,0.925,3.056c0.3,1.025,0.575,2.046,0.817,3.086c0.119,0.513-0.646,0.728-0.791,0.218
			c-0.292-1.027-0.545-2.054-0.778-3.096c-0.233-1.038-0.499-2.075-0.67-3.126C63.21,400.963,63.647,400.835,63.76,401.151z"/>
		
			<linearGradient id="SVGID_00000139989506688101476230000007943595580582969258_" gradientUnits="userSpaceOnUse" x1="805.0626" y1="267.6119" x2="253.5018" y2="819.1727" gradientTransform="matrix(-1 0 0 1 755.0349 0)">
			<stop  offset="0" style="stop-color:#FEE74D"/>
			<stop  offset="1" style="stop-color:#CC4616"/>
		</linearGradient>
		<path style="fill:url(#SVGID_00000139989506688101476230000007943595580582969258_);" d="M33.654,351.622
			c0.033-0.156,0.186-0.312,0.344-0.344c0.472-0.095,0.749,0.2,1.064,0.501c0.268,0.255,0.541,0.506,0.804,0.766
			c0.556,0.548,1.083,1.128,1.623,1.692c1.066,1.115,2.132,2.229,3.199,3.344c0.501,0.523-0.276,1.303-0.795,0.796
			c-1.103-1.078-2.206-2.155-3.31-3.233c-0.544-0.531-1.102-1.051-1.633-1.595c-0.259-0.265-0.506-0.541-0.758-0.812
			C33.885,352.408,33.549,352.112,33.654,351.622z"/>
		
			<linearGradient id="SVGID_00000027569377654083086920000003774457377418134162_" gradientUnits="userSpaceOnUse" x1="800.0712" y1="262.6197" x2="248.5093" y2="814.1815" gradientTransform="matrix(-1 0 0 1 755.0349 0)">
			<stop  offset="0" style="stop-color:#FEE74D"/>
			<stop  offset="1" style="stop-color:#CC4616"/>
		</linearGradient>
		<path style="fill:url(#SVGID_00000027569377654083086920000003774457377418134162_);" d="M129.662,438.271
			c0.113-0.193,0.376-0.317,0.595-0.242c0.253,0.086,0.486,0.172,0.712,0.318c0.205,0.132,0.41,0.264,0.614,0.396
			c0.383,0.247,0.777,0.484,1.148,0.749c0.771,0.552,1.532,1.119,2.297,1.678c0.26,0.19,0.389,0.519,0.214,0.818
			c-0.158,0.271-0.544,0.389-0.818,0.214c-0.796-0.507-1.597-1.007-2.388-1.522c-0.383-0.25-0.748-0.531-1.119-0.799
			c-0.198-0.143-0.397-0.286-0.595-0.43c-0.226-0.163-0.4-0.328-0.579-0.541C129.592,438.728,129.536,438.485,129.662,438.271z"/>
		
			<linearGradient id="SVGID_00000169526635315173844020000004397645041007324292_" gradientUnits="userSpaceOnUse" x1="593.2113" y1="55.7614" x2="41.6527" y2="607.3201" gradientTransform="matrix(-1 0 0 1 755.0349 0)">
			<stop  offset="0" style="stop-color:#FEE74D"/>
			<stop  offset="1" style="stop-color:#CC4616"/>
		</linearGradient>
		<path style="fill:url(#SVGID_00000169526635315173844020000004397645041007324292_);" d="M358.072,250.778
			c0.908,0.937,1.712,1.971,2.5,3.008c0.397,0.522,0.793,1.045,1.19,1.567c0.099,0.131,0.199,0.26,0.297,0.392
			c0.112,0.15,0.151,0.262,0.215,0.431c0.112,0.292,0.364,0.567,0.539,0.825c0.222,0.326-0.297,0.735-0.552,0.426
			c-0.199-0.241-0.392-0.559-0.639-0.75c-0.143-0.11-0.244-0.176-0.358-0.326c-0.099-0.13-0.195-0.263-0.292-0.395
			c-0.39-0.526-0.78-1.052-1.17-1.579c-0.777-1.048-1.545-2.109-2.19-3.245C357.449,250.848,357.836,250.535,358.072,250.778z"/>
		
			<linearGradient id="SVGID_00000031202992593938780980000011368528281900045459_" gradientUnits="userSpaceOnUse" x1="621.9" y1="84.4476" x2="70.3301" y2="636.0175" gradientTransform="matrix(-1 0 0 1 755.0349 0)">
			<stop  offset="0" style="stop-color:#FEE74D"/>
			<stop  offset="1" style="stop-color:#CC4616"/>
		</linearGradient>
		<path style="fill:url(#SVGID_00000031202992593938780980000011368528281900045459_);" d="M176.117,127.873
			c0.01-0.132,0.019-0.263,0.029-0.395c0.007-0.099,0.016-0.198,0.045-0.293c0.02-0.065,0.04-0.131,0.06-0.196
			c0.059-0.19,0.243-0.353,0.452-0.344c0.211,0.009,0.389,0.14,0.452,0.344c0.02,0.065,0.04,0.131,0.06,0.196
			c0.029,0.095,0.037,0.194,0.045,0.293c0.01,0.132,0.02,0.263,0.029,0.395c0.019,0.263,0.039,0.526,0.058,0.789
			c0.012,0.158-0.08,0.347-0.189,0.456c-0.112,0.112-0.295,0.196-0.456,0.189c-0.167-0.007-0.34-0.062-0.456-0.189
			c-0.111-0.121-0.201-0.286-0.189-0.456C176.078,128.4,176.097,128.137,176.117,127.873z"/>
		
			<linearGradient id="SVGID_00000183239901128419336690000001748070542806440837_" gradientUnits="userSpaceOnUse" x1="583.5267" y1="46.0731" x2="31.9615" y2="597.6383" gradientTransform="matrix(-1 0 0 1 755.0349 0)">
			<stop  offset="0" style="stop-color:#FEE74D"/>
			<stop  offset="1" style="stop-color:#CC4616"/>
		</linearGradient>
		<path style="fill:url(#SVGID_00000183239901128419336690000001748070542806440837_);" d="M333.401,208.41
			c0.01-0.132,0.019-0.263,0.029-0.395c0.007-0.099,0.016-0.198,0.045-0.293c0.02-0.065,0.04-0.131,0.06-0.196
			c0.059-0.19,0.243-0.354,0.452-0.344c0.211,0.009,0.389,0.14,0.452,0.344c0.02,0.065,0.04,0.131,0.06,0.196
			c0.029,0.095,0.038,0.194,0.045,0.293c0.01,0.132,0.019,0.263,0.029,0.395c0.019,0.263,0.039,0.526,0.058,0.789
			c0.012,0.158-0.08,0.347-0.189,0.456c-0.112,0.112-0.295,0.196-0.456,0.189c-0.167-0.008-0.34-0.062-0.456-0.189
			c-0.111-0.121-0.201-0.286-0.189-0.456C333.362,208.936,333.382,208.673,333.401,208.41z"/>
		
			<linearGradient id="SVGID_00000157989016390084841780000008173185414973208744_" gradientUnits="userSpaceOnUse" x1="657.6984" y1="120.2476" x2="106.1378" y2="671.8082" gradientTransform="matrix(-1 0 0 1 755.0349 0)">
			<stop  offset="0" style="stop-color:#FEE74D"/>
			<stop  offset="1" style="stop-color:#CC4616"/>
		</linearGradient>
		<path style="fill:url(#SVGID_00000157989016390084841780000008173185414973208744_);" d="M104.474,128.353
			c0.865,1.171,1.861,2.132,3.21,2.723c1.314,0.577,2.641,0.998,4.094,0.856c0.44-0.043,0.515,0.649,0.103,0.76
			c-1.601,0.429-3.421,0.389-4.908-0.398c-1.447-0.766-2.796-2.015-3.355-3.579C103.424,128.175,104.183,127.959,104.474,128.353z"
			/>
		
			<linearGradient id="SVGID_00000127020437567715259000000001335866949663430055_" gradientUnits="userSpaceOnUse" x1="632.288" y1="94.8369" x2="80.7282" y2="646.3966" gradientTransform="matrix(-1 0 0 1 755.0349 0)">
			<stop  offset="0" style="stop-color:#FEE74D"/>
			<stop  offset="1" style="stop-color:#CC4616"/>
		</linearGradient>
		<path style="fill:url(#SVGID_00000127020437567715259000000001335866949663430055_);" d="M66.986,38.482
			c0.751,0.511,1.356,1.225,1.995,1.868c0.653,0.656,1.305,1.312,1.958,1.968c1.306,1.313,2.609,2.624,3.877,3.974
			c0.382,0.407-0.206,0.996-0.613,0.613c-1.35-1.267-2.661-2.571-3.974-3.877c-0.638-0.634-1.276-1.269-1.913-1.903
			c-0.66-0.656-1.398-1.278-1.922-2.05C66.152,38.721,66.632,38.241,66.986,38.482z"/>
		
			<linearGradient id="SVGID_00000109736250668288890210000010644366276426060439_" gradientUnits="userSpaceOnUse" x1="557.4911" y1="20.0404" x2="5.9313" y2="571.6002" gradientTransform="matrix(-1 0 0 1 755.0349 0)">
			<stop  offset="0" style="stop-color:#FEE74D"/>
			<stop  offset="1" style="stop-color:#CC4616"/>
		</linearGradient>
		<path style="fill:url(#SVGID_00000109736250668288890210000010644366276426060439_);" d="M219.866,41.355
			c0.296-0.156,0.676-0.078,0.85,0.223c0.288,0.499,0.575,0.998,0.863,1.498c0.288,0.499,0.5,1.046,0.736,1.571
			c0.14,0.312,0.101,0.72-0.235,0.898c-0.312,0.165-0.716,0.083-0.898-0.235c-0.285-0.499-0.599-0.99-0.832-1.515
			c-0.235-0.53-0.47-1.06-0.706-1.589C219.512,41.909,219.547,41.524,219.866,41.355z"/>
		
			<linearGradient id="SVGID_00000029755962111593762120000014882014171796555425_" gradientUnits="userSpaceOnUse" x1="603.6092" y1="66.1579" x2="52.0479" y2="617.7193" gradientTransform="matrix(-1 0 0 1 755.0349 0)">
			<stop  offset="0" style="stop-color:#FEE74D"/>
			<stop  offset="1" style="stop-color:#CC4616"/>
		</linearGradient>
		<path style="fill:url(#SVGID_00000029755962111593762120000014882014171796555425_);" d="M318.35,232.803
			c0.897,0.641,1.667,1.463,2.468,2.219l2.423,2.285c0.352,0.332-0.178,0.86-0.53,0.53c-0.799-0.748-1.598-1.495-2.398-2.243
			c-0.794-0.743-1.66-1.45-2.347-2.293C317.759,233.045,318.033,232.576,318.35,232.803z"/>
		
			<linearGradient id="SVGID_00000127724032718889715280000001680458939937008059_" gradientUnits="userSpaceOnUse" x1="651.6441" y1="114.1897" x2="100.0807" y2="665.7531" gradientTransform="matrix(-1 0 0 1 755.0349 0)">
			<stop  offset="0" style="stop-color:#FEE74D"/>
			<stop  offset="1" style="stop-color:#CC4616"/>
		</linearGradient>
		<path style="fill:url(#SVGID_00000127724032718889715280000001680458939937008059_);" d="M435.004,445.802
			c0.137-0.126,0.353-0.17,0.517-0.067c0.17,0.107,0.308,0.281,0.449,0.424c0.13,0.132,0.26,0.263,0.39,0.395
			c0.257,0.259,0.513,0.519,0.77,0.778c0.155,0.157,0.168,0.442,0,0.597c-0.169,0.155-0.429,0.166-0.597,0
			c-0.26-0.257-0.519-0.513-0.779-0.77c-0.128-0.126-0.256-0.253-0.384-0.38c-0.146-0.144-0.325-0.286-0.434-0.46
			C434.84,446.166,434.868,445.927,435.004,445.802z"/>
		
			<linearGradient id="SVGID_00000024000979193360435160000009979550535577690547_" gradientUnits="userSpaceOnUse" x1="620.8052" y1="83.3564" x2="69.2464" y2="634.9151" gradientTransform="matrix(-1 0 0 1 755.0349 0)">
			<stop  offset="0" style="stop-color:#FEE74D"/>
			<stop  offset="1" style="stop-color:#CC4616"/>
		</linearGradient>
		<path style="fill:url(#SVGID_00000024000979193360435160000009979550535577690547_);" d="M449.224,397.98
			c0.449,0.312,0.834,0.714,1.235,1.086c0.204,0.189,0.408,0.377,0.611,0.566c0.204,0.189,0.431,0.354,0.629,0.549
			c0.385,0.378,0.753,0.774,1.13,1.16c0.194,0.199,0.387,0.398,0.581,0.597c0.102,0.104,0.168,0.22,0.254,0.334
			c0.092,0.122,0.206,0.232,0.308,0.347c0.291,0.328-0.153,0.772-0.481,0.481c-0.104-0.092-0.205-0.189-0.312-0.277
			c-0.11-0.09-0.231-0.155-0.336-0.253c-0.203-0.19-0.398-0.388-0.596-0.581c-0.397-0.387-0.804-0.767-1.193-1.163
			c-0.184-0.187-0.339-0.402-0.517-0.595c-0.189-0.204-0.377-0.408-0.566-0.612c-0.381-0.412-0.796-0.808-1.117-1.27
			C448.704,398.131,449.006,397.829,449.224,397.98z"/>
		
			<linearGradient id="SVGID_00000093888280463455437500000008599156529251882381_" gradientUnits="userSpaceOnUse" x1="618.2361" y1="80.7858" x2="66.6764" y2="632.3454" gradientTransform="matrix(-1 0 0 1 755.0349 0)">
			<stop  offset="0" style="stop-color:#FEE74D"/>
			<stop  offset="1" style="stop-color:#CC4616"/>
		</linearGradient>
		<path style="fill:url(#SVGID_00000093888280463455437500000008599156529251882381_);" d="M410.871,354.366
			c1.109,0.943,2.13,2.005,3.154,3.039l3.081,3.112c0.382,0.386-0.212,0.981-0.597,0.597c-1.032-1.032-2.064-2.065-3.096-3.097
			c-1.029-1.029-2.086-2.056-3.023-3.17C410.108,354.512,410.536,354.082,410.871,354.366z"/>
		
			<linearGradient id="SVGID_00000005967472018476855120000012028456705225245358_" gradientUnits="userSpaceOnUse" x1="324.931" y1="-212.5217" x2="-226.6312" y2="339.0405" gradientTransform="matrix(-1 0 0 1 755.0349 0)">
			<stop  offset="0" style="stop-color:#FEE74D"/>
			<stop  offset="1" style="stop-color:#CC4616"/>
		</linearGradient>
		<path style="fill:url(#SVGID_00000005967472018476855120000012028456705225245358_);" d="M665.639,23.201
			c0.094-0.177,0.296-0.253,0.486-0.262c0.236-0.01,0.478,0.208,0.646,0.354c0.223,0.194,0.422,0.425,0.628,0.637
			c0.215,0.221,0.431,0.441,0.646,0.662c0.481,0.493,0.962,0.986,1.443,1.479c0.206,0.211,0.226,0.588,0,0.795
			c-0.227,0.208-0.57,0.22-0.796,0l-2.605-2.542c-0.133-0.13-0.246-0.27-0.359-0.418C665.566,23.695,665.508,23.449,665.639,23.201z
			"/>
		
			<linearGradient id="SVGID_00000042707264001487068320000010546509140817114539_" gradientUnits="userSpaceOnUse" x1="568.7505" y1="31.3037" x2="17.1924" y2="582.8618" gradientTransform="matrix(-1 0 0 1 755.0349 0)">
			<stop  offset="0" style="stop-color:#FEE74D"/>
			<stop  offset="1" style="stop-color:#CC4616"/>
		</linearGradient>
		<path style="fill:url(#SVGID_00000042707264001487068320000010546509140817114539_);" d="M624.464,469.699
			c0.215-0.279,0.694-0.356,0.944-0.064c0.376,0.437,0.862,0.778,1.295,1.157c0.213,0.187,0.418,0.385,0.626,0.578
			c0.104,0.097,0.208,0.193,0.313,0.29c0.052,0.048,0.108,0.094,0.155,0.147c0.043,0.049,0.065,0.103,0.086,0.159
			c0.103,0.102,0.206,0.205,0.308,0.307c0.153,0.152-0.041,0.397-0.227,0.295c-0.126-0.069-0.252-0.139-0.378-0.208
			c-0.062-0.005-0.121-0.012-0.183-0.042c-0.055-0.026-0.106-0.061-0.158-0.092c-0.122-0.073-0.244-0.146-0.367-0.22
			c-0.253-0.152-0.51-0.298-0.759-0.456c-0.486-0.31-0.951-0.682-1.477-0.921C624.293,470.47,624.255,469.969,624.464,469.699z"/>
		
			<linearGradient id="SVGID_00000082358079269156070800000009075012321256508052_" gradientUnits="userSpaceOnUse" x1="562.6058" y1="25.1631" x2="11.0504" y2="576.7185" gradientTransform="matrix(-1 0 0 1 755.0349 0)">
			<stop  offset="0" style="stop-color:#FEE74D"/>
			<stop  offset="1" style="stop-color:#CC4616"/>
		</linearGradient>
		<path style="fill:url(#SVGID_00000082358079269156070800000009075012321256508052_);" d="M625.735,457.426
			c1.342,0,1.344,2.086,0,2.086C624.393,459.512,624.391,457.426,625.735,457.426z"/>
		
			<linearGradient id="SVGID_00000181793975054991928250000009145047393615141511_" gradientUnits="userSpaceOnUse" x1="576.6496" y1="39.2026" x2="25.0942" y2="590.758" gradientTransform="matrix(-1 0 0 1 755.0349 0)">
			<stop  offset="0" style="stop-color:#FEE74D"/>
			<stop  offset="1" style="stop-color:#CC4616"/>
		</linearGradient>
		<path style="fill:url(#SVGID_00000181793975054991928250000009145047393615141511_);" d="M380.701,240.475
			c1.342,0,1.345,2.086,0,2.086C379.358,242.561,379.356,240.475,380.701,240.475z"/>
		
			<linearGradient id="SVGID_00000044886987813057467250000004010573785429272469_" gradientUnits="userSpaceOnUse" x1="570.3872" y1="32.9352" x2="18.8259" y2="584.4965" gradientTransform="matrix(-1 0 0 1 755.0349 0)">
			<stop  offset="0" style="stop-color:#FEE74D"/>
			<stop  offset="1" style="stop-color:#CC4616"/>
		</linearGradient>
		<path style="fill:url(#SVGID_00000044886987813057467250000004010573785429272469_);" d="M602.942,451.76
			c0.168-0.26,0.568-0.426,0.849-0.223c0.743,0.537,1.486,1.074,2.23,1.612c0.119,0.086,0.213,0.182,0.253,0.329
			c0.036,0.132,0.02,0.307-0.055,0.424c-0.156,0.241-0.495,0.365-0.754,0.198c-0.767-0.497-1.534-0.994-2.301-1.491
			C602.892,452.433,602.754,452.051,602.942,451.76z"/>
		
			<linearGradient id="SVGID_00000145049543329105845640000015641210430725201541_" gradientUnits="userSpaceOnUse" x1="581.3457" y1="43.8946" x2="29.7846" y2="595.4557" gradientTransform="matrix(-1 0 0 1 755.0349 0)">
			<stop  offset="0" style="stop-color:#FEE74D"/>
			<stop  offset="1" style="stop-color:#CC4616"/>
		</linearGradient>
		<path style="fill:url(#SVGID_00000145049543329105845640000015641210430725201541_);" d="M410.714,281.451
			c0.168-0.26,0.568-0.426,0.849-0.223c0.743,0.537,1.487,1.074,2.23,1.612c0.119,0.086,0.213,0.182,0.253,0.329
			c0.036,0.132,0.02,0.307-0.055,0.424c-0.156,0.241-0.495,0.365-0.754,0.198c-0.767-0.497-1.534-0.994-2.301-1.491
			C410.665,282.123,410.527,281.741,410.714,281.451z"/>
		
			<linearGradient id="SVGID_00000013888635844301747540000012727475915759537319_" gradientUnits="userSpaceOnUse" x1="584.4407" y1="46.9895" x2="32.88" y2="598.5502" gradientTransform="matrix(-1 0 0 1 755.0349 0)">
			<stop  offset="0" style="stop-color:#FEE74D"/>
			<stop  offset="1" style="stop-color:#CC4616"/>
		</linearGradient>
		<path style="fill:url(#SVGID_00000013888635844301747540000012727475915759537319_);" d="M596.158,472.03
			c0.196-0.083,0.395-0.002,0.512,0.168c0.064,0.093,0.129,0.187,0.193,0.28c0.032,0.047,0.067,0.092,0.094,0.141
			c0.041,0.074,0.068,0.163,0.1,0.242c0.083,0.208,0.166,0.416,0.249,0.624c0.027,0.068,0.023,0.145,0,0.218
			c0.022,0.058,0.044,0.115,0.066,0.173c0.052,0.136-0.047,0.294-0.17,0.346c-0.136,0.057-0.288,0.005-0.366-0.12
			c-0.029-0.046-0.058-0.092-0.087-0.139c-0.08-0.038-0.152-0.093-0.194-0.161c-0.118-0.193-0.236-0.386-0.354-0.579
			c-0.134-0.219-0.201-0.466-0.282-0.708C595.855,472.32,595.98,472.105,596.158,472.03z"/>
		
			<linearGradient id="SVGID_00000129899040882434685110000008279466774253683852_" gradientUnits="userSpaceOnUse" x1="552.2609" y1="14.8" x2="0.6942" y2="566.3666" gradientTransform="matrix(-1 0 0 1 755.0349 0)">
			<stop  offset="0" style="stop-color:#FEE74D"/>
			<stop  offset="1" style="stop-color:#CC4616"/>
		</linearGradient>
		<path style="fill:url(#SVGID_00000129899040882434685110000008279466774253683852_);" d="M660.031,471.16
			c0.205,0.067,0.327,0.184,0.472,0.336c0.135,0.14,0.278,0.274,0.384,0.438c0.184,0.282,0.348,0.579,0.521,0.867
			c0.349,0.58,0.705,1.15,1.002,1.758c0.071,0.147,0.052,0.321-0.084,0.423c-0.127,0.095-0.316,0.095-0.431-0.026
			c-0.461-0.487-0.865-1.017-1.281-1.543c-0.208-0.263-0.417-0.524-0.624-0.788c-0.125-0.16-0.203-0.328-0.29-0.511
			c-0.089-0.187-0.183-0.356-0.174-0.571C659.537,471.297,659.774,471.076,660.031,471.16z"/>
		
			<linearGradient id="SVGID_00000183232406024510470170000005688353064396026043_" gradientUnits="userSpaceOnUse" x1="527.2162" y1="-10.2362" x2="-24.3453" y2="541.3253" gradientTransform="matrix(-1 0 0 1 755.0349 0)">
			<stop  offset="0" style="stop-color:#FEE74D"/>
			<stop  offset="1" style="stop-color:#CC4616"/>
		</linearGradient>
		<path style="fill:url(#SVGID_00000183232406024510470170000005688353064396026043_);" d="M682.698,444.534
			c0.008-0.089,0.031-0.167,0.096-0.232c0.057-0.057,0.15-0.1,0.232-0.096c0.085,0.004,0.173,0.032,0.232,0.096
			c0.062,0.067,0.088,0.141,0.096,0.232c0.023,0.258,0.047,0.516,0.07,0.774c0.009,0.096-0.051,0.216-0.117,0.282
			c-0.069,0.069-0.183,0.121-0.282,0.117c-0.103-0.005-0.21-0.039-0.282-0.117c-0.068-0.074-0.126-0.178-0.117-0.282
			C682.651,445.05,682.674,444.792,682.698,444.534z"/>
	</g>
</g>
</svg>
